G04 #@! TF.GenerationSoftware,KiCad,Pcbnew,6.0.4-6f826c9f35~116~ubuntu20.04.1*
G04 #@! TF.CreationDate,2022-04-30T09:34:45+02:00*
G04 #@! TF.ProjectId,mainboard,6d61696e-626f-4617-9264-2e6b69636164,rev?*
G04 #@! TF.SameCoordinates,Original*
G04 #@! TF.FileFunction,Soldermask,Bot*
G04 #@! TF.FilePolarity,Negative*
%FSLAX46Y46*%
G04 Gerber Fmt 4.6, Leading zero omitted, Abs format (unit mm)*
G04 Created by KiCad (PCBNEW 6.0.4-6f826c9f35~116~ubuntu20.04.1) date 2022-04-30 09:34:45*
%MOMM*%
%LPD*%
G01*
G04 APERTURE LIST*
G04 Aperture macros list*
%AMRoundRect*
0 Rectangle with rounded corners*
0 $1 Rounding radius*
0 $2 $3 $4 $5 $6 $7 $8 $9 X,Y pos of 4 corners*
0 Add a 4 corners polygon primitive as box body*
4,1,4,$2,$3,$4,$5,$6,$7,$8,$9,$2,$3,0*
0 Add four circle primitives for the rounded corners*
1,1,$1+$1,$2,$3*
1,1,$1+$1,$4,$5*
1,1,$1+$1,$6,$7*
1,1,$1+$1,$8,$9*
0 Add four rect primitives between the rounded corners*
20,1,$1+$1,$2,$3,$4,$5,0*
20,1,$1+$1,$4,$5,$6,$7,0*
20,1,$1+$1,$6,$7,$8,$9,0*
20,1,$1+$1,$8,$9,$2,$3,0*%
G04 Aperture macros list end*
%ADD10RoundRect,0.250000X-0.650000X0.350000X-0.650000X-0.350000X0.650000X-0.350000X0.650000X0.350000X0*%
%ADD11O,1.800000X1.200000*%
%ADD12C,0.500000*%
%ADD13C,1.000000*%
%ADD14O,1.350000X1.350000*%
%ADD15R,1.350000X1.350000*%
%ADD16C,0.650000*%
%ADD17O,1.600000X1.000000*%
%ADD18O,2.100000X1.000000*%
%ADD19C,3.000000*%
%ADD20R,1.700000X1.700000*%
%ADD21O,1.700000X1.700000*%
G04 APERTURE END LIST*
D10*
X98810000Y-126000000D03*
D11*
X98810000Y-128000000D03*
D12*
X213660000Y-115400000D03*
X214410000Y-112400000D03*
X213660000Y-112400000D03*
X215184000Y-112400000D03*
X215184000Y-115400000D03*
X212898000Y-115400000D03*
X212148000Y-112400000D03*
X212910000Y-112400000D03*
X214410000Y-115400000D03*
X212148000Y-115400000D03*
D13*
X167110000Y-125400000D03*
D14*
X209160000Y-119200000D03*
D15*
X209160000Y-117200000D03*
D16*
X213255000Y-104470000D03*
X213255000Y-98690000D03*
D17*
X216935000Y-105900000D03*
D18*
X212755000Y-105900000D03*
X212755000Y-97260000D03*
D17*
X216935000Y-97260000D03*
D14*
X217660000Y-119200000D03*
D15*
X217660000Y-117200000D03*
D13*
X169160000Y-125400000D03*
D16*
X213255000Y-78040000D03*
X213255000Y-72260000D03*
D17*
X216935000Y-79470000D03*
D18*
X212755000Y-79470000D03*
X212755000Y-70830000D03*
D17*
X216935000Y-70830000D03*
D19*
X108860000Y-131400000D03*
X82860000Y-131400000D03*
X108860000Y-65400000D03*
X82860000Y-65400000D03*
D20*
X134820000Y-85900000D03*
D21*
X134820000Y-83360000D03*
X137360000Y-85900000D03*
X137360000Y-83360000D03*
X139900000Y-85900000D03*
X139900000Y-83360000D03*
X142440000Y-85900000D03*
X142440000Y-83360000D03*
X144980000Y-85900000D03*
X144980000Y-83360000D03*
X147520000Y-85900000D03*
X147520000Y-83360000D03*
X150060000Y-85900000D03*
X150060000Y-83360000D03*
X152600000Y-85900000D03*
X152600000Y-83360000D03*
X155140000Y-85900000D03*
X155140000Y-83360000D03*
X157680000Y-85900000D03*
X157680000Y-83360000D03*
X160220000Y-85900000D03*
X160220000Y-83360000D03*
X162760000Y-85900000D03*
X162760000Y-83360000D03*
X165300000Y-85900000D03*
X165300000Y-83360000D03*
X167840000Y-85900000D03*
X167840000Y-83360000D03*
X170380000Y-85900000D03*
X170380000Y-83360000D03*
X172920000Y-85900000D03*
X172920000Y-83360000D03*
X175460000Y-85900000D03*
X175460000Y-83360000D03*
X178000000Y-85900000D03*
X178000000Y-83360000D03*
X180540000Y-85900000D03*
X180540000Y-83360000D03*
X183080000Y-85900000D03*
X183080000Y-83360000D03*
D19*
X125860000Y-72400000D03*
D20*
X134860000Y-96900000D03*
D21*
X134860000Y-94360000D03*
X137400000Y-96900000D03*
X137400000Y-94360000D03*
X139940000Y-96900000D03*
X139940000Y-94360000D03*
X142480000Y-96900000D03*
X142480000Y-94360000D03*
X145020000Y-96900000D03*
X145020000Y-94360000D03*
X147560000Y-96900000D03*
X147560000Y-94360000D03*
X150100000Y-96900000D03*
X150100000Y-94360000D03*
X152640000Y-96900000D03*
X152640000Y-94360000D03*
X155180000Y-96900000D03*
X155180000Y-94360000D03*
X157720000Y-96900000D03*
X157720000Y-94360000D03*
X160260000Y-96900000D03*
X160260000Y-94360000D03*
X162800000Y-96900000D03*
X162800000Y-94360000D03*
X165340000Y-96900000D03*
X165340000Y-94360000D03*
X167880000Y-96900000D03*
X167880000Y-94360000D03*
X170420000Y-96900000D03*
X170420000Y-94360000D03*
X172960000Y-96900000D03*
X172960000Y-94360000D03*
X175500000Y-96900000D03*
X175500000Y-94360000D03*
X178040000Y-96900000D03*
X178040000Y-94360000D03*
X180580000Y-96900000D03*
X180580000Y-94360000D03*
X183120000Y-96900000D03*
X183120000Y-94360000D03*
D12*
X182610000Y-92400000D03*
X181098000Y-92400000D03*
X180348000Y-92400000D03*
X183384000Y-89400000D03*
X181860000Y-92400000D03*
X180348000Y-89400000D03*
X181110000Y-89400000D03*
X182610000Y-89400000D03*
X181860000Y-89400000D03*
X183384000Y-92400000D03*
D20*
X134860000Y-104900000D03*
D21*
X134860000Y-102360000D03*
X137400000Y-104900000D03*
X137400000Y-102360000D03*
X139940000Y-104900000D03*
X139940000Y-102360000D03*
X142480000Y-104900000D03*
X142480000Y-102360000D03*
X145020000Y-104900000D03*
X145020000Y-102360000D03*
X147560000Y-104900000D03*
X147560000Y-102360000D03*
X150100000Y-104900000D03*
X150100000Y-102360000D03*
X152640000Y-104900000D03*
X152640000Y-102360000D03*
X155180000Y-104900000D03*
X155180000Y-102360000D03*
X157720000Y-104900000D03*
X157720000Y-102360000D03*
X160260000Y-104900000D03*
X160260000Y-102360000D03*
X162800000Y-104900000D03*
X162800000Y-102360000D03*
X165340000Y-104900000D03*
X165340000Y-102360000D03*
X167880000Y-104900000D03*
X167880000Y-102360000D03*
X170420000Y-104900000D03*
X170420000Y-102360000D03*
X172960000Y-104900000D03*
X172960000Y-102360000D03*
X175500000Y-104900000D03*
X175500000Y-102360000D03*
X178040000Y-104900000D03*
X178040000Y-102360000D03*
X180580000Y-104900000D03*
X180580000Y-102360000D03*
X183120000Y-104900000D03*
X183120000Y-102360000D03*
D12*
X134598000Y-92400000D03*
X134598000Y-89400000D03*
X136860000Y-92400000D03*
X137634000Y-89400000D03*
X137634000Y-92400000D03*
X135348000Y-92400000D03*
X136110000Y-92400000D03*
X136860000Y-89400000D03*
X135360000Y-89400000D03*
X136110000Y-89400000D03*
M02*
