G04 #@! TF.GenerationSoftware,KiCad,Pcbnew,6.0.5-a6ca702e91~116~ubuntu20.04.1*
G04 #@! TF.CreationDate,2022-05-27T16:06:55+02:00*
G04 #@! TF.ProjectId,mainboard,6d61696e-626f-4617-9264-2e6b69636164,rev?*
G04 #@! TF.SameCoordinates,Original*
G04 #@! TF.FileFunction,Profile,NP*
%FSLAX46Y46*%
G04 Gerber Fmt 4.6, Leading zero omitted, Abs format (unit mm)*
G04 Created by KiCad (PCBNEW 6.0.5-a6ca702e91~116~ubuntu20.04.1) date 2022-05-27 16:06:55*
%MOMM*%
%LPD*%
G01*
G04 APERTURE LIST*
G04 #@! TA.AperFunction,Profile*
%ADD10C,0.200000*%
G04 #@! TD*
G04 #@! TA.AperFunction,Profile*
%ADD11C,0.050000*%
G04 #@! TD*
G04 APERTURE END LIST*
D10*
X77860000Y-56400000D02*
X201860000Y-56400000D01*
X77860000Y-56400000D02*
X77860000Y-134400000D01*
X77860000Y-134400000D02*
X201860000Y-134400000D01*
X201860000Y-69200000D02*
X201860000Y-56400000D01*
X178860000Y-92400000D02*
G75*
G03*
X178860000Y-89400000I0J1500000D01*
G01*
X133110000Y-92400000D02*
G75*
G03*
X133110000Y-89400000I0J1500000D01*
G01*
X178860000Y-92400000D02*
X139110000Y-92400000D01*
X219860000Y-112400000D02*
X216660000Y-112400000D01*
X184860000Y-92400000D02*
X184860000Y-108150000D01*
X113610000Y-96400000D02*
X113610000Y-111400000D01*
X113610000Y-111400000D02*
X124860000Y-111400000D01*
X124860000Y-89400000D02*
X133110000Y-89400000D01*
X184860000Y-89400000D02*
G75*
G03*
X184860000Y-92400000I0J-1500000D01*
G01*
X124860000Y-111400000D02*
X124860000Y-123400000D01*
X201860000Y-107400000D02*
X201860000Y-134400000D01*
X192860000Y-123400000D02*
X124860000Y-123400000D01*
X219860000Y-64400000D02*
X219860000Y-112400000D01*
D11*
X216860000Y-115400000D02*
X216660000Y-115400000D01*
D10*
X192860000Y-123400000D02*
X192860000Y-89400000D01*
X139110000Y-89400000D02*
G75*
G03*
X139110000Y-92400000I0J-1500000D01*
G01*
D11*
X216860000Y-121000000D02*
X216860000Y-115400000D01*
X216660000Y-112400000D02*
G75*
G03*
X216660000Y-115400000I0J-1500000D01*
G01*
D10*
X133110000Y-108150000D02*
X133110000Y-92400000D01*
X192860000Y-89400000D02*
X184860000Y-89400000D01*
D11*
X210660000Y-115400000D02*
G75*
G03*
X210660000Y-112400000I0J1500000D01*
G01*
D10*
X206860000Y-112400000D02*
X210660000Y-112400000D01*
D11*
X210360000Y-115400000D02*
X210660000Y-115400000D01*
D10*
X124860000Y-96400000D02*
X113610000Y-96400000D01*
X206860000Y-107400000D02*
X201860000Y-107400000D01*
X184860000Y-108150000D02*
X133110000Y-108150000D01*
X206860000Y-107400000D02*
X206860000Y-112400000D01*
X139110000Y-89400000D02*
X178860000Y-89400000D01*
D11*
X210360000Y-115400000D02*
X210360000Y-121000000D01*
D10*
X124860000Y-89400000D02*
X124860000Y-96400000D01*
X206860000Y-69200000D02*
X206860000Y-64400000D01*
X206860000Y-64400000D02*
X219860000Y-64400000D01*
D11*
X210360000Y-121000000D02*
X216860000Y-121000000D01*
D10*
X201860000Y-69200000D02*
X206860000Y-69200000D01*
M02*
