M48
; DRILL file {KiCad 6.0.5-a6ca702e91~116~ubuntu20.04.1} date Fr 27 Mai 2022 16:06:58 CEST
; FORMAT={-:-/ absolute / inch / decimal}
; #@! TF.CreationDate,2022-05-27T16:06:58+02:00
; #@! TF.GenerationSoftware,Kicad,Pcbnew,6.0.5-a6ca702e91~116~ubuntu20.04.1
; #@! TF.FileFunction,NonPlated,1,2,NPTH
FMAT,2
INCH
; #@! TA.AperFunction,NonPlated,NPTH,ComponentDrill
T1C0.0197
; #@! TA.AperFunction,NonPlated,NPTH,ComponentDrill
T2C0.0256
; #@! TA.AperFunction,NonPlated,NPTH,ComponentDrill
T3C0.1181
%
G90
G05
T1
X5.2991Y-3.5197
X5.2991Y-3.6378
X5.3287Y-3.6378
X5.3291Y-3.5197
X5.3587Y-3.5197
X5.3587Y-3.6378
X5.3882Y-3.5197
X5.3882Y-3.6378
X5.4187Y-3.5197
X5.4187Y-3.6378
X7.1003Y-3.5197
X7.1003Y-3.6378
X7.1298Y-3.6378
X7.1303Y-3.5197
X7.1598Y-3.5197
X7.1598Y-3.6378
X7.1894Y-3.5197
X7.1894Y-3.6378
X7.2198Y-3.5197
X7.2198Y-3.6378
X8.3523Y-4.4252
X8.3523Y-4.5433
X8.3818Y-4.5433
X8.3823Y-4.4252
X8.4118Y-4.4252
X8.4118Y-4.5433
X8.4413Y-4.4252
X8.4413Y-4.5433
X8.4718Y-4.4252
X8.4718Y-4.5433
T2
X8.3959Y-2.8449
X8.3959Y-3.0724
X8.3959Y-3.8854
X8.3959Y-4.113
T3
X3.2622Y-2.5748
X3.2622Y-5.1732
X4.2858Y-2.5748
X4.2858Y-5.1732
X4.9551Y-2.8504
T0
M30
