G04 #@! TF.GenerationSoftware,KiCad,Pcbnew,6.0.4-6f826c9f35~116~ubuntu20.04.1*
G04 #@! TF.CreationDate,2022-04-30T09:34:44+02:00*
G04 #@! TF.ProjectId,mainboard,6d61696e-626f-4617-9264-2e6b69636164,rev?*
G04 #@! TF.SameCoordinates,Original*
G04 #@! TF.FileFunction,Copper,L2,Bot*
G04 #@! TF.FilePolarity,Positive*
%FSLAX46Y46*%
G04 Gerber Fmt 4.6, Leading zero omitted, Abs format (unit mm)*
G04 Created by KiCad (PCBNEW 6.0.4-6f826c9f35~116~ubuntu20.04.1) date 2022-04-30 09:34:44*
%MOMM*%
%LPD*%
G01*
G04 APERTURE LIST*
G04 Aperture macros list*
%AMRoundRect*
0 Rectangle with rounded corners*
0 $1 Rounding radius*
0 $2 $3 $4 $5 $6 $7 $8 $9 X,Y pos of 4 corners*
0 Add a 4 corners polygon primitive as box body*
4,1,4,$2,$3,$4,$5,$6,$7,$8,$9,$2,$3,0*
0 Add four circle primitives for the rounded corners*
1,1,$1+$1,$2,$3*
1,1,$1+$1,$4,$5*
1,1,$1+$1,$6,$7*
1,1,$1+$1,$8,$9*
0 Add four rect primitives between the rounded corners*
20,1,$1+$1,$2,$3,$4,$5,0*
20,1,$1+$1,$4,$5,$6,$7,0*
20,1,$1+$1,$6,$7,$8,$9,0*
20,1,$1+$1,$8,$9,$2,$3,0*%
G04 Aperture macros list end*
G04 #@! TA.AperFunction,ComponentPad*
%ADD10RoundRect,0.250000X-0.650000X0.350000X-0.650000X-0.350000X0.650000X-0.350000X0.650000X0.350000X0*%
G04 #@! TD*
G04 #@! TA.AperFunction,ComponentPad*
%ADD11O,1.800000X1.200000*%
G04 #@! TD*
G04 #@! TA.AperFunction,SMDPad,CuDef*
%ADD12C,1.000000*%
G04 #@! TD*
G04 #@! TA.AperFunction,ComponentPad*
%ADD13O,1.350000X1.350000*%
G04 #@! TD*
G04 #@! TA.AperFunction,ComponentPad*
%ADD14R,1.350000X1.350000*%
G04 #@! TD*
G04 #@! TA.AperFunction,ComponentPad*
%ADD15O,1.600000X1.000000*%
G04 #@! TD*
G04 #@! TA.AperFunction,ComponentPad*
%ADD16O,2.100000X1.000000*%
G04 #@! TD*
G04 #@! TA.AperFunction,ComponentPad*
%ADD17R,1.700000X1.700000*%
G04 #@! TD*
G04 #@! TA.AperFunction,ComponentPad*
%ADD18O,1.700000X1.700000*%
G04 #@! TD*
G04 #@! TA.AperFunction,ViaPad*
%ADD19C,0.800000*%
G04 #@! TD*
G04 #@! TA.AperFunction,Conductor*
%ADD20C,0.200000*%
G04 #@! TD*
G04 #@! TA.AperFunction,Conductor*
%ADD21C,1.000000*%
G04 #@! TD*
G04 #@! TA.AperFunction,Conductor*
%ADD22C,0.500000*%
G04 #@! TD*
G04 #@! TA.AperFunction,Conductor*
%ADD23C,0.250000*%
G04 #@! TD*
G04 #@! TA.AperFunction,Conductor*
%ADD24C,0.400000*%
G04 #@! TD*
G04 APERTURE END LIST*
D10*
X98810000Y-126000000D03*
D11*
X98810000Y-128000000D03*
D12*
X167110000Y-125400000D03*
D13*
X209160000Y-119200000D03*
D14*
X209160000Y-117200000D03*
D15*
X216935000Y-105900000D03*
D16*
X212755000Y-105900000D03*
X212755000Y-97260000D03*
D15*
X216935000Y-97260000D03*
D13*
X217660000Y-119200000D03*
D14*
X217660000Y-117200000D03*
D12*
X169160000Y-125400000D03*
D15*
X216935000Y-79470000D03*
D16*
X212755000Y-79470000D03*
X212755000Y-70830000D03*
D15*
X216935000Y-70830000D03*
D17*
X134820000Y-85900000D03*
D18*
X134820000Y-83360000D03*
X137360000Y-85900000D03*
X137360000Y-83360000D03*
X139900000Y-85900000D03*
X139900000Y-83360000D03*
X142440000Y-85900000D03*
X142440000Y-83360000D03*
X144980000Y-85900000D03*
X144980000Y-83360000D03*
X147520000Y-85900000D03*
X147520000Y-83360000D03*
X150060000Y-85900000D03*
X150060000Y-83360000D03*
X152600000Y-85900000D03*
X152600000Y-83360000D03*
X155140000Y-85900000D03*
X155140000Y-83360000D03*
X157680000Y-85900000D03*
X157680000Y-83360000D03*
X160220000Y-85900000D03*
X160220000Y-83360000D03*
X162760000Y-85900000D03*
X162760000Y-83360000D03*
X165300000Y-85900000D03*
X165300000Y-83360000D03*
X167840000Y-85900000D03*
X167840000Y-83360000D03*
X170380000Y-85900000D03*
X170380000Y-83360000D03*
X172920000Y-85900000D03*
X172920000Y-83360000D03*
X175460000Y-85900000D03*
X175460000Y-83360000D03*
X178000000Y-85900000D03*
X178000000Y-83360000D03*
X180540000Y-85900000D03*
X180540000Y-83360000D03*
X183080000Y-85900000D03*
X183080000Y-83360000D03*
D17*
X134860000Y-96900000D03*
D18*
X134860000Y-94360000D03*
X137400000Y-96900000D03*
X137400000Y-94360000D03*
X139940000Y-96900000D03*
X139940000Y-94360000D03*
X142480000Y-96900000D03*
X142480000Y-94360000D03*
X145020000Y-96900000D03*
X145020000Y-94360000D03*
X147560000Y-96900000D03*
X147560000Y-94360000D03*
X150100000Y-96900000D03*
X150100000Y-94360000D03*
X152640000Y-96900000D03*
X152640000Y-94360000D03*
X155180000Y-96900000D03*
X155180000Y-94360000D03*
X157720000Y-96900000D03*
X157720000Y-94360000D03*
X160260000Y-96900000D03*
X160260000Y-94360000D03*
X162800000Y-96900000D03*
X162800000Y-94360000D03*
X165340000Y-96900000D03*
X165340000Y-94360000D03*
X167880000Y-96900000D03*
X167880000Y-94360000D03*
X170420000Y-96900000D03*
X170420000Y-94360000D03*
X172960000Y-96900000D03*
X172960000Y-94360000D03*
X175500000Y-96900000D03*
X175500000Y-94360000D03*
X178040000Y-96900000D03*
X178040000Y-94360000D03*
X180580000Y-96900000D03*
X180580000Y-94360000D03*
X183120000Y-96900000D03*
X183120000Y-94360000D03*
D17*
X134860000Y-104900000D03*
D18*
X134860000Y-102360000D03*
X137400000Y-104900000D03*
X137400000Y-102360000D03*
X139940000Y-104900000D03*
X139940000Y-102360000D03*
X142480000Y-104900000D03*
X142480000Y-102360000D03*
X145020000Y-104900000D03*
X145020000Y-102360000D03*
X147560000Y-104900000D03*
X147560000Y-102360000D03*
X150100000Y-104900000D03*
X150100000Y-102360000D03*
X152640000Y-104900000D03*
X152640000Y-102360000D03*
X155180000Y-104900000D03*
X155180000Y-102360000D03*
X157720000Y-104900000D03*
X157720000Y-102360000D03*
X160260000Y-104900000D03*
X160260000Y-102360000D03*
X162800000Y-104900000D03*
X162800000Y-102360000D03*
X165340000Y-104900000D03*
X165340000Y-102360000D03*
X167880000Y-104900000D03*
X167880000Y-102360000D03*
X170420000Y-104900000D03*
X170420000Y-102360000D03*
X172960000Y-104900000D03*
X172960000Y-102360000D03*
X175500000Y-104900000D03*
X175500000Y-102360000D03*
X178040000Y-104900000D03*
X178040000Y-102360000D03*
X180580000Y-104900000D03*
X180580000Y-102360000D03*
X183120000Y-104900000D03*
X183120000Y-102360000D03*
D19*
X122360000Y-75200000D03*
X129560000Y-75300000D03*
X122160000Y-70200000D03*
X128860000Y-70000000D03*
X135860000Y-71900000D03*
X132460000Y-84300000D03*
X132460000Y-83100000D03*
X189570489Y-81810489D03*
X196760000Y-71900000D03*
X199360000Y-73400000D03*
X187160000Y-79000000D03*
X187760000Y-71800000D03*
X195260000Y-75100000D03*
X210960000Y-75100000D03*
X214660000Y-101500000D03*
X210360000Y-100900000D03*
X210360000Y-102800000D03*
X135860000Y-61650000D03*
D20*
X128860000Y-70000000D02*
X127760000Y-68900000D01*
X127760000Y-68900000D02*
X123460000Y-68900000D01*
X123460000Y-68900000D02*
X122160000Y-70200000D01*
X122360000Y-75200000D02*
X123360000Y-76200000D01*
X123360000Y-76200000D02*
X128660000Y-76200000D01*
X128660000Y-76200000D02*
X129560000Y-75300000D01*
D21*
X135860000Y-61650000D02*
X135860000Y-71900000D01*
X135860000Y-71900000D02*
X135860000Y-82320000D01*
D20*
X147520000Y-85900000D02*
X146420489Y-86999511D01*
X146420489Y-86999511D02*
X133720489Y-86999511D01*
X133720489Y-86999511D02*
X132460000Y-85739022D01*
X132460000Y-85739022D02*
X132460000Y-84300000D01*
X134160489Y-84800489D02*
X132460000Y-83100000D01*
X141340489Y-84800489D02*
X134160489Y-84800489D01*
X142440000Y-85900000D02*
X141340489Y-84800489D01*
D22*
X195260000Y-75100000D02*
X210960000Y-75100000D01*
D20*
X167110000Y-125400000D02*
X167909511Y-126199511D01*
X167909511Y-126199511D02*
X192860489Y-126199511D01*
X192860489Y-126199511D02*
X197959520Y-121100480D01*
X197959520Y-121100480D02*
X197959520Y-107765486D01*
X203625006Y-102100000D02*
X209660000Y-102100000D01*
X197959520Y-107765486D02*
X203625006Y-102100000D01*
X209660000Y-102100000D02*
X210360000Y-102800000D01*
X169160000Y-125400000D02*
X193094994Y-125400000D01*
X203460000Y-101700000D02*
X209560000Y-101700000D01*
X193094994Y-125400000D02*
X197560000Y-120934994D01*
X197560000Y-107600000D02*
X203460000Y-101700000D01*
X197560000Y-120934994D02*
X197560000Y-107600000D01*
X209560000Y-101700000D02*
X210360000Y-100900000D01*
D21*
X138909511Y-81810489D02*
X189570489Y-81810489D01*
X189570489Y-81810489D02*
X199551866Y-81810489D01*
D20*
X187160000Y-79000000D02*
X187760000Y-78400000D01*
X187760000Y-78400000D02*
X187760000Y-71800000D01*
X196760000Y-71900000D02*
X197860000Y-71900000D01*
X197860000Y-71900000D02*
X199360000Y-73400000D01*
D23*
X212755000Y-97260000D02*
X212555479Y-97459521D01*
X212555479Y-97459521D02*
X212555479Y-105700479D01*
X212555479Y-105700479D02*
X212755000Y-105900000D01*
X216935000Y-97260000D02*
X216935000Y-105900000D01*
X212755000Y-105900000D02*
X216935000Y-105900000D01*
D21*
X214660000Y-96918623D02*
X214660000Y-101500000D01*
X199551866Y-81810489D02*
X214660000Y-96918623D01*
X137360000Y-83360000D02*
X138909511Y-81810489D01*
X135860000Y-82320000D02*
X134820000Y-83360000D01*
X135860000Y-82320000D02*
X136320000Y-82320000D01*
X136320000Y-82320000D02*
X137360000Y-83360000D01*
D24*
X134860000Y-104900000D02*
X133610489Y-103650489D01*
X133610489Y-98149511D02*
X134860000Y-96900000D01*
X133610489Y-103650489D02*
X133610489Y-98149511D01*
X137400000Y-96900000D02*
X136150489Y-98149511D01*
X136150489Y-98149511D02*
X136150489Y-103650489D01*
X136150489Y-103650489D02*
X137400000Y-104900000D01*
X139940000Y-96900000D02*
X138649511Y-98190489D01*
X138649511Y-98190489D02*
X138649511Y-103609511D01*
X138649511Y-103609511D02*
X139940000Y-104900000D01*
X141189511Y-103609511D02*
X141189511Y-98190489D01*
X142480000Y-104900000D02*
X141189511Y-103609511D01*
X141189511Y-98190489D02*
X142480000Y-96900000D01*
X143729511Y-98190489D02*
X143729511Y-103609511D01*
X143729511Y-103609511D02*
X145020000Y-104900000D01*
X145020000Y-96900000D02*
X143729511Y-98190489D01*
X147560000Y-96900000D02*
X146310489Y-98149511D01*
X146310489Y-103650489D02*
X147560000Y-104900000D01*
X146310489Y-98149511D02*
X146310489Y-103650489D01*
X150100000Y-104900000D02*
X148809511Y-103609511D01*
X148809511Y-103609511D02*
X148809511Y-98190489D01*
X148809511Y-98190489D02*
X150100000Y-96900000D01*
X151349511Y-98190489D02*
X151349511Y-103609511D01*
X151349511Y-103609511D02*
X152640000Y-104900000D01*
X152640000Y-96900000D02*
X151349511Y-98190489D01*
X153930489Y-98149511D02*
X155180000Y-96900000D01*
X155180000Y-104900000D02*
X153930489Y-103650489D01*
X153930489Y-103650489D02*
X153930489Y-98149511D01*
X156470489Y-103650489D02*
X157720000Y-104900000D01*
X156470489Y-98149511D02*
X156470489Y-103650489D01*
X157720000Y-96900000D02*
X156470489Y-98149511D01*
X160260000Y-104900000D02*
X158969511Y-103609511D01*
X158969511Y-103609511D02*
X158969511Y-98190489D01*
X158969511Y-98190489D02*
X160260000Y-96900000D01*
X161509511Y-98190489D02*
X161509511Y-103609511D01*
X162800000Y-96900000D02*
X161509511Y-98190489D01*
X161509511Y-103609511D02*
X162800000Y-104900000D01*
X165340000Y-104900000D02*
X164090489Y-103650489D01*
X164090489Y-103650489D02*
X164090489Y-98149511D01*
X164090489Y-98149511D02*
X165340000Y-96900000D01*
X166589511Y-103609511D02*
X167880000Y-104900000D01*
X167880000Y-96900000D02*
X166589511Y-98190489D01*
X166589511Y-98190489D02*
X166589511Y-103609511D01*
X169129511Y-103609511D02*
X170420000Y-104900000D01*
X170420000Y-96900000D02*
X169129511Y-98190489D01*
X169129511Y-98190489D02*
X169129511Y-103609511D01*
X172960000Y-104900000D02*
X171669511Y-103609511D01*
X171669511Y-103609511D02*
X171669511Y-98190489D01*
X171669511Y-98190489D02*
X172960000Y-96900000D01*
X174250489Y-98149511D02*
X174250489Y-103650489D01*
X174250489Y-103650489D02*
X175500000Y-104900000D01*
X175500000Y-96900000D02*
X174250489Y-98149511D01*
X178040000Y-96900000D02*
X176790489Y-98149511D01*
X176790489Y-103650489D02*
X178040000Y-104900000D01*
X176790489Y-98149511D02*
X176790489Y-103650489D01*
X179330489Y-103650489D02*
X179330489Y-98149511D01*
X180580000Y-104900000D02*
X179330489Y-103650489D01*
X179330489Y-98149511D02*
X180580000Y-96900000D01*
X181870489Y-98149511D02*
X183120000Y-96900000D01*
X181870489Y-103650489D02*
X181870489Y-98149511D01*
X183120000Y-104900000D02*
X181870489Y-103650489D01*
G04 #@! TA.AperFunction,Conductor*
G36*
X201633066Y-56617813D02*
G01*
X201658376Y-56661650D01*
X201659500Y-56674500D01*
X201659500Y-69394108D01*
X201659486Y-69410578D01*
X201659455Y-69445563D01*
X201665927Y-69459041D01*
X201671361Y-69474602D01*
X201674688Y-69489185D01*
X201679882Y-69495703D01*
X201683852Y-69500685D01*
X201692685Y-69514765D01*
X201699052Y-69528024D01*
X201705555Y-69533225D01*
X201705557Y-69533227D01*
X201710727Y-69537361D01*
X201722381Y-69549036D01*
X201731695Y-69560724D01*
X201744938Y-69567111D01*
X201759006Y-69575970D01*
X201770492Y-69585156D01*
X201785069Y-69588508D01*
X201800627Y-69593973D01*
X201814087Y-69600465D01*
X201837041Y-69600485D01*
X201837156Y-69600485D01*
X201837219Y-69600500D01*
X201854108Y-69600500D01*
X201905296Y-69600545D01*
X201905563Y-69600545D01*
X201905645Y-69600506D01*
X201905697Y-69600500D01*
X206854108Y-69600500D01*
X206897230Y-69600538D01*
X206897231Y-69600538D01*
X206905563Y-69600545D01*
X206919041Y-69594073D01*
X206934602Y-69588639D01*
X206949185Y-69585312D01*
X206960685Y-69576148D01*
X206974765Y-69567315D01*
X206988024Y-69560948D01*
X206993225Y-69554445D01*
X206993227Y-69554443D01*
X206997361Y-69549273D01*
X207009036Y-69537619D01*
X207014204Y-69533501D01*
X207014205Y-69533500D01*
X207020724Y-69528305D01*
X207027111Y-69515062D01*
X207035970Y-69500994D01*
X207039951Y-69496016D01*
X207045156Y-69489508D01*
X207048508Y-69474931D01*
X207053974Y-69459369D01*
X207056844Y-69453419D01*
X207060465Y-69445913D01*
X207060485Y-69422845D01*
X207060500Y-69422781D01*
X207060500Y-69405892D01*
X207060545Y-69354704D01*
X207060545Y-69354437D01*
X207060506Y-69354355D01*
X207060500Y-69354303D01*
X207060500Y-64674500D01*
X207077813Y-64626934D01*
X207121650Y-64601624D01*
X207134500Y-64600500D01*
X219585500Y-64600500D01*
X219633066Y-64617813D01*
X219658376Y-64661650D01*
X219659500Y-64674500D01*
X219659500Y-112125500D01*
X219642187Y-112173066D01*
X219598350Y-112198376D01*
X219585500Y-112199500D01*
X216691423Y-112199500D01*
X216674713Y-112197589D01*
X216673617Y-112197335D01*
X216660718Y-112194345D01*
X216660000Y-112194344D01*
X216658849Y-112194607D01*
X216657431Y-112194443D01*
X216657467Y-112194922D01*
X216408604Y-112213571D01*
X216408603Y-112213571D01*
X216405843Y-112213778D01*
X216403151Y-112214392D01*
X216403147Y-112214393D01*
X216160057Y-112269877D01*
X216157363Y-112270492D01*
X215920112Y-112363607D01*
X215917720Y-112364988D01*
X215795727Y-112435420D01*
X215745877Y-112444210D01*
X215702040Y-112418900D01*
X215684728Y-112370883D01*
X215684937Y-112336646D01*
X215684937Y-112336645D01*
X215684969Y-112331376D01*
X215645572Y-112193529D01*
X215639234Y-112183483D01*
X215571882Y-112076737D01*
X215569070Y-112072280D01*
X215461612Y-111977377D01*
X215331837Y-111916447D01*
X215326632Y-111915637D01*
X215326630Y-111915636D01*
X215225812Y-111899939D01*
X215225809Y-111899939D01*
X215222991Y-111899500D01*
X215148060Y-111899500D01*
X215071195Y-111910508D01*
X215047297Y-111913930D01*
X215047296Y-111913930D01*
X215042082Y-111914677D01*
X214911572Y-111974016D01*
X214881775Y-111999691D01*
X214845189Y-112031215D01*
X214797853Y-112049149D01*
X214747900Y-112030621D01*
X214691563Y-111980866D01*
X214691561Y-111980865D01*
X214687612Y-111977377D01*
X214557837Y-111916447D01*
X214552632Y-111915637D01*
X214552630Y-111915636D01*
X214451812Y-111899939D01*
X214451809Y-111899939D01*
X214448991Y-111899500D01*
X214374060Y-111899500D01*
X214297195Y-111910508D01*
X214273297Y-111913930D01*
X214273296Y-111913930D01*
X214268082Y-111914677D01*
X214137572Y-111974016D01*
X214099780Y-112006580D01*
X214083337Y-112020748D01*
X214036002Y-112038682D01*
X213986048Y-112020154D01*
X213941563Y-111980866D01*
X213941561Y-111980865D01*
X213937612Y-111977377D01*
X213807837Y-111916447D01*
X213802632Y-111915637D01*
X213802630Y-111915636D01*
X213701812Y-111899939D01*
X213701809Y-111899939D01*
X213698991Y-111899500D01*
X213624060Y-111899500D01*
X213547195Y-111910508D01*
X213523297Y-111913930D01*
X213523296Y-111913930D01*
X213518082Y-111914677D01*
X213387572Y-111974016D01*
X213349780Y-112006580D01*
X213333337Y-112020748D01*
X213286002Y-112038682D01*
X213236048Y-112020154D01*
X213191563Y-111980866D01*
X213191561Y-111980865D01*
X213187612Y-111977377D01*
X213057837Y-111916447D01*
X213052632Y-111915637D01*
X213052630Y-111915636D01*
X212951812Y-111899939D01*
X212951809Y-111899939D01*
X212948991Y-111899500D01*
X212874060Y-111899500D01*
X212797195Y-111910508D01*
X212773297Y-111913930D01*
X212773296Y-111913930D01*
X212768082Y-111914677D01*
X212637572Y-111974016D01*
X212577263Y-112025982D01*
X212529928Y-112043916D01*
X212479973Y-112025387D01*
X212429563Y-111980866D01*
X212429561Y-111980865D01*
X212425612Y-111977377D01*
X212295837Y-111916447D01*
X212290632Y-111915637D01*
X212290630Y-111915636D01*
X212189812Y-111899939D01*
X212189809Y-111899939D01*
X212186991Y-111899500D01*
X212112060Y-111899500D01*
X212035195Y-111910508D01*
X212011297Y-111913930D01*
X212011296Y-111913930D01*
X212006082Y-111914677D01*
X211875572Y-111974016D01*
X211766963Y-112067600D01*
X211764099Y-112072019D01*
X211764097Y-112072021D01*
X211738228Y-112111932D01*
X211688985Y-112187905D01*
X211647907Y-112325261D01*
X211647749Y-112351098D01*
X211647579Y-112378893D01*
X211629975Y-112426352D01*
X211585984Y-112451393D01*
X211536581Y-112442526D01*
X211399888Y-112363607D01*
X211162637Y-112270492D01*
X211159943Y-112269877D01*
X210916853Y-112214393D01*
X210916849Y-112214392D01*
X210914157Y-112213778D01*
X210911397Y-112213571D01*
X210911396Y-112213571D01*
X210663528Y-112194996D01*
X210663540Y-112194834D01*
X210662799Y-112194827D01*
X210660718Y-112194345D01*
X210660000Y-112194344D01*
X210655928Y-112195273D01*
X210655927Y-112195273D01*
X210645520Y-112197647D01*
X210629063Y-112199500D01*
X207134500Y-112199500D01*
X207086934Y-112182187D01*
X207061624Y-112138350D01*
X207060500Y-112125500D01*
X207060500Y-107405892D01*
X207060538Y-107362770D01*
X207060538Y-107362769D01*
X207060545Y-107354437D01*
X207054073Y-107340959D01*
X207048639Y-107325398D01*
X207045312Y-107310815D01*
X207036148Y-107299315D01*
X207027313Y-107285232D01*
X207024553Y-107279484D01*
X207020948Y-107271976D01*
X207014445Y-107266775D01*
X207014443Y-107266773D01*
X207009273Y-107262639D01*
X206997619Y-107250964D01*
X206993501Y-107245796D01*
X206993500Y-107245795D01*
X206988305Y-107239276D01*
X206975062Y-107232889D01*
X206960994Y-107224030D01*
X206956016Y-107220049D01*
X206956017Y-107220049D01*
X206949508Y-107214844D01*
X206934931Y-107211492D01*
X206919373Y-107206027D01*
X206905913Y-107199535D01*
X206882959Y-107199515D01*
X206882844Y-107199515D01*
X206882781Y-107199500D01*
X206865892Y-107199500D01*
X206814704Y-107199455D01*
X206814437Y-107199455D01*
X206814355Y-107199494D01*
X206814303Y-107199500D01*
X201865892Y-107199500D01*
X201822770Y-107199462D01*
X201822769Y-107199462D01*
X201814437Y-107199455D01*
X201800959Y-107205927D01*
X201785398Y-107211361D01*
X201770815Y-107214688D01*
X201764297Y-107219882D01*
X201759315Y-107223852D01*
X201745235Y-107232685D01*
X201731976Y-107239052D01*
X201726775Y-107245555D01*
X201726773Y-107245557D01*
X201722639Y-107250727D01*
X201710964Y-107262381D01*
X201699276Y-107271695D01*
X201692890Y-107284936D01*
X201684030Y-107299006D01*
X201674844Y-107310492D01*
X201671492Y-107325069D01*
X201666027Y-107340627D01*
X201659535Y-107354087D01*
X201659515Y-107377155D01*
X201659500Y-107377219D01*
X201659500Y-107394108D01*
X201659485Y-107411791D01*
X201659455Y-107445563D01*
X201659494Y-107445645D01*
X201659500Y-107445697D01*
X201659500Y-134125500D01*
X201642187Y-134173066D01*
X201598350Y-134198376D01*
X201585500Y-134199500D01*
X78134500Y-134199500D01*
X78086934Y-134182187D01*
X78061624Y-134138350D01*
X78060500Y-134125500D01*
X78060500Y-131507165D01*
X81107866Y-131507165D01*
X81142952Y-131764970D01*
X81215758Y-132014757D01*
X81324686Y-132251039D01*
X81467341Y-132468625D01*
X81469169Y-132470673D01*
X81469172Y-132470677D01*
X81501331Y-132506708D01*
X81640591Y-132662735D01*
X81840629Y-132829105D01*
X82063061Y-132964080D01*
X82065590Y-132965141D01*
X82065591Y-132965141D01*
X82111531Y-132984405D01*
X82303001Y-133064695D01*
X82305664Y-133065371D01*
X82305666Y-133065372D01*
X82552518Y-133128064D01*
X82552522Y-133128065D01*
X82555177Y-133128739D01*
X82665195Y-133139817D01*
X82769444Y-133150315D01*
X82769453Y-133150315D01*
X82771286Y-133150500D01*
X82926044Y-133150500D01*
X82927386Y-133150400D01*
X82927393Y-133150400D01*
X83116737Y-133136329D01*
X83116740Y-133136329D01*
X83119466Y-133136126D01*
X83373232Y-133078705D01*
X83615723Y-132984405D01*
X83841612Y-132855299D01*
X84045936Y-132694223D01*
X84224208Y-132504714D01*
X84372511Y-132290937D01*
X84487586Y-132057587D01*
X84566906Y-131809792D01*
X84608728Y-131552994D01*
X84609328Y-131507165D01*
X107107866Y-131507165D01*
X107142952Y-131764970D01*
X107215758Y-132014757D01*
X107324686Y-132251039D01*
X107467341Y-132468625D01*
X107469169Y-132470673D01*
X107469172Y-132470677D01*
X107501331Y-132506708D01*
X107640591Y-132662735D01*
X107840629Y-132829105D01*
X108063061Y-132964080D01*
X108065590Y-132965141D01*
X108065591Y-132965141D01*
X108111531Y-132984405D01*
X108303001Y-133064695D01*
X108305664Y-133065371D01*
X108305666Y-133065372D01*
X108552518Y-133128064D01*
X108552522Y-133128065D01*
X108555177Y-133128739D01*
X108665195Y-133139817D01*
X108769444Y-133150315D01*
X108769453Y-133150315D01*
X108771286Y-133150500D01*
X108926044Y-133150500D01*
X108927386Y-133150400D01*
X108927393Y-133150400D01*
X109116737Y-133136329D01*
X109116740Y-133136329D01*
X109119466Y-133136126D01*
X109373232Y-133078705D01*
X109615723Y-132984405D01*
X109841612Y-132855299D01*
X110045936Y-132694223D01*
X110224208Y-132504714D01*
X110372511Y-132290937D01*
X110487586Y-132057587D01*
X110566906Y-131809792D01*
X110608728Y-131552994D01*
X110612134Y-131292835D01*
X110577048Y-131035030D01*
X110504242Y-130785243D01*
X110395314Y-130548961D01*
X110252659Y-130331375D01*
X110220449Y-130295286D01*
X110081240Y-130139316D01*
X110081237Y-130139313D01*
X110079409Y-130137265D01*
X109879371Y-129970895D01*
X109656939Y-129835920D01*
X109611710Y-129816954D01*
X109419532Y-129736367D01*
X109419530Y-129736366D01*
X109416999Y-129735305D01*
X109414336Y-129734629D01*
X109414334Y-129734628D01*
X109167482Y-129671936D01*
X109167478Y-129671935D01*
X109164823Y-129671261D01*
X109054805Y-129660183D01*
X108950556Y-129649685D01*
X108950547Y-129649685D01*
X108948714Y-129649500D01*
X108793956Y-129649500D01*
X108792614Y-129649600D01*
X108792607Y-129649600D01*
X108603263Y-129663671D01*
X108603260Y-129663671D01*
X108600534Y-129663874D01*
X108346768Y-129721295D01*
X108104277Y-129815595D01*
X107878388Y-129944701D01*
X107674064Y-130105777D01*
X107495792Y-130295286D01*
X107347489Y-130509063D01*
X107232414Y-130742413D01*
X107153094Y-130990208D01*
X107111272Y-131247006D01*
X107107866Y-131507165D01*
X84609328Y-131507165D01*
X84612134Y-131292835D01*
X84577048Y-131035030D01*
X84504242Y-130785243D01*
X84395314Y-130548961D01*
X84252659Y-130331375D01*
X84220449Y-130295286D01*
X84081240Y-130139316D01*
X84081237Y-130139313D01*
X84079409Y-130137265D01*
X83879371Y-129970895D01*
X83656939Y-129835920D01*
X83611710Y-129816954D01*
X83419532Y-129736367D01*
X83419530Y-129736366D01*
X83416999Y-129735305D01*
X83414336Y-129734629D01*
X83414334Y-129734628D01*
X83167482Y-129671936D01*
X83167478Y-129671935D01*
X83164823Y-129671261D01*
X83054805Y-129660183D01*
X82950556Y-129649685D01*
X82950547Y-129649685D01*
X82948714Y-129649500D01*
X82793956Y-129649500D01*
X82792614Y-129649600D01*
X82792607Y-129649600D01*
X82603263Y-129663671D01*
X82603260Y-129663671D01*
X82600534Y-129663874D01*
X82346768Y-129721295D01*
X82104277Y-129815595D01*
X81878388Y-129944701D01*
X81674064Y-130105777D01*
X81495792Y-130295286D01*
X81347489Y-130509063D01*
X81232414Y-130742413D01*
X81153094Y-130990208D01*
X81111272Y-131247006D01*
X81107866Y-131507165D01*
X78060500Y-131507165D01*
X78060500Y-126398454D01*
X97402001Y-126398454D01*
X97402198Y-126402259D01*
X97412550Y-126502034D01*
X97414251Y-126509908D01*
X97467544Y-126669650D01*
X97471169Y-126677389D01*
X97559653Y-126820377D01*
X97564964Y-126827076D01*
X97683962Y-126945868D01*
X97690672Y-126951168D01*
X97833816Y-127039403D01*
X97841555Y-127043011D01*
X98001402Y-127096031D01*
X98009263Y-127097716D01*
X98107758Y-127107807D01*
X98111529Y-127108000D01*
X98199707Y-127108000D01*
X98247273Y-127125313D01*
X98272583Y-127169150D01*
X98263793Y-127219000D01*
X98224043Y-127251884D01*
X98161927Y-127273515D01*
X98074262Y-127328294D01*
X98013134Y-127366491D01*
X98013132Y-127366493D01*
X98009625Y-127368684D01*
X97882193Y-127495230D01*
X97785963Y-127646864D01*
X97725719Y-127816049D01*
X97704455Y-127994376D01*
X97723227Y-128172983D01*
X97724559Y-128176895D01*
X97779771Y-128339082D01*
X97779773Y-128339087D01*
X97781103Y-128342993D01*
X97875206Y-128495955D01*
X98000859Y-128624268D01*
X98004338Y-128626510D01*
X98148339Y-128719313D01*
X98148342Y-128719314D01*
X98151817Y-128721554D01*
X98155706Y-128722969D01*
X98155707Y-128722970D01*
X98217823Y-128745578D01*
X98320578Y-128782978D01*
X98324680Y-128783496D01*
X98324679Y-128783496D01*
X98456984Y-128800210D01*
X98456991Y-128800210D01*
X98459283Y-128800500D01*
X99155155Y-128800500D01*
X99288472Y-128785546D01*
X99292376Y-128784186D01*
X99292378Y-128784186D01*
X99338939Y-128767971D01*
X99458073Y-128726485D01*
X99545738Y-128671706D01*
X99606866Y-128633509D01*
X99606868Y-128633507D01*
X99610375Y-128631316D01*
X99737807Y-128504770D01*
X99834037Y-128353136D01*
X99894281Y-128183951D01*
X99915545Y-128005624D01*
X99896773Y-127827017D01*
X99879032Y-127774903D01*
X99840229Y-127660918D01*
X99840227Y-127660913D01*
X99838897Y-127657007D01*
X99744794Y-127504045D01*
X99619141Y-127375732D01*
X99595892Y-127360749D01*
X99471661Y-127280687D01*
X99471658Y-127280686D01*
X99468183Y-127278446D01*
X99394248Y-127251536D01*
X99355472Y-127218999D01*
X99346682Y-127169149D01*
X99371992Y-127125312D01*
X99419558Y-127107999D01*
X99508454Y-127107999D01*
X99512259Y-127107802D01*
X99612034Y-127097450D01*
X99619908Y-127095749D01*
X99779650Y-127042456D01*
X99787389Y-127038831D01*
X99930377Y-126950347D01*
X99937076Y-126945036D01*
X100055868Y-126826038D01*
X100061168Y-126819328D01*
X100149403Y-126676184D01*
X100153011Y-126668445D01*
X100206031Y-126508598D01*
X100207716Y-126500737D01*
X100217807Y-126402242D01*
X100218000Y-126398471D01*
X100218000Y-126267048D01*
X100214362Y-126257052D01*
X100209075Y-126254000D01*
X97415049Y-126254000D01*
X97405053Y-126257638D01*
X97402001Y-126262925D01*
X97402001Y-126398454D01*
X78060500Y-126398454D01*
X78060500Y-125732952D01*
X97402000Y-125732952D01*
X97405638Y-125742948D01*
X97410925Y-125746000D01*
X98542952Y-125746000D01*
X98552948Y-125742362D01*
X98556000Y-125737075D01*
X98556000Y-125732952D01*
X99064000Y-125732952D01*
X99067638Y-125742948D01*
X99072925Y-125746000D01*
X100204951Y-125746000D01*
X100214947Y-125742362D01*
X100217999Y-125737075D01*
X100217999Y-125601546D01*
X100217802Y-125597741D01*
X100207450Y-125497966D01*
X100205749Y-125490092D01*
X100173227Y-125392611D01*
X166404394Y-125392611D01*
X166422999Y-125561135D01*
X166424532Y-125565324D01*
X166474000Y-125700500D01*
X166481266Y-125720356D01*
X166496447Y-125742948D01*
X166560226Y-125837861D01*
X166575830Y-125861083D01*
X166701233Y-125975191D01*
X166850235Y-126056092D01*
X166854546Y-126057223D01*
X166932234Y-126077604D01*
X167014233Y-126099116D01*
X167098997Y-126100448D01*
X167179303Y-126101709D01*
X167183760Y-126101779D01*
X167309069Y-126073080D01*
X167359299Y-126079336D01*
X167377914Y-126092886D01*
X167658444Y-126373416D01*
X167662026Y-126377565D01*
X167664086Y-126381780D01*
X167686144Y-126402242D01*
X167700679Y-126415725D01*
X167702679Y-126417651D01*
X167716787Y-126431759D01*
X167719595Y-126433685D01*
X167722221Y-126435867D01*
X167722105Y-126436006D01*
X167725287Y-126438553D01*
X167737979Y-126450326D01*
X167746157Y-126457912D01*
X167759434Y-126463209D01*
X167773870Y-126470917D01*
X167785657Y-126479003D01*
X167792307Y-126480581D01*
X167792309Y-126480582D01*
X167813351Y-126485575D01*
X167823687Y-126488843D01*
X167850133Y-126499394D01*
X167856426Y-126500011D01*
X167865523Y-126500011D01*
X167882610Y-126502011D01*
X167887926Y-126503273D01*
X167887928Y-126503273D01*
X167894577Y-126504851D01*
X167924307Y-126500805D01*
X167925174Y-126500687D01*
X167935153Y-126500011D01*
X192805922Y-126500011D01*
X192811395Y-126500413D01*
X192815831Y-126501936D01*
X192822655Y-126501680D01*
X192822656Y-126501680D01*
X192865730Y-126500063D01*
X192868506Y-126500011D01*
X192888437Y-126500011D01*
X192891789Y-126499387D01*
X192895180Y-126499074D01*
X192895198Y-126499264D01*
X192899244Y-126498805D01*
X192927697Y-126497737D01*
X192933974Y-126495040D01*
X192933979Y-126495039D01*
X192940832Y-126492095D01*
X192956491Y-126487337D01*
X192963825Y-126485971D01*
X192970542Y-126484720D01*
X192976357Y-126481135D01*
X192976361Y-126481134D01*
X192994779Y-126469781D01*
X193004396Y-126464785D01*
X193025751Y-126455610D01*
X193025753Y-126455609D01*
X193030552Y-126453547D01*
X193035438Y-126449533D01*
X193041869Y-126443102D01*
X193055365Y-126432434D01*
X193060021Y-126429564D01*
X193065837Y-126425979D01*
X193084528Y-126401399D01*
X193091106Y-126393865D01*
X198133421Y-121351550D01*
X198137574Y-121347965D01*
X198141789Y-121345905D01*
X198175747Y-121309298D01*
X198177672Y-121307299D01*
X198191768Y-121293203D01*
X198193696Y-121290392D01*
X198195873Y-121287773D01*
X198196005Y-121287883D01*
X198198559Y-121284707D01*
X198213274Y-121268844D01*
X198213275Y-121268843D01*
X198217921Y-121263834D01*
X198223216Y-121250561D01*
X198230925Y-121236124D01*
X198235146Y-121229971D01*
X198239013Y-121224334D01*
X198245587Y-121196632D01*
X198248855Y-121186299D01*
X198257467Y-121164711D01*
X198257467Y-121164710D01*
X198259403Y-121159858D01*
X198260020Y-121153565D01*
X198260020Y-121144472D01*
X198262020Y-121127386D01*
X198263282Y-121122066D01*
X198263282Y-121122063D01*
X198264860Y-121115414D01*
X198261335Y-121089508D01*
X198260696Y-121084817D01*
X198260020Y-121074838D01*
X198260020Y-107920609D01*
X198277333Y-107873043D01*
X198281694Y-107868283D01*
X203727803Y-102422174D01*
X203773679Y-102400782D01*
X203780129Y-102400500D01*
X209504877Y-102400500D01*
X209552443Y-102417813D01*
X209557203Y-102422174D01*
X209749537Y-102614508D01*
X209770929Y-102660384D01*
X209770578Y-102676492D01*
X209754318Y-102800000D01*
X209774956Y-102956762D01*
X209835464Y-103102841D01*
X209838414Y-103106685D01*
X209838416Y-103106689D01*
X209928763Y-103224431D01*
X209931718Y-103228282D01*
X209935569Y-103231237D01*
X210053311Y-103321584D01*
X210053315Y-103321586D01*
X210057159Y-103324536D01*
X210203238Y-103385044D01*
X210208040Y-103385676D01*
X210208043Y-103385677D01*
X210355192Y-103405049D01*
X210360000Y-103405682D01*
X210364808Y-103405049D01*
X210511957Y-103385677D01*
X210511960Y-103385676D01*
X210516762Y-103385044D01*
X210662841Y-103324536D01*
X210666685Y-103321586D01*
X210666689Y-103321584D01*
X210784431Y-103231237D01*
X210788282Y-103228282D01*
X210791237Y-103224431D01*
X210881584Y-103106689D01*
X210881586Y-103106685D01*
X210884536Y-103102841D01*
X210945044Y-102956762D01*
X210965682Y-102800000D01*
X210949422Y-102676493D01*
X210945677Y-102648043D01*
X210945676Y-102648040D01*
X210945044Y-102643238D01*
X210884536Y-102497159D01*
X210881586Y-102493315D01*
X210881584Y-102493311D01*
X210791237Y-102375569D01*
X210788282Y-102371718D01*
X210770335Y-102357947D01*
X210666689Y-102278416D01*
X210666685Y-102278414D01*
X210662841Y-102275464D01*
X210516762Y-102214956D01*
X210511960Y-102214324D01*
X210511957Y-102214323D01*
X210364808Y-102194951D01*
X210360000Y-102194318D01*
X210236493Y-102210578D01*
X210187074Y-102199622D01*
X210174508Y-102189537D01*
X209911070Y-101926099D01*
X209907485Y-101921946D01*
X209905425Y-101917731D01*
X209900417Y-101913086D01*
X209900416Y-101913084D01*
X209890065Y-101903482D01*
X209866967Y-101858440D01*
X209878226Y-101809089D01*
X209888066Y-101796905D01*
X210174508Y-101510463D01*
X210220384Y-101489071D01*
X210236492Y-101489422D01*
X210360000Y-101505682D01*
X210364808Y-101505049D01*
X210511957Y-101485677D01*
X210511960Y-101485676D01*
X210516762Y-101485044D01*
X210662841Y-101424536D01*
X210666685Y-101421586D01*
X210666689Y-101421584D01*
X210784431Y-101331237D01*
X210788282Y-101328282D01*
X210806574Y-101304443D01*
X210881584Y-101206689D01*
X210881586Y-101206685D01*
X210884536Y-101202841D01*
X210945044Y-101056762D01*
X210965682Y-100900000D01*
X210945044Y-100743238D01*
X210884536Y-100597159D01*
X210881586Y-100593315D01*
X210881584Y-100593311D01*
X210791237Y-100475569D01*
X210788282Y-100471718D01*
X210784431Y-100468763D01*
X210666689Y-100378416D01*
X210666685Y-100378414D01*
X210662841Y-100375464D01*
X210516762Y-100314956D01*
X210511960Y-100314324D01*
X210511957Y-100314323D01*
X210364808Y-100294951D01*
X210360000Y-100294318D01*
X210355192Y-100294951D01*
X210208043Y-100314323D01*
X210208040Y-100314324D01*
X210203238Y-100314956D01*
X210057159Y-100375464D01*
X210053315Y-100378414D01*
X210053311Y-100378416D01*
X209935569Y-100468763D01*
X209931718Y-100471718D01*
X209928763Y-100475569D01*
X209838416Y-100593311D01*
X209838414Y-100593315D01*
X209835464Y-100597159D01*
X209774956Y-100743238D01*
X209754318Y-100900000D01*
X209754951Y-100904808D01*
X209770578Y-101023507D01*
X209759622Y-101072926D01*
X209749537Y-101085492D01*
X209457203Y-101377826D01*
X209411327Y-101399218D01*
X209404877Y-101399500D01*
X203514567Y-101399500D01*
X203509094Y-101399098D01*
X203504658Y-101397575D01*
X203497834Y-101397831D01*
X203497833Y-101397831D01*
X203454759Y-101399448D01*
X203451983Y-101399500D01*
X203432052Y-101399500D01*
X203428700Y-101400124D01*
X203425309Y-101400437D01*
X203425291Y-101400247D01*
X203421245Y-101400706D01*
X203392792Y-101401774D01*
X203386515Y-101404471D01*
X203386510Y-101404472D01*
X203379657Y-101407416D01*
X203363998Y-101412174D01*
X203349947Y-101414791D01*
X203344132Y-101418376D01*
X203344128Y-101418377D01*
X203325710Y-101429730D01*
X203316093Y-101434726D01*
X203294738Y-101443901D01*
X203294736Y-101443902D01*
X203289937Y-101445964D01*
X203285051Y-101449978D01*
X203278620Y-101456409D01*
X203265125Y-101467076D01*
X203254652Y-101473532D01*
X203250516Y-101478971D01*
X203235961Y-101498112D01*
X203229383Y-101505646D01*
X197386099Y-107348930D01*
X197381946Y-107352515D01*
X197377731Y-107354575D01*
X197356787Y-107377153D01*
X197343774Y-107391181D01*
X197341848Y-107393181D01*
X197327752Y-107407277D01*
X197325824Y-107410088D01*
X197323647Y-107412707D01*
X197323515Y-107412597D01*
X197320961Y-107415773D01*
X197301599Y-107436646D01*
X197299069Y-107442988D01*
X197299065Y-107442994D01*
X197296301Y-107449923D01*
X197288593Y-107464359D01*
X197284376Y-107470507D01*
X197280508Y-107476146D01*
X197278930Y-107482796D01*
X197278929Y-107482798D01*
X197273936Y-107503840D01*
X197270668Y-107514176D01*
X197260117Y-107540622D01*
X197259500Y-107546915D01*
X197259500Y-107556012D01*
X197257500Y-107573098D01*
X197254660Y-107585066D01*
X197258494Y-107613239D01*
X197258824Y-107615663D01*
X197259500Y-107625642D01*
X197259500Y-120779871D01*
X197242187Y-120827437D01*
X197237826Y-120832197D01*
X192992197Y-125077826D01*
X192946321Y-125099218D01*
X192939871Y-125099500D01*
X169842438Y-125099500D01*
X169794872Y-125082187D01*
X169781453Y-125067414D01*
X169691843Y-124937031D01*
X169691841Y-124937029D01*
X169689312Y-124933349D01*
X169642750Y-124891863D01*
X169566055Y-124823530D01*
X169566052Y-124823528D01*
X169562721Y-124820560D01*
X169412881Y-124741224D01*
X169408554Y-124740137D01*
X169252769Y-124701006D01*
X169252768Y-124701006D01*
X169248441Y-124699919D01*
X169163078Y-124699472D01*
X169083354Y-124699054D01*
X169083351Y-124699054D01*
X169078895Y-124699031D01*
X169074560Y-124700072D01*
X169074558Y-124700072D01*
X169019126Y-124713381D01*
X168914032Y-124738612D01*
X168763369Y-124816375D01*
X168760011Y-124819304D01*
X168760010Y-124819305D01*
X168661720Y-124905049D01*
X168635604Y-124927831D01*
X168538113Y-125066547D01*
X168476524Y-125224513D01*
X168454394Y-125392611D01*
X168472999Y-125561135D01*
X168474532Y-125565324D01*
X168524000Y-125700500D01*
X168531266Y-125720356D01*
X168572574Y-125781829D01*
X168573857Y-125783738D01*
X168586017Y-125832874D01*
X168563748Y-125878332D01*
X168512436Y-125899011D01*
X168064634Y-125899011D01*
X168017068Y-125881698D01*
X168012308Y-125877337D01*
X167804952Y-125669981D01*
X167783560Y-125624105D01*
X167788619Y-125590052D01*
X167789938Y-125586772D01*
X167789939Y-125586769D01*
X167791601Y-125582634D01*
X167815490Y-125414778D01*
X167815645Y-125400000D01*
X167795276Y-125231680D01*
X167756905Y-125130135D01*
X167736921Y-125077247D01*
X167736920Y-125077245D01*
X167735345Y-125073077D01*
X167700721Y-125022699D01*
X167641843Y-124937031D01*
X167641841Y-124937029D01*
X167639312Y-124933349D01*
X167592750Y-124891863D01*
X167516055Y-124823530D01*
X167516052Y-124823528D01*
X167512721Y-124820560D01*
X167362881Y-124741224D01*
X167358554Y-124740137D01*
X167202769Y-124701006D01*
X167202768Y-124701006D01*
X167198441Y-124699919D01*
X167113078Y-124699472D01*
X167033354Y-124699054D01*
X167033351Y-124699054D01*
X167028895Y-124699031D01*
X167024560Y-124700072D01*
X167024558Y-124700072D01*
X166969126Y-124713381D01*
X166864032Y-124738612D01*
X166713369Y-124816375D01*
X166710011Y-124819304D01*
X166710010Y-124819305D01*
X166611720Y-124905049D01*
X166585604Y-124927831D01*
X166488113Y-125066547D01*
X166426524Y-125224513D01*
X166404394Y-125392611D01*
X100173227Y-125392611D01*
X100152456Y-125330350D01*
X100148831Y-125322611D01*
X100060347Y-125179623D01*
X100055036Y-125172924D01*
X99936038Y-125054132D01*
X99929328Y-125048832D01*
X99786184Y-124960597D01*
X99778445Y-124956989D01*
X99618598Y-124903969D01*
X99610737Y-124902284D01*
X99512242Y-124892193D01*
X99508471Y-124892000D01*
X99077048Y-124892000D01*
X99067052Y-124895638D01*
X99064000Y-124900925D01*
X99064000Y-125732952D01*
X98556000Y-125732952D01*
X98556000Y-124905049D01*
X98552362Y-124895053D01*
X98547075Y-124892001D01*
X98111546Y-124892001D01*
X98107741Y-124892198D01*
X98007966Y-124902550D01*
X98000092Y-124904251D01*
X97840350Y-124957544D01*
X97832611Y-124961169D01*
X97689623Y-125049653D01*
X97682924Y-125054964D01*
X97564132Y-125173962D01*
X97558832Y-125180672D01*
X97470597Y-125323816D01*
X97466989Y-125331555D01*
X97413969Y-125491402D01*
X97412284Y-125499263D01*
X97402193Y-125597758D01*
X97402000Y-125601529D01*
X97402000Y-125732952D01*
X78060500Y-125732952D01*
X78060500Y-111445563D01*
X113409455Y-111445563D01*
X113415927Y-111459041D01*
X113421361Y-111474602D01*
X113424688Y-111489185D01*
X113429882Y-111495703D01*
X113433852Y-111500685D01*
X113442685Y-111514765D01*
X113449052Y-111528024D01*
X113455555Y-111533225D01*
X113455557Y-111533227D01*
X113460727Y-111537361D01*
X113472381Y-111549036D01*
X113481695Y-111560724D01*
X113494938Y-111567111D01*
X113509006Y-111575970D01*
X113520492Y-111585156D01*
X113535069Y-111588508D01*
X113550627Y-111593973D01*
X113564087Y-111600465D01*
X113587041Y-111600485D01*
X113587156Y-111600485D01*
X113587219Y-111600500D01*
X113604108Y-111600500D01*
X113655296Y-111600545D01*
X113655563Y-111600545D01*
X113655645Y-111600506D01*
X113655697Y-111600500D01*
X124585500Y-111600500D01*
X124633066Y-111617813D01*
X124658376Y-111661650D01*
X124659500Y-111674500D01*
X124659500Y-123394108D01*
X124659455Y-123445563D01*
X124665927Y-123459041D01*
X124671361Y-123474602D01*
X124674688Y-123489185D01*
X124679882Y-123495703D01*
X124683852Y-123500685D01*
X124692685Y-123514765D01*
X124699052Y-123528024D01*
X124705555Y-123533225D01*
X124705557Y-123533227D01*
X124710727Y-123537361D01*
X124722381Y-123549036D01*
X124731695Y-123560724D01*
X124744938Y-123567111D01*
X124759006Y-123575970D01*
X124770492Y-123585156D01*
X124785069Y-123588508D01*
X124800627Y-123593973D01*
X124814087Y-123600465D01*
X124837041Y-123600485D01*
X124837156Y-123600485D01*
X124837219Y-123600500D01*
X124854108Y-123600500D01*
X124905296Y-123600545D01*
X124905563Y-123600545D01*
X124905645Y-123600506D01*
X124905697Y-123600500D01*
X192854108Y-123600500D01*
X192897230Y-123600538D01*
X192897231Y-123600538D01*
X192905563Y-123600545D01*
X192919041Y-123594073D01*
X192934602Y-123588639D01*
X192949185Y-123585312D01*
X192960685Y-123576148D01*
X192974765Y-123567315D01*
X192988024Y-123560948D01*
X192993225Y-123554445D01*
X192993227Y-123554443D01*
X192997361Y-123549273D01*
X193009036Y-123537619D01*
X193014204Y-123533501D01*
X193014205Y-123533500D01*
X193020724Y-123528305D01*
X193027111Y-123515062D01*
X193035970Y-123500994D01*
X193039951Y-123496016D01*
X193045156Y-123489508D01*
X193048508Y-123474931D01*
X193053974Y-123459369D01*
X193056844Y-123453419D01*
X193060465Y-123445913D01*
X193060485Y-123422845D01*
X193060500Y-123422781D01*
X193060500Y-123405892D01*
X193060545Y-123354437D01*
X193060506Y-123354355D01*
X193060500Y-123354303D01*
X193060500Y-89405892D01*
X193060538Y-89362770D01*
X193060538Y-89362769D01*
X193060545Y-89354437D01*
X193054073Y-89340959D01*
X193048639Y-89325398D01*
X193045312Y-89310815D01*
X193036148Y-89299315D01*
X193027313Y-89285232D01*
X193024553Y-89279484D01*
X193020948Y-89271976D01*
X193014445Y-89266775D01*
X193014443Y-89266773D01*
X193009273Y-89262639D01*
X192997619Y-89250964D01*
X192993501Y-89245796D01*
X192993500Y-89245795D01*
X192988305Y-89239276D01*
X192975062Y-89232889D01*
X192960994Y-89224030D01*
X192956016Y-89220049D01*
X192956017Y-89220049D01*
X192949508Y-89214844D01*
X192934931Y-89211492D01*
X192919373Y-89206027D01*
X192905913Y-89199535D01*
X192882959Y-89199515D01*
X192882844Y-89199515D01*
X192882781Y-89199500D01*
X192865892Y-89199500D01*
X192814704Y-89199455D01*
X192814437Y-89199455D01*
X192814355Y-89199494D01*
X192814303Y-89199500D01*
X184891423Y-89199500D01*
X184874713Y-89197589D01*
X184873617Y-89197335D01*
X184860718Y-89194345D01*
X184860000Y-89194344D01*
X184858849Y-89194607D01*
X184857431Y-89194443D01*
X184857467Y-89194922D01*
X184608604Y-89213571D01*
X184608603Y-89213571D01*
X184605843Y-89213778D01*
X184603151Y-89214392D01*
X184603147Y-89214393D01*
X184360057Y-89269877D01*
X184357363Y-89270492D01*
X184120112Y-89363607D01*
X184117720Y-89364988D01*
X183995727Y-89435420D01*
X183945877Y-89444210D01*
X183902040Y-89418900D01*
X183884728Y-89370883D01*
X183884937Y-89336646D01*
X183884937Y-89336645D01*
X183884969Y-89331376D01*
X183845572Y-89193529D01*
X183839234Y-89183483D01*
X183771882Y-89076737D01*
X183769070Y-89072280D01*
X183661612Y-88977377D01*
X183531837Y-88916447D01*
X183526632Y-88915637D01*
X183526630Y-88915636D01*
X183425812Y-88899939D01*
X183425809Y-88899939D01*
X183422991Y-88899500D01*
X183348060Y-88899500D01*
X183271195Y-88910508D01*
X183247297Y-88913930D01*
X183247296Y-88913930D01*
X183242082Y-88914677D01*
X183111572Y-88974016D01*
X183081775Y-88999691D01*
X183045189Y-89031215D01*
X182997853Y-89049149D01*
X182947900Y-89030621D01*
X182891563Y-88980866D01*
X182891561Y-88980865D01*
X182887612Y-88977377D01*
X182757837Y-88916447D01*
X182752632Y-88915637D01*
X182752630Y-88915636D01*
X182651812Y-88899939D01*
X182651809Y-88899939D01*
X182648991Y-88899500D01*
X182574060Y-88899500D01*
X182497195Y-88910508D01*
X182473297Y-88913930D01*
X182473296Y-88913930D01*
X182468082Y-88914677D01*
X182337572Y-88974016D01*
X182299780Y-89006580D01*
X182283337Y-89020748D01*
X182236002Y-89038682D01*
X182186048Y-89020154D01*
X182141563Y-88980866D01*
X182141561Y-88980865D01*
X182137612Y-88977377D01*
X182007837Y-88916447D01*
X182002632Y-88915637D01*
X182002630Y-88915636D01*
X181901812Y-88899939D01*
X181901809Y-88899939D01*
X181898991Y-88899500D01*
X181824060Y-88899500D01*
X181747195Y-88910508D01*
X181723297Y-88913930D01*
X181723296Y-88913930D01*
X181718082Y-88914677D01*
X181587572Y-88974016D01*
X181549780Y-89006580D01*
X181533337Y-89020748D01*
X181486002Y-89038682D01*
X181436048Y-89020154D01*
X181391563Y-88980866D01*
X181391561Y-88980865D01*
X181387612Y-88977377D01*
X181257837Y-88916447D01*
X181252632Y-88915637D01*
X181252630Y-88915636D01*
X181151812Y-88899939D01*
X181151809Y-88899939D01*
X181148991Y-88899500D01*
X181074060Y-88899500D01*
X180997195Y-88910508D01*
X180973297Y-88913930D01*
X180973296Y-88913930D01*
X180968082Y-88914677D01*
X180837572Y-88974016D01*
X180777263Y-89025982D01*
X180729928Y-89043916D01*
X180679973Y-89025387D01*
X180629563Y-88980866D01*
X180629561Y-88980865D01*
X180625612Y-88977377D01*
X180495837Y-88916447D01*
X180490632Y-88915637D01*
X180490630Y-88915636D01*
X180389812Y-88899939D01*
X180389809Y-88899939D01*
X180386991Y-88899500D01*
X180312060Y-88899500D01*
X180235195Y-88910508D01*
X180211297Y-88913930D01*
X180211296Y-88913930D01*
X180206082Y-88914677D01*
X180075572Y-88974016D01*
X179966963Y-89067600D01*
X179964099Y-89072019D01*
X179964097Y-89072021D01*
X179938228Y-89111932D01*
X179888985Y-89187905D01*
X179865399Y-89266773D01*
X179854177Y-89304297D01*
X179847907Y-89325261D01*
X179847813Y-89340631D01*
X179847579Y-89378893D01*
X179829975Y-89426352D01*
X179785984Y-89451393D01*
X179736581Y-89442526D01*
X179599888Y-89363607D01*
X179362637Y-89270492D01*
X179359943Y-89269877D01*
X179116853Y-89214393D01*
X179116849Y-89214392D01*
X179114157Y-89213778D01*
X179111397Y-89213571D01*
X179111396Y-89213571D01*
X178863528Y-89194996D01*
X178863540Y-89194834D01*
X178862799Y-89194827D01*
X178860718Y-89194345D01*
X178860000Y-89194344D01*
X178855928Y-89195273D01*
X178855927Y-89195273D01*
X178845520Y-89197647D01*
X178829063Y-89199500D01*
X139141423Y-89199500D01*
X139124713Y-89197589D01*
X139123617Y-89197335D01*
X139110718Y-89194345D01*
X139110000Y-89194344D01*
X139108849Y-89194607D01*
X139107431Y-89194443D01*
X139107467Y-89194922D01*
X138858604Y-89213571D01*
X138858603Y-89213571D01*
X138855843Y-89213778D01*
X138853151Y-89214392D01*
X138853147Y-89214393D01*
X138610057Y-89269877D01*
X138607363Y-89270492D01*
X138370112Y-89363607D01*
X138367720Y-89364988D01*
X138245727Y-89435420D01*
X138195877Y-89444210D01*
X138152040Y-89418900D01*
X138134728Y-89370883D01*
X138134937Y-89336646D01*
X138134937Y-89336645D01*
X138134969Y-89331376D01*
X138095572Y-89193529D01*
X138089234Y-89183483D01*
X138021882Y-89076737D01*
X138019070Y-89072280D01*
X137911612Y-88977377D01*
X137781837Y-88916447D01*
X137776632Y-88915637D01*
X137776630Y-88915636D01*
X137675812Y-88899939D01*
X137675809Y-88899939D01*
X137672991Y-88899500D01*
X137598060Y-88899500D01*
X137521195Y-88910508D01*
X137497297Y-88913930D01*
X137497296Y-88913930D01*
X137492082Y-88914677D01*
X137361572Y-88974016D01*
X137331775Y-88999691D01*
X137295189Y-89031215D01*
X137247853Y-89049149D01*
X137197900Y-89030621D01*
X137141563Y-88980866D01*
X137141561Y-88980865D01*
X137137612Y-88977377D01*
X137007837Y-88916447D01*
X137002632Y-88915637D01*
X137002630Y-88915636D01*
X136901812Y-88899939D01*
X136901809Y-88899939D01*
X136898991Y-88899500D01*
X136824060Y-88899500D01*
X136747195Y-88910508D01*
X136723297Y-88913930D01*
X136723296Y-88913930D01*
X136718082Y-88914677D01*
X136587572Y-88974016D01*
X136549780Y-89006580D01*
X136533337Y-89020748D01*
X136486002Y-89038682D01*
X136436048Y-89020154D01*
X136391563Y-88980866D01*
X136391561Y-88980865D01*
X136387612Y-88977377D01*
X136257837Y-88916447D01*
X136252632Y-88915637D01*
X136252630Y-88915636D01*
X136151812Y-88899939D01*
X136151809Y-88899939D01*
X136148991Y-88899500D01*
X136074060Y-88899500D01*
X135997195Y-88910508D01*
X135973297Y-88913930D01*
X135973296Y-88913930D01*
X135968082Y-88914677D01*
X135837572Y-88974016D01*
X135799780Y-89006580D01*
X135783337Y-89020748D01*
X135736002Y-89038682D01*
X135686048Y-89020154D01*
X135641563Y-88980866D01*
X135641561Y-88980865D01*
X135637612Y-88977377D01*
X135507837Y-88916447D01*
X135502632Y-88915637D01*
X135502630Y-88915636D01*
X135401812Y-88899939D01*
X135401809Y-88899939D01*
X135398991Y-88899500D01*
X135324060Y-88899500D01*
X135247195Y-88910508D01*
X135223297Y-88913930D01*
X135223296Y-88913930D01*
X135218082Y-88914677D01*
X135087572Y-88974016D01*
X135027263Y-89025982D01*
X134979928Y-89043916D01*
X134929973Y-89025387D01*
X134879563Y-88980866D01*
X134879561Y-88980865D01*
X134875612Y-88977377D01*
X134745837Y-88916447D01*
X134740632Y-88915637D01*
X134740630Y-88915636D01*
X134639812Y-88899939D01*
X134639809Y-88899939D01*
X134636991Y-88899500D01*
X134562060Y-88899500D01*
X134485195Y-88910508D01*
X134461297Y-88913930D01*
X134461296Y-88913930D01*
X134456082Y-88914677D01*
X134325572Y-88974016D01*
X134216963Y-89067600D01*
X134214099Y-89072019D01*
X134214097Y-89072021D01*
X134188228Y-89111932D01*
X134138985Y-89187905D01*
X134115399Y-89266773D01*
X134104177Y-89304297D01*
X134097907Y-89325261D01*
X134097813Y-89340631D01*
X134097579Y-89378893D01*
X134079975Y-89426352D01*
X134035984Y-89451393D01*
X133986581Y-89442526D01*
X133849888Y-89363607D01*
X133612637Y-89270492D01*
X133609943Y-89269877D01*
X133366853Y-89214393D01*
X133366849Y-89214392D01*
X133364157Y-89213778D01*
X133361397Y-89213571D01*
X133361396Y-89213571D01*
X133113528Y-89194996D01*
X133113540Y-89194834D01*
X133112799Y-89194827D01*
X133110718Y-89194345D01*
X133110000Y-89194344D01*
X133105928Y-89195273D01*
X133105927Y-89195273D01*
X133095520Y-89197647D01*
X133079063Y-89199500D01*
X124865892Y-89199500D01*
X124822770Y-89199462D01*
X124822769Y-89199462D01*
X124814437Y-89199455D01*
X124800959Y-89205927D01*
X124785398Y-89211361D01*
X124770815Y-89214688D01*
X124764297Y-89219882D01*
X124759315Y-89223852D01*
X124745235Y-89232685D01*
X124731976Y-89239052D01*
X124726775Y-89245555D01*
X124726773Y-89245557D01*
X124722639Y-89250727D01*
X124710964Y-89262381D01*
X124699276Y-89271695D01*
X124692890Y-89284936D01*
X124684030Y-89299006D01*
X124674844Y-89310492D01*
X124671492Y-89325069D01*
X124666027Y-89340627D01*
X124659535Y-89354087D01*
X124659515Y-89377155D01*
X124659500Y-89377219D01*
X124659500Y-89394108D01*
X124659458Y-89442526D01*
X124659455Y-89445563D01*
X124659494Y-89445645D01*
X124659500Y-89445697D01*
X124659500Y-96125500D01*
X124642187Y-96173066D01*
X124598350Y-96198376D01*
X124585500Y-96199500D01*
X113615892Y-96199500D01*
X113572770Y-96199462D01*
X113572769Y-96199462D01*
X113564437Y-96199455D01*
X113550959Y-96205927D01*
X113535398Y-96211361D01*
X113520815Y-96214688D01*
X113514297Y-96219882D01*
X113509315Y-96223852D01*
X113495235Y-96232685D01*
X113481976Y-96239052D01*
X113476775Y-96245555D01*
X113476773Y-96245557D01*
X113472639Y-96250727D01*
X113460964Y-96262381D01*
X113449276Y-96271695D01*
X113442890Y-96284936D01*
X113434030Y-96299006D01*
X113424844Y-96310492D01*
X113421492Y-96325069D01*
X113416027Y-96340627D01*
X113409535Y-96354087D01*
X113409515Y-96377155D01*
X113409500Y-96377219D01*
X113409500Y-96394108D01*
X113409455Y-96445563D01*
X113409494Y-96445645D01*
X113409500Y-96445697D01*
X113409500Y-111394108D01*
X113409455Y-111445563D01*
X78060500Y-111445563D01*
X78060500Y-84300000D01*
X131854318Y-84300000D01*
X131854951Y-84304808D01*
X131872261Y-84436288D01*
X131874956Y-84456762D01*
X131935464Y-84602841D01*
X131938414Y-84606685D01*
X131938416Y-84606689D01*
X131967982Y-84645220D01*
X132031718Y-84728282D01*
X132035569Y-84731237D01*
X132130548Y-84804117D01*
X132157746Y-84846809D01*
X132159500Y-84862825D01*
X132159500Y-85684455D01*
X132159098Y-85689928D01*
X132157575Y-85694364D01*
X132157831Y-85701188D01*
X132157831Y-85701189D01*
X132159448Y-85744263D01*
X132159500Y-85747039D01*
X132159500Y-85766970D01*
X132160124Y-85770322D01*
X132160437Y-85773713D01*
X132160247Y-85773731D01*
X132160706Y-85777777D01*
X132161774Y-85806230D01*
X132164471Y-85812507D01*
X132164472Y-85812512D01*
X132167416Y-85819365D01*
X132172174Y-85835024D01*
X132174791Y-85849075D01*
X132178376Y-85854890D01*
X132178377Y-85854894D01*
X132189730Y-85873312D01*
X132194726Y-85882929D01*
X132202947Y-85902062D01*
X132205964Y-85909085D01*
X132209978Y-85913971D01*
X132216409Y-85920402D01*
X132227076Y-85933897D01*
X132233532Y-85944370D01*
X132238971Y-85948506D01*
X132258112Y-85963061D01*
X132265646Y-85969639D01*
X133469419Y-87173412D01*
X133473004Y-87177565D01*
X133475064Y-87181780D01*
X133504576Y-87209156D01*
X133511670Y-87215737D01*
X133513670Y-87217663D01*
X133527766Y-87231759D01*
X133530577Y-87233687D01*
X133533196Y-87235864D01*
X133533086Y-87235996D01*
X133536262Y-87238550D01*
X133546726Y-87248256D01*
X133557135Y-87257912D01*
X133570408Y-87263207D01*
X133584844Y-87270915D01*
X133596635Y-87279004D01*
X133618808Y-87284266D01*
X133624337Y-87285578D01*
X133634670Y-87288846D01*
X133656258Y-87297458D01*
X133661111Y-87299394D01*
X133667404Y-87300011D01*
X133676497Y-87300011D01*
X133693583Y-87302011D01*
X133698903Y-87303273D01*
X133698906Y-87303273D01*
X133705555Y-87304851D01*
X133712323Y-87303930D01*
X133712326Y-87303930D01*
X133736152Y-87300687D01*
X133746131Y-87300011D01*
X146365922Y-87300011D01*
X146371395Y-87300413D01*
X146375831Y-87301936D01*
X146382655Y-87301680D01*
X146382656Y-87301680D01*
X146425730Y-87300063D01*
X146428506Y-87300011D01*
X146448437Y-87300011D01*
X146451789Y-87299387D01*
X146455180Y-87299074D01*
X146455198Y-87299264D01*
X146459244Y-87298805D01*
X146487697Y-87297737D01*
X146493974Y-87295040D01*
X146493979Y-87295039D01*
X146500832Y-87292095D01*
X146516491Y-87287337D01*
X146523825Y-87285971D01*
X146530542Y-87284720D01*
X146536357Y-87281135D01*
X146536361Y-87281134D01*
X146554779Y-87269781D01*
X146564396Y-87264785D01*
X146585751Y-87255610D01*
X146585753Y-87255609D01*
X146590552Y-87253547D01*
X146595438Y-87249533D01*
X146601869Y-87243102D01*
X146615365Y-87232434D01*
X146616060Y-87232006D01*
X146625837Y-87225979D01*
X146638630Y-87209156D01*
X146644528Y-87201399D01*
X146651106Y-87193865D01*
X146981023Y-86863948D01*
X147026899Y-86842556D01*
X147069451Y-86851678D01*
X147094239Y-86865532D01*
X147094243Y-86865534D01*
X147097398Y-86867297D01*
X147100834Y-86868414D01*
X147100840Y-86868416D01*
X147225256Y-86908841D01*
X147293329Y-86930959D01*
X147357176Y-86938572D01*
X147494294Y-86954922D01*
X147494297Y-86954922D01*
X147497894Y-86955351D01*
X147566714Y-86950056D01*
X147699689Y-86939824D01*
X147699691Y-86939824D01*
X147703300Y-86939546D01*
X147901725Y-86884145D01*
X147918808Y-86875516D01*
X148082376Y-86792892D01*
X148082379Y-86792890D01*
X148085610Y-86791258D01*
X148247951Y-86664424D01*
X148304339Y-86599097D01*
X148380201Y-86511210D01*
X148380203Y-86511208D01*
X148382564Y-86508472D01*
X148384347Y-86505333D01*
X148384350Y-86505329D01*
X148471739Y-86351495D01*
X148484323Y-86329344D01*
X148496812Y-86291803D01*
X148548208Y-86137299D01*
X148549351Y-86133863D01*
X148554823Y-86090553D01*
X148574913Y-85931519D01*
X148574913Y-85931513D01*
X148575171Y-85929474D01*
X148575583Y-85900000D01*
X148574138Y-85885262D01*
X149004520Y-85885262D01*
X149004823Y-85888871D01*
X149004823Y-85888873D01*
X149009831Y-85948506D01*
X149021759Y-86090553D01*
X149078544Y-86288586D01*
X149080196Y-86291800D01*
X149080197Y-86291803D01*
X149135142Y-86398714D01*
X149172712Y-86471818D01*
X149300677Y-86633270D01*
X149303430Y-86635613D01*
X149303433Y-86635616D01*
X149306071Y-86637861D01*
X149457564Y-86766791D01*
X149504266Y-86792892D01*
X149634239Y-86865532D01*
X149634243Y-86865534D01*
X149637398Y-86867297D01*
X149640834Y-86868414D01*
X149640840Y-86868416D01*
X149765256Y-86908841D01*
X149833329Y-86930959D01*
X149897176Y-86938572D01*
X150034294Y-86954922D01*
X150034297Y-86954922D01*
X150037894Y-86955351D01*
X150106714Y-86950056D01*
X150239689Y-86939824D01*
X150239691Y-86939824D01*
X150243300Y-86939546D01*
X150441725Y-86884145D01*
X150458808Y-86875516D01*
X150622376Y-86792892D01*
X150622379Y-86792890D01*
X150625610Y-86791258D01*
X150787951Y-86664424D01*
X150844339Y-86599097D01*
X150920201Y-86511210D01*
X150920203Y-86511208D01*
X150922564Y-86508472D01*
X150924347Y-86505333D01*
X150924350Y-86505329D01*
X151011739Y-86351495D01*
X151024323Y-86329344D01*
X151036812Y-86291803D01*
X151088208Y-86137299D01*
X151089351Y-86133863D01*
X151094823Y-86090553D01*
X151114913Y-85931519D01*
X151114913Y-85931513D01*
X151115171Y-85929474D01*
X151115583Y-85900000D01*
X151114138Y-85885262D01*
X151544520Y-85885262D01*
X151544823Y-85888871D01*
X151544823Y-85888873D01*
X151549831Y-85948506D01*
X151561759Y-86090553D01*
X151618544Y-86288586D01*
X151620196Y-86291800D01*
X151620197Y-86291803D01*
X151675142Y-86398714D01*
X151712712Y-86471818D01*
X151840677Y-86633270D01*
X151843430Y-86635613D01*
X151843433Y-86635616D01*
X151846071Y-86637861D01*
X151997564Y-86766791D01*
X152044266Y-86792892D01*
X152174239Y-86865532D01*
X152174243Y-86865534D01*
X152177398Y-86867297D01*
X152180834Y-86868414D01*
X152180840Y-86868416D01*
X152305256Y-86908841D01*
X152373329Y-86930959D01*
X152437176Y-86938572D01*
X152574294Y-86954922D01*
X152574297Y-86954922D01*
X152577894Y-86955351D01*
X152646714Y-86950056D01*
X152779689Y-86939824D01*
X152779691Y-86939824D01*
X152783300Y-86939546D01*
X152981725Y-86884145D01*
X152998808Y-86875516D01*
X153162376Y-86792892D01*
X153162379Y-86792890D01*
X153165610Y-86791258D01*
X153327951Y-86664424D01*
X153384339Y-86599097D01*
X153460201Y-86511210D01*
X153460203Y-86511208D01*
X153462564Y-86508472D01*
X153464347Y-86505333D01*
X153464350Y-86505329D01*
X153551739Y-86351495D01*
X153564323Y-86329344D01*
X153576812Y-86291803D01*
X153628208Y-86137299D01*
X153629351Y-86133863D01*
X153634823Y-86090553D01*
X153654913Y-85931519D01*
X153654913Y-85931513D01*
X153655171Y-85929474D01*
X153655583Y-85900000D01*
X153654138Y-85885262D01*
X154084520Y-85885262D01*
X154084823Y-85888871D01*
X154084823Y-85888873D01*
X154089831Y-85948506D01*
X154101759Y-86090553D01*
X154158544Y-86288586D01*
X154160196Y-86291800D01*
X154160197Y-86291803D01*
X154215142Y-86398714D01*
X154252712Y-86471818D01*
X154380677Y-86633270D01*
X154383430Y-86635613D01*
X154383433Y-86635616D01*
X154386071Y-86637861D01*
X154537564Y-86766791D01*
X154584266Y-86792892D01*
X154714239Y-86865532D01*
X154714243Y-86865534D01*
X154717398Y-86867297D01*
X154720834Y-86868414D01*
X154720840Y-86868416D01*
X154845256Y-86908841D01*
X154913329Y-86930959D01*
X154977176Y-86938572D01*
X155114294Y-86954922D01*
X155114297Y-86954922D01*
X155117894Y-86955351D01*
X155186714Y-86950056D01*
X155319689Y-86939824D01*
X155319691Y-86939824D01*
X155323300Y-86939546D01*
X155521725Y-86884145D01*
X155538808Y-86875516D01*
X155702376Y-86792892D01*
X155702379Y-86792890D01*
X155705610Y-86791258D01*
X155867951Y-86664424D01*
X155924339Y-86599097D01*
X156000201Y-86511210D01*
X156000203Y-86511208D01*
X156002564Y-86508472D01*
X156004347Y-86505333D01*
X156004350Y-86505329D01*
X156091739Y-86351495D01*
X156104323Y-86329344D01*
X156116812Y-86291803D01*
X156168208Y-86137299D01*
X156169351Y-86133863D01*
X156174823Y-86090553D01*
X156194913Y-85931519D01*
X156194913Y-85931513D01*
X156195171Y-85929474D01*
X156195583Y-85900000D01*
X156194138Y-85885262D01*
X156624520Y-85885262D01*
X156624823Y-85888871D01*
X156624823Y-85888873D01*
X156629831Y-85948506D01*
X156641759Y-86090553D01*
X156698544Y-86288586D01*
X156700196Y-86291800D01*
X156700197Y-86291803D01*
X156755142Y-86398714D01*
X156792712Y-86471818D01*
X156920677Y-86633270D01*
X156923430Y-86635613D01*
X156923433Y-86635616D01*
X156926071Y-86637861D01*
X157077564Y-86766791D01*
X157124266Y-86792892D01*
X157254239Y-86865532D01*
X157254243Y-86865534D01*
X157257398Y-86867297D01*
X157260834Y-86868414D01*
X157260840Y-86868416D01*
X157385256Y-86908841D01*
X157453329Y-86930959D01*
X157517176Y-86938572D01*
X157654294Y-86954922D01*
X157654297Y-86954922D01*
X157657894Y-86955351D01*
X157726714Y-86950056D01*
X157859689Y-86939824D01*
X157859691Y-86939824D01*
X157863300Y-86939546D01*
X158061725Y-86884145D01*
X158078808Y-86875516D01*
X158242376Y-86792892D01*
X158242379Y-86792890D01*
X158245610Y-86791258D01*
X158407951Y-86664424D01*
X158464339Y-86599097D01*
X158540201Y-86511210D01*
X158540203Y-86511208D01*
X158542564Y-86508472D01*
X158544347Y-86505333D01*
X158544350Y-86505329D01*
X158631739Y-86351495D01*
X158644323Y-86329344D01*
X158656812Y-86291803D01*
X158708208Y-86137299D01*
X158709351Y-86133863D01*
X158714823Y-86090553D01*
X158734913Y-85931519D01*
X158734913Y-85931513D01*
X158735171Y-85929474D01*
X158735583Y-85900000D01*
X158734138Y-85885262D01*
X159164520Y-85885262D01*
X159164823Y-85888871D01*
X159164823Y-85888873D01*
X159169831Y-85948506D01*
X159181759Y-86090553D01*
X159238544Y-86288586D01*
X159240196Y-86291800D01*
X159240197Y-86291803D01*
X159295142Y-86398714D01*
X159332712Y-86471818D01*
X159460677Y-86633270D01*
X159463430Y-86635613D01*
X159463433Y-86635616D01*
X159466071Y-86637861D01*
X159617564Y-86766791D01*
X159664266Y-86792892D01*
X159794239Y-86865532D01*
X159794243Y-86865534D01*
X159797398Y-86867297D01*
X159800834Y-86868414D01*
X159800840Y-86868416D01*
X159925256Y-86908841D01*
X159993329Y-86930959D01*
X160057176Y-86938572D01*
X160194294Y-86954922D01*
X160194297Y-86954922D01*
X160197894Y-86955351D01*
X160266714Y-86950056D01*
X160399689Y-86939824D01*
X160399691Y-86939824D01*
X160403300Y-86939546D01*
X160601725Y-86884145D01*
X160618808Y-86875516D01*
X160782376Y-86792892D01*
X160782379Y-86792890D01*
X160785610Y-86791258D01*
X160947951Y-86664424D01*
X161004339Y-86599097D01*
X161080201Y-86511210D01*
X161080203Y-86511208D01*
X161082564Y-86508472D01*
X161084347Y-86505333D01*
X161084350Y-86505329D01*
X161171739Y-86351495D01*
X161184323Y-86329344D01*
X161196812Y-86291803D01*
X161248208Y-86137299D01*
X161249351Y-86133863D01*
X161254823Y-86090553D01*
X161274913Y-85931519D01*
X161274913Y-85931513D01*
X161275171Y-85929474D01*
X161275583Y-85900000D01*
X161272967Y-85873312D01*
X161255833Y-85698570D01*
X161255480Y-85694970D01*
X161195935Y-85497749D01*
X161099218Y-85315849D01*
X160969011Y-85156200D01*
X160810275Y-85024882D01*
X160799384Y-85018993D01*
X160632238Y-84928618D01*
X160629055Y-84926897D01*
X160625605Y-84925829D01*
X160625600Y-84925827D01*
X160474925Y-84879186D01*
X160432254Y-84865977D01*
X160227369Y-84844443D01*
X160223765Y-84844771D01*
X160223764Y-84844771D01*
X160223215Y-84844821D01*
X160022203Y-84863114D01*
X159973247Y-84877522D01*
X159828043Y-84920258D01*
X159828039Y-84920260D01*
X159824572Y-84921280D01*
X159755971Y-84957144D01*
X159645209Y-85015049D01*
X159645206Y-85015051D01*
X159642002Y-85016726D01*
X159639184Y-85018992D01*
X159639182Y-85018993D01*
X159484266Y-85143548D01*
X159484263Y-85143551D01*
X159481447Y-85145815D01*
X159479121Y-85148587D01*
X159479119Y-85148589D01*
X159351351Y-85300856D01*
X159351348Y-85300860D01*
X159349024Y-85303630D01*
X159249776Y-85484162D01*
X159248682Y-85487611D01*
X159190053Y-85672434D01*
X159187484Y-85680532D01*
X159187081Y-85684123D01*
X159187081Y-85684124D01*
X159185461Y-85698570D01*
X159164520Y-85885262D01*
X158734138Y-85885262D01*
X158732967Y-85873312D01*
X158715833Y-85698570D01*
X158715480Y-85694970D01*
X158655935Y-85497749D01*
X158559218Y-85315849D01*
X158429011Y-85156200D01*
X158270275Y-85024882D01*
X158259384Y-85018993D01*
X158092238Y-84928618D01*
X158089055Y-84926897D01*
X158085605Y-84925829D01*
X158085600Y-84925827D01*
X157934925Y-84879186D01*
X157892254Y-84865977D01*
X157687369Y-84844443D01*
X157683765Y-84844771D01*
X157683764Y-84844771D01*
X157683215Y-84844821D01*
X157482203Y-84863114D01*
X157433247Y-84877522D01*
X157288043Y-84920258D01*
X157288039Y-84920260D01*
X157284572Y-84921280D01*
X157215971Y-84957144D01*
X157105209Y-85015049D01*
X157105206Y-85015051D01*
X157102002Y-85016726D01*
X157099184Y-85018992D01*
X157099182Y-85018993D01*
X156944266Y-85143548D01*
X156944263Y-85143551D01*
X156941447Y-85145815D01*
X156939121Y-85148587D01*
X156939119Y-85148589D01*
X156811351Y-85300856D01*
X156811348Y-85300860D01*
X156809024Y-85303630D01*
X156709776Y-85484162D01*
X156708682Y-85487611D01*
X156650053Y-85672434D01*
X156647484Y-85680532D01*
X156647081Y-85684123D01*
X156647081Y-85684124D01*
X156645461Y-85698570D01*
X156624520Y-85885262D01*
X156194138Y-85885262D01*
X156192967Y-85873312D01*
X156175833Y-85698570D01*
X156175480Y-85694970D01*
X156115935Y-85497749D01*
X156019218Y-85315849D01*
X155889011Y-85156200D01*
X155730275Y-85024882D01*
X155719384Y-85018993D01*
X155552238Y-84928618D01*
X155549055Y-84926897D01*
X155545605Y-84925829D01*
X155545600Y-84925827D01*
X155394925Y-84879186D01*
X155352254Y-84865977D01*
X155147369Y-84844443D01*
X155143765Y-84844771D01*
X155143764Y-84844771D01*
X155143215Y-84844821D01*
X154942203Y-84863114D01*
X154893247Y-84877522D01*
X154748043Y-84920258D01*
X154748039Y-84920260D01*
X154744572Y-84921280D01*
X154675971Y-84957144D01*
X154565209Y-85015049D01*
X154565206Y-85015051D01*
X154562002Y-85016726D01*
X154559184Y-85018992D01*
X154559182Y-85018993D01*
X154404266Y-85143548D01*
X154404263Y-85143551D01*
X154401447Y-85145815D01*
X154399121Y-85148587D01*
X154399119Y-85148589D01*
X154271351Y-85300856D01*
X154271348Y-85300860D01*
X154269024Y-85303630D01*
X154169776Y-85484162D01*
X154168682Y-85487611D01*
X154110053Y-85672434D01*
X154107484Y-85680532D01*
X154107081Y-85684123D01*
X154107081Y-85684124D01*
X154105461Y-85698570D01*
X154084520Y-85885262D01*
X153654138Y-85885262D01*
X153652967Y-85873312D01*
X153635833Y-85698570D01*
X153635480Y-85694970D01*
X153575935Y-85497749D01*
X153479218Y-85315849D01*
X153349011Y-85156200D01*
X153190275Y-85024882D01*
X153179384Y-85018993D01*
X153012238Y-84928618D01*
X153009055Y-84926897D01*
X153005605Y-84925829D01*
X153005600Y-84925827D01*
X152854925Y-84879186D01*
X152812254Y-84865977D01*
X152607369Y-84844443D01*
X152603765Y-84844771D01*
X152603764Y-84844771D01*
X152603215Y-84844821D01*
X152402203Y-84863114D01*
X152353247Y-84877522D01*
X152208043Y-84920258D01*
X152208039Y-84920260D01*
X152204572Y-84921280D01*
X152135971Y-84957144D01*
X152025209Y-85015049D01*
X152025206Y-85015051D01*
X152022002Y-85016726D01*
X152019184Y-85018992D01*
X152019182Y-85018993D01*
X151864266Y-85143548D01*
X151864263Y-85143551D01*
X151861447Y-85145815D01*
X151859121Y-85148587D01*
X151859119Y-85148589D01*
X151731351Y-85300856D01*
X151731348Y-85300860D01*
X151729024Y-85303630D01*
X151629776Y-85484162D01*
X151628682Y-85487611D01*
X151570053Y-85672434D01*
X151567484Y-85680532D01*
X151567081Y-85684123D01*
X151567081Y-85684124D01*
X151565461Y-85698570D01*
X151544520Y-85885262D01*
X151114138Y-85885262D01*
X151112967Y-85873312D01*
X151095833Y-85698570D01*
X151095480Y-85694970D01*
X151035935Y-85497749D01*
X150939218Y-85315849D01*
X150809011Y-85156200D01*
X150650275Y-85024882D01*
X150639384Y-85018993D01*
X150472238Y-84928618D01*
X150469055Y-84926897D01*
X150465605Y-84925829D01*
X150465600Y-84925827D01*
X150314925Y-84879186D01*
X150272254Y-84865977D01*
X150067369Y-84844443D01*
X150063765Y-84844771D01*
X150063764Y-84844771D01*
X150063215Y-84844821D01*
X149862203Y-84863114D01*
X149813247Y-84877522D01*
X149668043Y-84920258D01*
X149668039Y-84920260D01*
X149664572Y-84921280D01*
X149595971Y-84957144D01*
X149485209Y-85015049D01*
X149485206Y-85015051D01*
X149482002Y-85016726D01*
X149479184Y-85018992D01*
X149479182Y-85018993D01*
X149324266Y-85143548D01*
X149324263Y-85143551D01*
X149321447Y-85145815D01*
X149319121Y-85148587D01*
X149319119Y-85148589D01*
X149191351Y-85300856D01*
X149191348Y-85300860D01*
X149189024Y-85303630D01*
X149089776Y-85484162D01*
X149088682Y-85487611D01*
X149030053Y-85672434D01*
X149027484Y-85680532D01*
X149027081Y-85684123D01*
X149027081Y-85684124D01*
X149025461Y-85698570D01*
X149004520Y-85885262D01*
X148574138Y-85885262D01*
X148572967Y-85873312D01*
X148555833Y-85698570D01*
X148555480Y-85694970D01*
X148495935Y-85497749D01*
X148399218Y-85315849D01*
X148269011Y-85156200D01*
X148110275Y-85024882D01*
X148099384Y-85018993D01*
X147932238Y-84928618D01*
X147929055Y-84926897D01*
X147925605Y-84925829D01*
X147925600Y-84925827D01*
X147774925Y-84879186D01*
X147732254Y-84865977D01*
X147527369Y-84844443D01*
X147523765Y-84844771D01*
X147523764Y-84844771D01*
X147523215Y-84844821D01*
X147322203Y-84863114D01*
X147273247Y-84877522D01*
X147128043Y-84920258D01*
X147128039Y-84920260D01*
X147124572Y-84921280D01*
X147055971Y-84957144D01*
X146945209Y-85015049D01*
X146945206Y-85015051D01*
X146942002Y-85016726D01*
X146939184Y-85018992D01*
X146939182Y-85018993D01*
X146784266Y-85143548D01*
X146784263Y-85143551D01*
X146781447Y-85145815D01*
X146779121Y-85148587D01*
X146779119Y-85148589D01*
X146651351Y-85300856D01*
X146651348Y-85300860D01*
X146649024Y-85303630D01*
X146549776Y-85484162D01*
X146548682Y-85487611D01*
X146490053Y-85672434D01*
X146487484Y-85680532D01*
X146487081Y-85684123D01*
X146487081Y-85684124D01*
X146485461Y-85698570D01*
X146464520Y-85885262D01*
X146464823Y-85888871D01*
X146464823Y-85888873D01*
X146469831Y-85948506D01*
X146481759Y-86090553D01*
X146538544Y-86288586D01*
X146540196Y-86291800D01*
X146540197Y-86291803D01*
X146570874Y-86351495D01*
X146577218Y-86401715D01*
X146557383Y-86437646D01*
X146317692Y-86677337D01*
X146271816Y-86698729D01*
X146265366Y-86699011D01*
X145839726Y-86699011D01*
X145792160Y-86681698D01*
X145766850Y-86637861D01*
X145775640Y-86588011D01*
X145783708Y-86576658D01*
X145840201Y-86511210D01*
X145840203Y-86511208D01*
X145842564Y-86508472D01*
X145844347Y-86505333D01*
X145844350Y-86505329D01*
X145931739Y-86351495D01*
X145944323Y-86329344D01*
X145956812Y-86291803D01*
X146008208Y-86137299D01*
X146009351Y-86133863D01*
X146014823Y-86090553D01*
X146034913Y-85931519D01*
X146034913Y-85931513D01*
X146035171Y-85929474D01*
X146035583Y-85900000D01*
X146032967Y-85873312D01*
X146015833Y-85698570D01*
X146015480Y-85694970D01*
X145955935Y-85497749D01*
X145859218Y-85315849D01*
X145729011Y-85156200D01*
X145570275Y-85024882D01*
X145559384Y-85018993D01*
X145392238Y-84928618D01*
X145389055Y-84926897D01*
X145385605Y-84925829D01*
X145385600Y-84925827D01*
X145234925Y-84879186D01*
X145192254Y-84865977D01*
X144987369Y-84844443D01*
X144983765Y-84844771D01*
X144983764Y-84844771D01*
X144983215Y-84844821D01*
X144782203Y-84863114D01*
X144733247Y-84877522D01*
X144588043Y-84920258D01*
X144588039Y-84920260D01*
X144584572Y-84921280D01*
X144515971Y-84957144D01*
X144405209Y-85015049D01*
X144405206Y-85015051D01*
X144402002Y-85016726D01*
X144399184Y-85018992D01*
X144399182Y-85018993D01*
X144244266Y-85143548D01*
X144244263Y-85143551D01*
X144241447Y-85145815D01*
X144239121Y-85148587D01*
X144239119Y-85148589D01*
X144111351Y-85300856D01*
X144111348Y-85300860D01*
X144109024Y-85303630D01*
X144009776Y-85484162D01*
X144008682Y-85487611D01*
X143950053Y-85672434D01*
X143947484Y-85680532D01*
X143947081Y-85684123D01*
X143947081Y-85684124D01*
X143945461Y-85698570D01*
X143924520Y-85885262D01*
X143924823Y-85888871D01*
X143924823Y-85888873D01*
X143929831Y-85948506D01*
X143941759Y-86090553D01*
X143998544Y-86288586D01*
X144000196Y-86291800D01*
X144000197Y-86291803D01*
X144055142Y-86398714D01*
X144092712Y-86471818D01*
X144175807Y-86576658D01*
X144177700Y-86579046D01*
X144193678Y-86627077D01*
X144175044Y-86674141D01*
X144130517Y-86698217D01*
X144119707Y-86699011D01*
X143299726Y-86699011D01*
X143252160Y-86681698D01*
X143226850Y-86637861D01*
X143235640Y-86588011D01*
X143243708Y-86576658D01*
X143300201Y-86511210D01*
X143300203Y-86511208D01*
X143302564Y-86508472D01*
X143304347Y-86505333D01*
X143304350Y-86505329D01*
X143391739Y-86351495D01*
X143404323Y-86329344D01*
X143416812Y-86291803D01*
X143468208Y-86137299D01*
X143469351Y-86133863D01*
X143474823Y-86090553D01*
X143494913Y-85931519D01*
X143494913Y-85931513D01*
X143495171Y-85929474D01*
X143495583Y-85900000D01*
X143492967Y-85873312D01*
X143475833Y-85698570D01*
X143475480Y-85694970D01*
X143415935Y-85497749D01*
X143319218Y-85315849D01*
X143189011Y-85156200D01*
X143030275Y-85024882D01*
X143019384Y-85018993D01*
X142852238Y-84928618D01*
X142849055Y-84926897D01*
X142845605Y-84925829D01*
X142845600Y-84925827D01*
X142694925Y-84879186D01*
X142652254Y-84865977D01*
X142447369Y-84844443D01*
X142443765Y-84844771D01*
X142443764Y-84844771D01*
X142443215Y-84844821D01*
X142242203Y-84863114D01*
X142193247Y-84877522D01*
X142048043Y-84920258D01*
X142048039Y-84920260D01*
X142044572Y-84921280D01*
X141988777Y-84950449D01*
X141938603Y-84957144D01*
X141902167Y-84937196D01*
X141591559Y-84626588D01*
X141587974Y-84622435D01*
X141585914Y-84618220D01*
X141549307Y-84584262D01*
X141547308Y-84582337D01*
X141533212Y-84568241D01*
X141530401Y-84566313D01*
X141527782Y-84564136D01*
X141527892Y-84564004D01*
X141524716Y-84561450D01*
X141508853Y-84546735D01*
X141508852Y-84546734D01*
X141503843Y-84542088D01*
X141497501Y-84539558D01*
X141497495Y-84539554D01*
X141490566Y-84536790D01*
X141476130Y-84529082D01*
X141469982Y-84524865D01*
X141469981Y-84524864D01*
X141464343Y-84520997D01*
X141457693Y-84519419D01*
X141457691Y-84519418D01*
X141436649Y-84514425D01*
X141426313Y-84511157D01*
X141424421Y-84510402D01*
X141399867Y-84500606D01*
X141393574Y-84499989D01*
X141384477Y-84499989D01*
X141367390Y-84497989D01*
X141362074Y-84496727D01*
X141362072Y-84496727D01*
X141355423Y-84495149D01*
X141334555Y-84497989D01*
X141324826Y-84499313D01*
X141314847Y-84499989D01*
X140263767Y-84499989D01*
X140216201Y-84482676D01*
X140190891Y-84438839D01*
X140199681Y-84388989D01*
X140238458Y-84356452D01*
X140243867Y-84354715D01*
X140278244Y-84345117D01*
X140278245Y-84345117D01*
X140281725Y-84344145D01*
X140312863Y-84328416D01*
X140462376Y-84252892D01*
X140462379Y-84252890D01*
X140465610Y-84251258D01*
X140627951Y-84124424D01*
X140678930Y-84065364D01*
X140760201Y-83971210D01*
X140760203Y-83971208D01*
X140762564Y-83968472D01*
X140764347Y-83965333D01*
X140764350Y-83965329D01*
X140819207Y-83868763D01*
X140864323Y-83789344D01*
X140867959Y-83778416D01*
X140928208Y-83597299D01*
X140929351Y-83593863D01*
X140934823Y-83550553D01*
X140954913Y-83391519D01*
X140954913Y-83391513D01*
X140955171Y-83389474D01*
X140955583Y-83360000D01*
X140953785Y-83341657D01*
X140935833Y-83158570D01*
X140935480Y-83154970D01*
X140875935Y-82957749D01*
X140779218Y-82775849D01*
X140749963Y-82739978D01*
X140661701Y-82631759D01*
X140645054Y-82583956D01*
X140663029Y-82536636D01*
X140707216Y-82511941D01*
X140719047Y-82510989D01*
X141622322Y-82510989D01*
X141669888Y-82528302D01*
X141695198Y-82572139D01*
X141686408Y-82621989D01*
X141679009Y-82632555D01*
X141571351Y-82760856D01*
X141571348Y-82760860D01*
X141569024Y-82763630D01*
X141469776Y-82944162D01*
X141468682Y-82947611D01*
X141409879Y-83132983D01*
X141407484Y-83140532D01*
X141407081Y-83144123D01*
X141407081Y-83144124D01*
X141405461Y-83158570D01*
X141384520Y-83345262D01*
X141384823Y-83348871D01*
X141384823Y-83348873D01*
X141388404Y-83391519D01*
X141401759Y-83550553D01*
X141458544Y-83748586D01*
X141460196Y-83751800D01*
X141460197Y-83751803D01*
X141481106Y-83792487D01*
X141552712Y-83931818D01*
X141680677Y-84093270D01*
X141683430Y-84095613D01*
X141683433Y-84095616D01*
X141714062Y-84121683D01*
X141837564Y-84226791D01*
X141884266Y-84252892D01*
X142014239Y-84325532D01*
X142014243Y-84325534D01*
X142017398Y-84327297D01*
X142020834Y-84328414D01*
X142020840Y-84328416D01*
X142145256Y-84368841D01*
X142213329Y-84390959D01*
X142277176Y-84398572D01*
X142414294Y-84414922D01*
X142414297Y-84414922D01*
X142417894Y-84415351D01*
X142486714Y-84410056D01*
X142619689Y-84399824D01*
X142619691Y-84399824D01*
X142623300Y-84399546D01*
X142780658Y-84355611D01*
X142818244Y-84345117D01*
X142818245Y-84345117D01*
X142821725Y-84344145D01*
X142852863Y-84328416D01*
X143002376Y-84252892D01*
X143002379Y-84252890D01*
X143005610Y-84251258D01*
X143167951Y-84124424D01*
X143218930Y-84065364D01*
X143300201Y-83971210D01*
X143300203Y-83971208D01*
X143302564Y-83968472D01*
X143304347Y-83965333D01*
X143304350Y-83965329D01*
X143359207Y-83868763D01*
X143404323Y-83789344D01*
X143407959Y-83778416D01*
X143468208Y-83597299D01*
X143469351Y-83593863D01*
X143474823Y-83550553D01*
X143494913Y-83391519D01*
X143494913Y-83391513D01*
X143495171Y-83389474D01*
X143495583Y-83360000D01*
X143493785Y-83341657D01*
X143475833Y-83158570D01*
X143475480Y-83154970D01*
X143415935Y-82957749D01*
X143319218Y-82775849D01*
X143289963Y-82739978D01*
X143201701Y-82631759D01*
X143185054Y-82583956D01*
X143203029Y-82536636D01*
X143247216Y-82511941D01*
X143259047Y-82510989D01*
X144162322Y-82510989D01*
X144209888Y-82528302D01*
X144235198Y-82572139D01*
X144226408Y-82621989D01*
X144219009Y-82632555D01*
X144111351Y-82760856D01*
X144111348Y-82760860D01*
X144109024Y-82763630D01*
X144009776Y-82944162D01*
X144008682Y-82947611D01*
X143949879Y-83132983D01*
X143947484Y-83140532D01*
X143947081Y-83144123D01*
X143947081Y-83144124D01*
X143945461Y-83158570D01*
X143924520Y-83345262D01*
X143924823Y-83348871D01*
X143924823Y-83348873D01*
X143928404Y-83391519D01*
X143941759Y-83550553D01*
X143998544Y-83748586D01*
X144000196Y-83751800D01*
X144000197Y-83751803D01*
X144021106Y-83792487D01*
X144092712Y-83931818D01*
X144220677Y-84093270D01*
X144223430Y-84095613D01*
X144223433Y-84095616D01*
X144254062Y-84121683D01*
X144377564Y-84226791D01*
X144424266Y-84252892D01*
X144554239Y-84325532D01*
X144554243Y-84325534D01*
X144557398Y-84327297D01*
X144560834Y-84328414D01*
X144560840Y-84328416D01*
X144685256Y-84368841D01*
X144753329Y-84390959D01*
X144817176Y-84398572D01*
X144954294Y-84414922D01*
X144954297Y-84414922D01*
X144957894Y-84415351D01*
X145026714Y-84410056D01*
X145159689Y-84399824D01*
X145159691Y-84399824D01*
X145163300Y-84399546D01*
X145320658Y-84355611D01*
X145358244Y-84345117D01*
X145358245Y-84345117D01*
X145361725Y-84344145D01*
X145392863Y-84328416D01*
X145542376Y-84252892D01*
X145542379Y-84252890D01*
X145545610Y-84251258D01*
X145707951Y-84124424D01*
X145758930Y-84065364D01*
X145840201Y-83971210D01*
X145840203Y-83971208D01*
X145842564Y-83968472D01*
X145844347Y-83965333D01*
X145844350Y-83965329D01*
X145899207Y-83868763D01*
X145944323Y-83789344D01*
X145947959Y-83778416D01*
X146008208Y-83597299D01*
X146009351Y-83593863D01*
X146014823Y-83550553D01*
X146034913Y-83391519D01*
X146034913Y-83391513D01*
X146035171Y-83389474D01*
X146035583Y-83360000D01*
X146033785Y-83341657D01*
X146015833Y-83158570D01*
X146015480Y-83154970D01*
X145955935Y-82957749D01*
X145859218Y-82775849D01*
X145829963Y-82739978D01*
X145741701Y-82631759D01*
X145725054Y-82583956D01*
X145743029Y-82536636D01*
X145787216Y-82511941D01*
X145799047Y-82510989D01*
X146702322Y-82510989D01*
X146749888Y-82528302D01*
X146775198Y-82572139D01*
X146766408Y-82621989D01*
X146759009Y-82632555D01*
X146651351Y-82760856D01*
X146651348Y-82760860D01*
X146649024Y-82763630D01*
X146549776Y-82944162D01*
X146548682Y-82947611D01*
X146489879Y-83132983D01*
X146487484Y-83140532D01*
X146487081Y-83144123D01*
X146487081Y-83144124D01*
X146485461Y-83158570D01*
X146464520Y-83345262D01*
X146464823Y-83348871D01*
X146464823Y-83348873D01*
X146468404Y-83391519D01*
X146481759Y-83550553D01*
X146538544Y-83748586D01*
X146540196Y-83751800D01*
X146540197Y-83751803D01*
X146561106Y-83792487D01*
X146632712Y-83931818D01*
X146760677Y-84093270D01*
X146763430Y-84095613D01*
X146763433Y-84095616D01*
X146794062Y-84121683D01*
X146917564Y-84226791D01*
X146964266Y-84252892D01*
X147094239Y-84325532D01*
X147094243Y-84325534D01*
X147097398Y-84327297D01*
X147100834Y-84328414D01*
X147100840Y-84328416D01*
X147225256Y-84368841D01*
X147293329Y-84390959D01*
X147357176Y-84398572D01*
X147494294Y-84414922D01*
X147494297Y-84414922D01*
X147497894Y-84415351D01*
X147566714Y-84410056D01*
X147699689Y-84399824D01*
X147699691Y-84399824D01*
X147703300Y-84399546D01*
X147860658Y-84355611D01*
X147898244Y-84345117D01*
X147898245Y-84345117D01*
X147901725Y-84344145D01*
X147932863Y-84328416D01*
X148082376Y-84252892D01*
X148082379Y-84252890D01*
X148085610Y-84251258D01*
X148247951Y-84124424D01*
X148298930Y-84065364D01*
X148380201Y-83971210D01*
X148380203Y-83971208D01*
X148382564Y-83968472D01*
X148384347Y-83965333D01*
X148384350Y-83965329D01*
X148439207Y-83868763D01*
X148484323Y-83789344D01*
X148487959Y-83778416D01*
X148548208Y-83597299D01*
X148549351Y-83593863D01*
X148554823Y-83550553D01*
X148574913Y-83391519D01*
X148574913Y-83391513D01*
X148575171Y-83389474D01*
X148575583Y-83360000D01*
X148573785Y-83341657D01*
X148555833Y-83158570D01*
X148555480Y-83154970D01*
X148495935Y-82957749D01*
X148399218Y-82775849D01*
X148369963Y-82739978D01*
X148281701Y-82631759D01*
X148265054Y-82583956D01*
X148283029Y-82536636D01*
X148327216Y-82511941D01*
X148339047Y-82510989D01*
X149242322Y-82510989D01*
X149289888Y-82528302D01*
X149315198Y-82572139D01*
X149306408Y-82621989D01*
X149299009Y-82632555D01*
X149191351Y-82760856D01*
X149191348Y-82760860D01*
X149189024Y-82763630D01*
X149089776Y-82944162D01*
X149088682Y-82947611D01*
X149029879Y-83132983D01*
X149027484Y-83140532D01*
X149027081Y-83144123D01*
X149027081Y-83144124D01*
X149025461Y-83158570D01*
X149004520Y-83345262D01*
X149004823Y-83348871D01*
X149004823Y-83348873D01*
X149008404Y-83391519D01*
X149021759Y-83550553D01*
X149078544Y-83748586D01*
X149080196Y-83751800D01*
X149080197Y-83751803D01*
X149101106Y-83792487D01*
X149172712Y-83931818D01*
X149300677Y-84093270D01*
X149303430Y-84095613D01*
X149303433Y-84095616D01*
X149334062Y-84121683D01*
X149457564Y-84226791D01*
X149504266Y-84252892D01*
X149634239Y-84325532D01*
X149634243Y-84325534D01*
X149637398Y-84327297D01*
X149640834Y-84328414D01*
X149640840Y-84328416D01*
X149765256Y-84368841D01*
X149833329Y-84390959D01*
X149897176Y-84398572D01*
X150034294Y-84414922D01*
X150034297Y-84414922D01*
X150037894Y-84415351D01*
X150106714Y-84410056D01*
X150239689Y-84399824D01*
X150239691Y-84399824D01*
X150243300Y-84399546D01*
X150400658Y-84355611D01*
X150438244Y-84345117D01*
X150438245Y-84345117D01*
X150441725Y-84344145D01*
X150472863Y-84328416D01*
X150622376Y-84252892D01*
X150622379Y-84252890D01*
X150625610Y-84251258D01*
X150787951Y-84124424D01*
X150838930Y-84065364D01*
X150920201Y-83971210D01*
X150920203Y-83971208D01*
X150922564Y-83968472D01*
X150924347Y-83965333D01*
X150924350Y-83965329D01*
X150979207Y-83868763D01*
X151024323Y-83789344D01*
X151027959Y-83778416D01*
X151088208Y-83597299D01*
X151089351Y-83593863D01*
X151094823Y-83550553D01*
X151114913Y-83391519D01*
X151114913Y-83391513D01*
X151115171Y-83389474D01*
X151115583Y-83360000D01*
X151113785Y-83341657D01*
X151095833Y-83158570D01*
X151095480Y-83154970D01*
X151035935Y-82957749D01*
X150939218Y-82775849D01*
X150909963Y-82739978D01*
X150821701Y-82631759D01*
X150805054Y-82583956D01*
X150823029Y-82536636D01*
X150867216Y-82511941D01*
X150879047Y-82510989D01*
X151782322Y-82510989D01*
X151829888Y-82528302D01*
X151855198Y-82572139D01*
X151846408Y-82621989D01*
X151839009Y-82632555D01*
X151731351Y-82760856D01*
X151731348Y-82760860D01*
X151729024Y-82763630D01*
X151629776Y-82944162D01*
X151628682Y-82947611D01*
X151569879Y-83132983D01*
X151567484Y-83140532D01*
X151567081Y-83144123D01*
X151567081Y-83144124D01*
X151565461Y-83158570D01*
X151544520Y-83345262D01*
X151544823Y-83348871D01*
X151544823Y-83348873D01*
X151548404Y-83391519D01*
X151561759Y-83550553D01*
X151618544Y-83748586D01*
X151620196Y-83751800D01*
X151620197Y-83751803D01*
X151641106Y-83792487D01*
X151712712Y-83931818D01*
X151840677Y-84093270D01*
X151843430Y-84095613D01*
X151843433Y-84095616D01*
X151874062Y-84121683D01*
X151997564Y-84226791D01*
X152044266Y-84252892D01*
X152174239Y-84325532D01*
X152174243Y-84325534D01*
X152177398Y-84327297D01*
X152180834Y-84328414D01*
X152180840Y-84328416D01*
X152305256Y-84368841D01*
X152373329Y-84390959D01*
X152437176Y-84398572D01*
X152574294Y-84414922D01*
X152574297Y-84414922D01*
X152577894Y-84415351D01*
X152646714Y-84410056D01*
X152779689Y-84399824D01*
X152779691Y-84399824D01*
X152783300Y-84399546D01*
X152940658Y-84355611D01*
X152978244Y-84345117D01*
X152978245Y-84345117D01*
X152981725Y-84344145D01*
X153012863Y-84328416D01*
X153162376Y-84252892D01*
X153162379Y-84252890D01*
X153165610Y-84251258D01*
X153327951Y-84124424D01*
X153378930Y-84065364D01*
X153460201Y-83971210D01*
X153460203Y-83971208D01*
X153462564Y-83968472D01*
X153464347Y-83965333D01*
X153464350Y-83965329D01*
X153519207Y-83868763D01*
X153564323Y-83789344D01*
X153567959Y-83778416D01*
X153628208Y-83597299D01*
X153629351Y-83593863D01*
X153634823Y-83550553D01*
X153654913Y-83391519D01*
X153654913Y-83391513D01*
X153655171Y-83389474D01*
X153655583Y-83360000D01*
X153653785Y-83341657D01*
X153635833Y-83158570D01*
X153635480Y-83154970D01*
X153575935Y-82957749D01*
X153479218Y-82775849D01*
X153449963Y-82739978D01*
X153361701Y-82631759D01*
X153345054Y-82583956D01*
X153363029Y-82536636D01*
X153407216Y-82511941D01*
X153419047Y-82510989D01*
X154322322Y-82510989D01*
X154369888Y-82528302D01*
X154395198Y-82572139D01*
X154386408Y-82621989D01*
X154379009Y-82632555D01*
X154271351Y-82760856D01*
X154271348Y-82760860D01*
X154269024Y-82763630D01*
X154169776Y-82944162D01*
X154168682Y-82947611D01*
X154109879Y-83132983D01*
X154107484Y-83140532D01*
X154107081Y-83144123D01*
X154107081Y-83144124D01*
X154105461Y-83158570D01*
X154084520Y-83345262D01*
X154084823Y-83348871D01*
X154084823Y-83348873D01*
X154088404Y-83391519D01*
X154101759Y-83550553D01*
X154158544Y-83748586D01*
X154160196Y-83751800D01*
X154160197Y-83751803D01*
X154181106Y-83792487D01*
X154252712Y-83931818D01*
X154380677Y-84093270D01*
X154383430Y-84095613D01*
X154383433Y-84095616D01*
X154414062Y-84121683D01*
X154537564Y-84226791D01*
X154584266Y-84252892D01*
X154714239Y-84325532D01*
X154714243Y-84325534D01*
X154717398Y-84327297D01*
X154720834Y-84328414D01*
X154720840Y-84328416D01*
X154845256Y-84368841D01*
X154913329Y-84390959D01*
X154977176Y-84398572D01*
X155114294Y-84414922D01*
X155114297Y-84414922D01*
X155117894Y-84415351D01*
X155186714Y-84410056D01*
X155319689Y-84399824D01*
X155319691Y-84399824D01*
X155323300Y-84399546D01*
X155480658Y-84355611D01*
X155518244Y-84345117D01*
X155518245Y-84345117D01*
X155521725Y-84344145D01*
X155552863Y-84328416D01*
X155702376Y-84252892D01*
X155702379Y-84252890D01*
X155705610Y-84251258D01*
X155867951Y-84124424D01*
X155918930Y-84065364D01*
X156000201Y-83971210D01*
X156000203Y-83971208D01*
X156002564Y-83968472D01*
X156004347Y-83965333D01*
X156004350Y-83965329D01*
X156059207Y-83868763D01*
X156104323Y-83789344D01*
X156107959Y-83778416D01*
X156168208Y-83597299D01*
X156169351Y-83593863D01*
X156174823Y-83550553D01*
X156194913Y-83391519D01*
X156194913Y-83391513D01*
X156195171Y-83389474D01*
X156195583Y-83360000D01*
X156193785Y-83341657D01*
X156175833Y-83158570D01*
X156175480Y-83154970D01*
X156115935Y-82957749D01*
X156019218Y-82775849D01*
X155989963Y-82739978D01*
X155901701Y-82631759D01*
X155885054Y-82583956D01*
X155903029Y-82536636D01*
X155947216Y-82511941D01*
X155959047Y-82510989D01*
X156862322Y-82510989D01*
X156909888Y-82528302D01*
X156935198Y-82572139D01*
X156926408Y-82621989D01*
X156919009Y-82632555D01*
X156811351Y-82760856D01*
X156811348Y-82760860D01*
X156809024Y-82763630D01*
X156709776Y-82944162D01*
X156708682Y-82947611D01*
X156649879Y-83132983D01*
X156647484Y-83140532D01*
X156647081Y-83144123D01*
X156647081Y-83144124D01*
X156645461Y-83158570D01*
X156624520Y-83345262D01*
X156624823Y-83348871D01*
X156624823Y-83348873D01*
X156628404Y-83391519D01*
X156641759Y-83550553D01*
X156698544Y-83748586D01*
X156700196Y-83751800D01*
X156700197Y-83751803D01*
X156721106Y-83792487D01*
X156792712Y-83931818D01*
X156920677Y-84093270D01*
X156923430Y-84095613D01*
X156923433Y-84095616D01*
X156954062Y-84121683D01*
X157077564Y-84226791D01*
X157124266Y-84252892D01*
X157254239Y-84325532D01*
X157254243Y-84325534D01*
X157257398Y-84327297D01*
X157260834Y-84328414D01*
X157260840Y-84328416D01*
X157385256Y-84368841D01*
X157453329Y-84390959D01*
X157517176Y-84398572D01*
X157654294Y-84414922D01*
X157654297Y-84414922D01*
X157657894Y-84415351D01*
X157726714Y-84410056D01*
X157859689Y-84399824D01*
X157859691Y-84399824D01*
X157863300Y-84399546D01*
X158020658Y-84355611D01*
X158058244Y-84345117D01*
X158058245Y-84345117D01*
X158061725Y-84344145D01*
X158092863Y-84328416D01*
X158242376Y-84252892D01*
X158242379Y-84252890D01*
X158245610Y-84251258D01*
X158407951Y-84124424D01*
X158458930Y-84065364D01*
X158540201Y-83971210D01*
X158540203Y-83971208D01*
X158542564Y-83968472D01*
X158544347Y-83965333D01*
X158544350Y-83965329D01*
X158599207Y-83868763D01*
X158644323Y-83789344D01*
X158647959Y-83778416D01*
X158708208Y-83597299D01*
X158709351Y-83593863D01*
X158714823Y-83550553D01*
X158734913Y-83391519D01*
X158734913Y-83391513D01*
X158735171Y-83389474D01*
X158735583Y-83360000D01*
X158733785Y-83341657D01*
X158715833Y-83158570D01*
X158715480Y-83154970D01*
X158655935Y-82957749D01*
X158559218Y-82775849D01*
X158529963Y-82739978D01*
X158441701Y-82631759D01*
X158425054Y-82583956D01*
X158443029Y-82536636D01*
X158487216Y-82511941D01*
X158499047Y-82510989D01*
X159402322Y-82510989D01*
X159449888Y-82528302D01*
X159475198Y-82572139D01*
X159466408Y-82621989D01*
X159459009Y-82632555D01*
X159351351Y-82760856D01*
X159351348Y-82760860D01*
X159349024Y-82763630D01*
X159249776Y-82944162D01*
X159248682Y-82947611D01*
X159189879Y-83132983D01*
X159187484Y-83140532D01*
X159187081Y-83144123D01*
X159187081Y-83144124D01*
X159185461Y-83158570D01*
X159164520Y-83345262D01*
X159164823Y-83348871D01*
X159164823Y-83348873D01*
X159168404Y-83391519D01*
X159181759Y-83550553D01*
X159238544Y-83748586D01*
X159240196Y-83751800D01*
X159240197Y-83751803D01*
X159261106Y-83792487D01*
X159332712Y-83931818D01*
X159460677Y-84093270D01*
X159463430Y-84095613D01*
X159463433Y-84095616D01*
X159494062Y-84121683D01*
X159617564Y-84226791D01*
X159664266Y-84252892D01*
X159794239Y-84325532D01*
X159794243Y-84325534D01*
X159797398Y-84327297D01*
X159800834Y-84328414D01*
X159800840Y-84328416D01*
X159925256Y-84368841D01*
X159993329Y-84390959D01*
X160057176Y-84398572D01*
X160194294Y-84414922D01*
X160194297Y-84414922D01*
X160197894Y-84415351D01*
X160266714Y-84410056D01*
X160399689Y-84399824D01*
X160399691Y-84399824D01*
X160403300Y-84399546D01*
X160560658Y-84355611D01*
X160598244Y-84345117D01*
X160598245Y-84345117D01*
X160601725Y-84344145D01*
X160632863Y-84328416D01*
X160782376Y-84252892D01*
X160782379Y-84252890D01*
X160785610Y-84251258D01*
X160947951Y-84124424D01*
X160998930Y-84065364D01*
X161080201Y-83971210D01*
X161080203Y-83971208D01*
X161082564Y-83968472D01*
X161084347Y-83965333D01*
X161084350Y-83965329D01*
X161139207Y-83868763D01*
X161184323Y-83789344D01*
X161187959Y-83778416D01*
X161248208Y-83597299D01*
X161249351Y-83593863D01*
X161254823Y-83550553D01*
X161274913Y-83391519D01*
X161274913Y-83391513D01*
X161275171Y-83389474D01*
X161275583Y-83360000D01*
X161273785Y-83341657D01*
X161255833Y-83158570D01*
X161255480Y-83154970D01*
X161195935Y-82957749D01*
X161099218Y-82775849D01*
X161069963Y-82739978D01*
X160981701Y-82631759D01*
X160965054Y-82583956D01*
X160983029Y-82536636D01*
X161027216Y-82511941D01*
X161039047Y-82510989D01*
X161942322Y-82510989D01*
X161989888Y-82528302D01*
X162015198Y-82572139D01*
X162006408Y-82621989D01*
X161999009Y-82632555D01*
X161891351Y-82760856D01*
X161891348Y-82760860D01*
X161889024Y-82763630D01*
X161789776Y-82944162D01*
X161788682Y-82947611D01*
X161729879Y-83132983D01*
X161727484Y-83140532D01*
X161727081Y-83144123D01*
X161727081Y-83144124D01*
X161725461Y-83158570D01*
X161704520Y-83345262D01*
X161704823Y-83348871D01*
X161704823Y-83348873D01*
X161708404Y-83391519D01*
X161721759Y-83550553D01*
X161778544Y-83748586D01*
X161780196Y-83751800D01*
X161780197Y-83751803D01*
X161801106Y-83792487D01*
X161872712Y-83931818D01*
X162000677Y-84093270D01*
X162003430Y-84095613D01*
X162003433Y-84095616D01*
X162034062Y-84121683D01*
X162157564Y-84226791D01*
X162204266Y-84252892D01*
X162334239Y-84325532D01*
X162334243Y-84325534D01*
X162337398Y-84327297D01*
X162340834Y-84328414D01*
X162340840Y-84328416D01*
X162465256Y-84368841D01*
X162533329Y-84390959D01*
X162597176Y-84398572D01*
X162734294Y-84414922D01*
X162734297Y-84414922D01*
X162737894Y-84415351D01*
X162806714Y-84410056D01*
X162939689Y-84399824D01*
X162939691Y-84399824D01*
X162943300Y-84399546D01*
X163100658Y-84355611D01*
X163138244Y-84345117D01*
X163138245Y-84345117D01*
X163141725Y-84344145D01*
X163172863Y-84328416D01*
X163322376Y-84252892D01*
X163322379Y-84252890D01*
X163325610Y-84251258D01*
X163487951Y-84124424D01*
X163538930Y-84065364D01*
X163620201Y-83971210D01*
X163620203Y-83971208D01*
X163622564Y-83968472D01*
X163624347Y-83965333D01*
X163624350Y-83965329D01*
X163679207Y-83868763D01*
X163724323Y-83789344D01*
X163727959Y-83778416D01*
X163788208Y-83597299D01*
X163789351Y-83593863D01*
X163794823Y-83550553D01*
X163814913Y-83391519D01*
X163814913Y-83391513D01*
X163815171Y-83389474D01*
X163815583Y-83360000D01*
X163813785Y-83341657D01*
X163795833Y-83158570D01*
X163795480Y-83154970D01*
X163735935Y-82957749D01*
X163639218Y-82775849D01*
X163609963Y-82739978D01*
X163521701Y-82631759D01*
X163505054Y-82583956D01*
X163523029Y-82536636D01*
X163567216Y-82511941D01*
X163579047Y-82510989D01*
X164482322Y-82510989D01*
X164529888Y-82528302D01*
X164555198Y-82572139D01*
X164546408Y-82621989D01*
X164539009Y-82632555D01*
X164431351Y-82760856D01*
X164431348Y-82760860D01*
X164429024Y-82763630D01*
X164329776Y-82944162D01*
X164328682Y-82947611D01*
X164269879Y-83132983D01*
X164267484Y-83140532D01*
X164267081Y-83144123D01*
X164267081Y-83144124D01*
X164265461Y-83158570D01*
X164244520Y-83345262D01*
X164244823Y-83348871D01*
X164244823Y-83348873D01*
X164248404Y-83391519D01*
X164261759Y-83550553D01*
X164318544Y-83748586D01*
X164320196Y-83751800D01*
X164320197Y-83751803D01*
X164341106Y-83792487D01*
X164412712Y-83931818D01*
X164540677Y-84093270D01*
X164543430Y-84095613D01*
X164543433Y-84095616D01*
X164574062Y-84121683D01*
X164697564Y-84226791D01*
X164744266Y-84252892D01*
X164874239Y-84325532D01*
X164874243Y-84325534D01*
X164877398Y-84327297D01*
X164880834Y-84328414D01*
X164880840Y-84328416D01*
X165005256Y-84368841D01*
X165073329Y-84390959D01*
X165107154Y-84394992D01*
X165157243Y-84400965D01*
X165202425Y-84423787D01*
X165222366Y-84470313D01*
X165207735Y-84518772D01*
X165165379Y-84546489D01*
X165159674Y-84547593D01*
X164987212Y-84573983D01*
X164981316Y-84575388D01*
X164774834Y-84642876D01*
X164769260Y-84645220D01*
X164576563Y-84745531D01*
X164571451Y-84748750D01*
X164397728Y-84879186D01*
X164393199Y-84883207D01*
X164243115Y-85040260D01*
X164239308Y-85044962D01*
X164116895Y-85224413D01*
X164113896Y-85229691D01*
X164022440Y-85426717D01*
X164020347Y-85432406D01*
X163962293Y-85641739D01*
X163961159Y-85647685D01*
X163949086Y-85760660D01*
X163926817Y-85806118D01*
X163880538Y-85826626D01*
X163831905Y-85812588D01*
X163803672Y-85770574D01*
X163801858Y-85760018D01*
X163795833Y-85698570D01*
X163795480Y-85694970D01*
X163735935Y-85497749D01*
X163639218Y-85315849D01*
X163509011Y-85156200D01*
X163350275Y-85024882D01*
X163339384Y-85018993D01*
X163172238Y-84928618D01*
X163169055Y-84926897D01*
X163165605Y-84925829D01*
X163165600Y-84925827D01*
X163014925Y-84879186D01*
X162972254Y-84865977D01*
X162767369Y-84844443D01*
X162763765Y-84844771D01*
X162763764Y-84844771D01*
X162763215Y-84844821D01*
X162562203Y-84863114D01*
X162513247Y-84877522D01*
X162368043Y-84920258D01*
X162368039Y-84920260D01*
X162364572Y-84921280D01*
X162295971Y-84957144D01*
X162185209Y-85015049D01*
X162185206Y-85015051D01*
X162182002Y-85016726D01*
X162179184Y-85018992D01*
X162179182Y-85018993D01*
X162024266Y-85143548D01*
X162024263Y-85143551D01*
X162021447Y-85145815D01*
X162019121Y-85148587D01*
X162019119Y-85148589D01*
X161891351Y-85300856D01*
X161891348Y-85300860D01*
X161889024Y-85303630D01*
X161789776Y-85484162D01*
X161788682Y-85487611D01*
X161730053Y-85672434D01*
X161727484Y-85680532D01*
X161727081Y-85684123D01*
X161727081Y-85684124D01*
X161725461Y-85698570D01*
X161704520Y-85885262D01*
X161704823Y-85888871D01*
X161704823Y-85888873D01*
X161709831Y-85948506D01*
X161721759Y-86090553D01*
X161778544Y-86288586D01*
X161780196Y-86291800D01*
X161780197Y-86291803D01*
X161835142Y-86398714D01*
X161872712Y-86471818D01*
X162000677Y-86633270D01*
X162003430Y-86635613D01*
X162003433Y-86635616D01*
X162006071Y-86637861D01*
X162157564Y-86766791D01*
X162204266Y-86792892D01*
X162334239Y-86865532D01*
X162334243Y-86865534D01*
X162337398Y-86867297D01*
X162340834Y-86868414D01*
X162340840Y-86868416D01*
X162465256Y-86908841D01*
X162533329Y-86930959D01*
X162597176Y-86938572D01*
X162734294Y-86954922D01*
X162734297Y-86954922D01*
X162737894Y-86955351D01*
X162806714Y-86950056D01*
X162939689Y-86939824D01*
X162939691Y-86939824D01*
X162943300Y-86939546D01*
X163141725Y-86884145D01*
X163158808Y-86875516D01*
X163322376Y-86792892D01*
X163322379Y-86792890D01*
X163325610Y-86791258D01*
X163487951Y-86664424D01*
X163544339Y-86599097D01*
X163620201Y-86511210D01*
X163620203Y-86511208D01*
X163622564Y-86508472D01*
X163624347Y-86505333D01*
X163624350Y-86505329D01*
X163711739Y-86351495D01*
X163724323Y-86329344D01*
X163736812Y-86291803D01*
X163788208Y-86137299D01*
X163789351Y-86133863D01*
X163789805Y-86130269D01*
X163789808Y-86130256D01*
X163800888Y-86042548D01*
X163824025Y-85997527D01*
X163870689Y-85977911D01*
X163919044Y-85992880D01*
X163946465Y-86035429D01*
X163948181Y-86047564D01*
X163950432Y-86086618D01*
X163951272Y-86092598D01*
X163999035Y-86304533D01*
X164000843Y-86310301D01*
X164082569Y-86511571D01*
X164085304Y-86516984D01*
X164198802Y-86702197D01*
X164202383Y-86707090D01*
X164344614Y-86871285D01*
X164348934Y-86875516D01*
X164516079Y-87014282D01*
X164521038Y-87017755D01*
X164708591Y-87127352D01*
X164714056Y-87129970D01*
X164916987Y-87207462D01*
X164922819Y-87209156D01*
X165033213Y-87231615D01*
X165043734Y-87230043D01*
X165045946Y-87227543D01*
X165046000Y-87227256D01*
X165046000Y-85720000D01*
X165063313Y-85672434D01*
X165107150Y-85647124D01*
X165120000Y-85646000D01*
X165480000Y-85646000D01*
X165527566Y-85663313D01*
X165552876Y-85707150D01*
X165554000Y-85720000D01*
X165554000Y-87223584D01*
X165557638Y-87233580D01*
X165561304Y-87235696D01*
X165580304Y-87233262D01*
X165586214Y-87232006D01*
X165794296Y-87169579D01*
X165799925Y-87167372D01*
X165995010Y-87071801D01*
X166000208Y-87068702D01*
X166177073Y-86942547D01*
X166181680Y-86938654D01*
X166335560Y-86785309D01*
X166339489Y-86780692D01*
X166466250Y-86604285D01*
X166469367Y-86599097D01*
X166565616Y-86404354D01*
X166567849Y-86398714D01*
X166630998Y-86190866D01*
X166632276Y-86184957D01*
X166650956Y-86043067D01*
X166674329Y-85998167D01*
X166721095Y-85978796D01*
X166769371Y-85994018D01*
X166796569Y-86036710D01*
X166798061Y-86046513D01*
X166801759Y-86090553D01*
X166858544Y-86288586D01*
X166860196Y-86291800D01*
X166860197Y-86291803D01*
X166915142Y-86398714D01*
X166952712Y-86471818D01*
X167080677Y-86633270D01*
X167083430Y-86635613D01*
X167083433Y-86635616D01*
X167086071Y-86637861D01*
X167237564Y-86766791D01*
X167284266Y-86792892D01*
X167414239Y-86865532D01*
X167414243Y-86865534D01*
X167417398Y-86867297D01*
X167420834Y-86868414D01*
X167420840Y-86868416D01*
X167545256Y-86908841D01*
X167613329Y-86930959D01*
X167677176Y-86938572D01*
X167814294Y-86954922D01*
X167814297Y-86954922D01*
X167817894Y-86955351D01*
X167886714Y-86950056D01*
X168019689Y-86939824D01*
X168019691Y-86939824D01*
X168023300Y-86939546D01*
X168221725Y-86884145D01*
X168238808Y-86875516D01*
X168402376Y-86792892D01*
X168402379Y-86792890D01*
X168405610Y-86791258D01*
X168567951Y-86664424D01*
X168624339Y-86599097D01*
X168700201Y-86511210D01*
X168700203Y-86511208D01*
X168702564Y-86508472D01*
X168704347Y-86505333D01*
X168704350Y-86505329D01*
X168791739Y-86351495D01*
X168804323Y-86329344D01*
X168816812Y-86291803D01*
X168868208Y-86137299D01*
X168869351Y-86133863D01*
X168874823Y-86090553D01*
X168894913Y-85931519D01*
X168894913Y-85931513D01*
X168895171Y-85929474D01*
X168895583Y-85900000D01*
X168894138Y-85885262D01*
X169324520Y-85885262D01*
X169324823Y-85888871D01*
X169324823Y-85888873D01*
X169329831Y-85948506D01*
X169341759Y-86090553D01*
X169398544Y-86288586D01*
X169400196Y-86291800D01*
X169400197Y-86291803D01*
X169455142Y-86398714D01*
X169492712Y-86471818D01*
X169620677Y-86633270D01*
X169623430Y-86635613D01*
X169623433Y-86635616D01*
X169626071Y-86637861D01*
X169777564Y-86766791D01*
X169824266Y-86792892D01*
X169954239Y-86865532D01*
X169954243Y-86865534D01*
X169957398Y-86867297D01*
X169960834Y-86868414D01*
X169960840Y-86868416D01*
X170085256Y-86908841D01*
X170153329Y-86930959D01*
X170217176Y-86938572D01*
X170354294Y-86954922D01*
X170354297Y-86954922D01*
X170357894Y-86955351D01*
X170426714Y-86950056D01*
X170559689Y-86939824D01*
X170559691Y-86939824D01*
X170563300Y-86939546D01*
X170761725Y-86884145D01*
X170778808Y-86875516D01*
X170942376Y-86792892D01*
X170942379Y-86792890D01*
X170945610Y-86791258D01*
X171107951Y-86664424D01*
X171164339Y-86599097D01*
X171240201Y-86511210D01*
X171240203Y-86511208D01*
X171242564Y-86508472D01*
X171244347Y-86505333D01*
X171244350Y-86505329D01*
X171331739Y-86351495D01*
X171344323Y-86329344D01*
X171356812Y-86291803D01*
X171408208Y-86137299D01*
X171409351Y-86133863D01*
X171414823Y-86090553D01*
X171434913Y-85931519D01*
X171434913Y-85931513D01*
X171435171Y-85929474D01*
X171435583Y-85900000D01*
X171434138Y-85885262D01*
X171864520Y-85885262D01*
X171864823Y-85888871D01*
X171864823Y-85888873D01*
X171869831Y-85948506D01*
X171881759Y-86090553D01*
X171938544Y-86288586D01*
X171940196Y-86291800D01*
X171940197Y-86291803D01*
X171995142Y-86398714D01*
X172032712Y-86471818D01*
X172160677Y-86633270D01*
X172163430Y-86635613D01*
X172163433Y-86635616D01*
X172166071Y-86637861D01*
X172317564Y-86766791D01*
X172364266Y-86792892D01*
X172494239Y-86865532D01*
X172494243Y-86865534D01*
X172497398Y-86867297D01*
X172500834Y-86868414D01*
X172500840Y-86868416D01*
X172625256Y-86908841D01*
X172693329Y-86930959D01*
X172757176Y-86938572D01*
X172894294Y-86954922D01*
X172894297Y-86954922D01*
X172897894Y-86955351D01*
X172966714Y-86950056D01*
X173099689Y-86939824D01*
X173099691Y-86939824D01*
X173103300Y-86939546D01*
X173301725Y-86884145D01*
X173318808Y-86875516D01*
X173482376Y-86792892D01*
X173482379Y-86792890D01*
X173485610Y-86791258D01*
X173647951Y-86664424D01*
X173704339Y-86599097D01*
X173780201Y-86511210D01*
X173780203Y-86511208D01*
X173782564Y-86508472D01*
X173784347Y-86505333D01*
X173784350Y-86505329D01*
X173871739Y-86351495D01*
X173884323Y-86329344D01*
X173896812Y-86291803D01*
X173948208Y-86137299D01*
X173949351Y-86133863D01*
X173954823Y-86090553D01*
X173974913Y-85931519D01*
X173974913Y-85931513D01*
X173975171Y-85929474D01*
X173975583Y-85900000D01*
X173974138Y-85885262D01*
X174404520Y-85885262D01*
X174404823Y-85888871D01*
X174404823Y-85888873D01*
X174409831Y-85948506D01*
X174421759Y-86090553D01*
X174478544Y-86288586D01*
X174480196Y-86291800D01*
X174480197Y-86291803D01*
X174535142Y-86398714D01*
X174572712Y-86471818D01*
X174700677Y-86633270D01*
X174703430Y-86635613D01*
X174703433Y-86635616D01*
X174706071Y-86637861D01*
X174857564Y-86766791D01*
X174904266Y-86792892D01*
X175034239Y-86865532D01*
X175034243Y-86865534D01*
X175037398Y-86867297D01*
X175040834Y-86868414D01*
X175040840Y-86868416D01*
X175165256Y-86908841D01*
X175233329Y-86930959D01*
X175297176Y-86938572D01*
X175434294Y-86954922D01*
X175434297Y-86954922D01*
X175437894Y-86955351D01*
X175506714Y-86950056D01*
X175639689Y-86939824D01*
X175639691Y-86939824D01*
X175643300Y-86939546D01*
X175841725Y-86884145D01*
X175858808Y-86875516D01*
X176022376Y-86792892D01*
X176022379Y-86792890D01*
X176025610Y-86791258D01*
X176187951Y-86664424D01*
X176244339Y-86599097D01*
X176320201Y-86511210D01*
X176320203Y-86511208D01*
X176322564Y-86508472D01*
X176324347Y-86505333D01*
X176324350Y-86505329D01*
X176411739Y-86351495D01*
X176424323Y-86329344D01*
X176436812Y-86291803D01*
X176488208Y-86137299D01*
X176489351Y-86133863D01*
X176494823Y-86090553D01*
X176514913Y-85931519D01*
X176514913Y-85931513D01*
X176515171Y-85929474D01*
X176515583Y-85900000D01*
X176514138Y-85885262D01*
X176944520Y-85885262D01*
X176944823Y-85888871D01*
X176944823Y-85888873D01*
X176949831Y-85948506D01*
X176961759Y-86090553D01*
X177018544Y-86288586D01*
X177020196Y-86291800D01*
X177020197Y-86291803D01*
X177075142Y-86398714D01*
X177112712Y-86471818D01*
X177240677Y-86633270D01*
X177243430Y-86635613D01*
X177243433Y-86635616D01*
X177246071Y-86637861D01*
X177397564Y-86766791D01*
X177444266Y-86792892D01*
X177574239Y-86865532D01*
X177574243Y-86865534D01*
X177577398Y-86867297D01*
X177580834Y-86868414D01*
X177580840Y-86868416D01*
X177705256Y-86908841D01*
X177773329Y-86930959D01*
X177837176Y-86938572D01*
X177974294Y-86954922D01*
X177974297Y-86954922D01*
X177977894Y-86955351D01*
X178046714Y-86950056D01*
X178179689Y-86939824D01*
X178179691Y-86939824D01*
X178183300Y-86939546D01*
X178381725Y-86884145D01*
X178398808Y-86875516D01*
X178562376Y-86792892D01*
X178562379Y-86792890D01*
X178565610Y-86791258D01*
X178727951Y-86664424D01*
X178784339Y-86599097D01*
X178860201Y-86511210D01*
X178860203Y-86511208D01*
X178862564Y-86508472D01*
X178864347Y-86505333D01*
X178864350Y-86505329D01*
X178951739Y-86351495D01*
X178964323Y-86329344D01*
X178976812Y-86291803D01*
X179028208Y-86137299D01*
X179029351Y-86133863D01*
X179034823Y-86090553D01*
X179054913Y-85931519D01*
X179054913Y-85931513D01*
X179055171Y-85929474D01*
X179055583Y-85900000D01*
X179052967Y-85873312D01*
X179035833Y-85698570D01*
X179035480Y-85694970D01*
X178975935Y-85497749D01*
X178879218Y-85315849D01*
X178749011Y-85156200D01*
X178590275Y-85024882D01*
X178579384Y-85018993D01*
X178412238Y-84928618D01*
X178409055Y-84926897D01*
X178405605Y-84925829D01*
X178405600Y-84925827D01*
X178254925Y-84879186D01*
X178212254Y-84865977D01*
X178007369Y-84844443D01*
X178003765Y-84844771D01*
X178003764Y-84844771D01*
X178003215Y-84844821D01*
X177802203Y-84863114D01*
X177753247Y-84877522D01*
X177608043Y-84920258D01*
X177608039Y-84920260D01*
X177604572Y-84921280D01*
X177535971Y-84957144D01*
X177425209Y-85015049D01*
X177425206Y-85015051D01*
X177422002Y-85016726D01*
X177419184Y-85018992D01*
X177419182Y-85018993D01*
X177264266Y-85143548D01*
X177264263Y-85143551D01*
X177261447Y-85145815D01*
X177259121Y-85148587D01*
X177259119Y-85148589D01*
X177131351Y-85300856D01*
X177131348Y-85300860D01*
X177129024Y-85303630D01*
X177029776Y-85484162D01*
X177028682Y-85487611D01*
X176970053Y-85672434D01*
X176967484Y-85680532D01*
X176967081Y-85684123D01*
X176967081Y-85684124D01*
X176965461Y-85698570D01*
X176944520Y-85885262D01*
X176514138Y-85885262D01*
X176512967Y-85873312D01*
X176495833Y-85698570D01*
X176495480Y-85694970D01*
X176435935Y-85497749D01*
X176339218Y-85315849D01*
X176209011Y-85156200D01*
X176050275Y-85024882D01*
X176039384Y-85018993D01*
X175872238Y-84928618D01*
X175869055Y-84926897D01*
X175865605Y-84925829D01*
X175865600Y-84925827D01*
X175714925Y-84879186D01*
X175672254Y-84865977D01*
X175467369Y-84844443D01*
X175463765Y-84844771D01*
X175463764Y-84844771D01*
X175463215Y-84844821D01*
X175262203Y-84863114D01*
X175213247Y-84877522D01*
X175068043Y-84920258D01*
X175068039Y-84920260D01*
X175064572Y-84921280D01*
X174995971Y-84957144D01*
X174885209Y-85015049D01*
X174885206Y-85015051D01*
X174882002Y-85016726D01*
X174879184Y-85018992D01*
X174879182Y-85018993D01*
X174724266Y-85143548D01*
X174724263Y-85143551D01*
X174721447Y-85145815D01*
X174719121Y-85148587D01*
X174719119Y-85148589D01*
X174591351Y-85300856D01*
X174591348Y-85300860D01*
X174589024Y-85303630D01*
X174489776Y-85484162D01*
X174488682Y-85487611D01*
X174430053Y-85672434D01*
X174427484Y-85680532D01*
X174427081Y-85684123D01*
X174427081Y-85684124D01*
X174425461Y-85698570D01*
X174404520Y-85885262D01*
X173974138Y-85885262D01*
X173972967Y-85873312D01*
X173955833Y-85698570D01*
X173955480Y-85694970D01*
X173895935Y-85497749D01*
X173799218Y-85315849D01*
X173669011Y-85156200D01*
X173510275Y-85024882D01*
X173499384Y-85018993D01*
X173332238Y-84928618D01*
X173329055Y-84926897D01*
X173325605Y-84925829D01*
X173325600Y-84925827D01*
X173174925Y-84879186D01*
X173132254Y-84865977D01*
X172927369Y-84844443D01*
X172923765Y-84844771D01*
X172923764Y-84844771D01*
X172923215Y-84844821D01*
X172722203Y-84863114D01*
X172673247Y-84877522D01*
X172528043Y-84920258D01*
X172528039Y-84920260D01*
X172524572Y-84921280D01*
X172455971Y-84957144D01*
X172345209Y-85015049D01*
X172345206Y-85015051D01*
X172342002Y-85016726D01*
X172339184Y-85018992D01*
X172339182Y-85018993D01*
X172184266Y-85143548D01*
X172184263Y-85143551D01*
X172181447Y-85145815D01*
X172179121Y-85148587D01*
X172179119Y-85148589D01*
X172051351Y-85300856D01*
X172051348Y-85300860D01*
X172049024Y-85303630D01*
X171949776Y-85484162D01*
X171948682Y-85487611D01*
X171890053Y-85672434D01*
X171887484Y-85680532D01*
X171887081Y-85684123D01*
X171887081Y-85684124D01*
X171885461Y-85698570D01*
X171864520Y-85885262D01*
X171434138Y-85885262D01*
X171432967Y-85873312D01*
X171415833Y-85698570D01*
X171415480Y-85694970D01*
X171355935Y-85497749D01*
X171259218Y-85315849D01*
X171129011Y-85156200D01*
X170970275Y-85024882D01*
X170959384Y-85018993D01*
X170792238Y-84928618D01*
X170789055Y-84926897D01*
X170785605Y-84925829D01*
X170785600Y-84925827D01*
X170634925Y-84879186D01*
X170592254Y-84865977D01*
X170387369Y-84844443D01*
X170383765Y-84844771D01*
X170383764Y-84844771D01*
X170383215Y-84844821D01*
X170182203Y-84863114D01*
X170133247Y-84877522D01*
X169988043Y-84920258D01*
X169988039Y-84920260D01*
X169984572Y-84921280D01*
X169915971Y-84957144D01*
X169805209Y-85015049D01*
X169805206Y-85015051D01*
X169802002Y-85016726D01*
X169799184Y-85018992D01*
X169799182Y-85018993D01*
X169644266Y-85143548D01*
X169644263Y-85143551D01*
X169641447Y-85145815D01*
X169639121Y-85148587D01*
X169639119Y-85148589D01*
X169511351Y-85300856D01*
X169511348Y-85300860D01*
X169509024Y-85303630D01*
X169409776Y-85484162D01*
X169408682Y-85487611D01*
X169350053Y-85672434D01*
X169347484Y-85680532D01*
X169347081Y-85684123D01*
X169347081Y-85684124D01*
X169345461Y-85698570D01*
X169324520Y-85885262D01*
X168894138Y-85885262D01*
X168892967Y-85873312D01*
X168875833Y-85698570D01*
X168875480Y-85694970D01*
X168815935Y-85497749D01*
X168719218Y-85315849D01*
X168589011Y-85156200D01*
X168430275Y-85024882D01*
X168419384Y-85018993D01*
X168252238Y-84928618D01*
X168249055Y-84926897D01*
X168245605Y-84925829D01*
X168245600Y-84925827D01*
X168094925Y-84879186D01*
X168052254Y-84865977D01*
X167847369Y-84844443D01*
X167843765Y-84844771D01*
X167843764Y-84844771D01*
X167843215Y-84844821D01*
X167642203Y-84863114D01*
X167593247Y-84877522D01*
X167448043Y-84920258D01*
X167448039Y-84920260D01*
X167444572Y-84921280D01*
X167375971Y-84957144D01*
X167265209Y-85015049D01*
X167265206Y-85015051D01*
X167262002Y-85016726D01*
X167259184Y-85018992D01*
X167259182Y-85018993D01*
X167104266Y-85143548D01*
X167104263Y-85143551D01*
X167101447Y-85145815D01*
X167099121Y-85148587D01*
X167099119Y-85148589D01*
X166971351Y-85300856D01*
X166971348Y-85300860D01*
X166969024Y-85303630D01*
X166869776Y-85484162D01*
X166868682Y-85487611D01*
X166810053Y-85672434D01*
X166807484Y-85680532D01*
X166807081Y-85684123D01*
X166807081Y-85684124D01*
X166798388Y-85761625D01*
X166775881Y-85806965D01*
X166729496Y-85827230D01*
X166680936Y-85812938D01*
X166652924Y-85770777D01*
X166651098Y-85759439D01*
X166644606Y-85680471D01*
X166643617Y-85674495D01*
X166590694Y-85463803D01*
X166588748Y-85458087D01*
X166502120Y-85258856D01*
X166499266Y-85253532D01*
X166381265Y-85071131D01*
X166377575Y-85066339D01*
X166231370Y-84905663D01*
X166226945Y-84901536D01*
X166056460Y-84766896D01*
X166051425Y-84763551D01*
X165861245Y-84658565D01*
X165855717Y-84656081D01*
X165650954Y-84583570D01*
X165645087Y-84582020D01*
X165453572Y-84547907D01*
X165409779Y-84522522D01*
X165392549Y-84474925D01*
X165409945Y-84427389D01*
X165453826Y-84402156D01*
X165460871Y-84401272D01*
X165479690Y-84399824D01*
X165479692Y-84399824D01*
X165483300Y-84399546D01*
X165640658Y-84355611D01*
X165678244Y-84345117D01*
X165678245Y-84345117D01*
X165681725Y-84344145D01*
X165712863Y-84328416D01*
X165862376Y-84252892D01*
X165862379Y-84252890D01*
X165865610Y-84251258D01*
X166027951Y-84124424D01*
X166078930Y-84065364D01*
X166160201Y-83971210D01*
X166160203Y-83971208D01*
X166162564Y-83968472D01*
X166164347Y-83965333D01*
X166164350Y-83965329D01*
X166219207Y-83868763D01*
X166264323Y-83789344D01*
X166267959Y-83778416D01*
X166328208Y-83597299D01*
X166329351Y-83593863D01*
X166334823Y-83550553D01*
X166354913Y-83391519D01*
X166354913Y-83391513D01*
X166355171Y-83389474D01*
X166355583Y-83360000D01*
X166353785Y-83341657D01*
X166335833Y-83158570D01*
X166335480Y-83154970D01*
X166275935Y-82957749D01*
X166179218Y-82775849D01*
X166149963Y-82739978D01*
X166061701Y-82631759D01*
X166045054Y-82583956D01*
X166063029Y-82536636D01*
X166107216Y-82511941D01*
X166119047Y-82510989D01*
X167022322Y-82510989D01*
X167069888Y-82528302D01*
X167095198Y-82572139D01*
X167086408Y-82621989D01*
X167079009Y-82632555D01*
X166971351Y-82760856D01*
X166971348Y-82760860D01*
X166969024Y-82763630D01*
X166869776Y-82944162D01*
X166868682Y-82947611D01*
X166809879Y-83132983D01*
X166807484Y-83140532D01*
X166807081Y-83144123D01*
X166807081Y-83144124D01*
X166805461Y-83158570D01*
X166784520Y-83345262D01*
X166784823Y-83348871D01*
X166784823Y-83348873D01*
X166788404Y-83391519D01*
X166801759Y-83550553D01*
X166858544Y-83748586D01*
X166860196Y-83751800D01*
X166860197Y-83751803D01*
X166881106Y-83792487D01*
X166952712Y-83931818D01*
X167080677Y-84093270D01*
X167083430Y-84095613D01*
X167083433Y-84095616D01*
X167114062Y-84121683D01*
X167237564Y-84226791D01*
X167284266Y-84252892D01*
X167414239Y-84325532D01*
X167414243Y-84325534D01*
X167417398Y-84327297D01*
X167420834Y-84328414D01*
X167420840Y-84328416D01*
X167545256Y-84368841D01*
X167613329Y-84390959D01*
X167677176Y-84398572D01*
X167814294Y-84414922D01*
X167814297Y-84414922D01*
X167817894Y-84415351D01*
X167886714Y-84410056D01*
X168019689Y-84399824D01*
X168019691Y-84399824D01*
X168023300Y-84399546D01*
X168180658Y-84355611D01*
X168218244Y-84345117D01*
X168218245Y-84345117D01*
X168221725Y-84344145D01*
X168252863Y-84328416D01*
X168402376Y-84252892D01*
X168402379Y-84252890D01*
X168405610Y-84251258D01*
X168567951Y-84124424D01*
X168618930Y-84065364D01*
X168700201Y-83971210D01*
X168700203Y-83971208D01*
X168702564Y-83968472D01*
X168704347Y-83965333D01*
X168704350Y-83965329D01*
X168759207Y-83868763D01*
X168804323Y-83789344D01*
X168807959Y-83778416D01*
X168868208Y-83597299D01*
X168869351Y-83593863D01*
X168874823Y-83550553D01*
X168894913Y-83391519D01*
X168894913Y-83391513D01*
X168895171Y-83389474D01*
X168895583Y-83360000D01*
X168893785Y-83341657D01*
X168875833Y-83158570D01*
X168875480Y-83154970D01*
X168815935Y-82957749D01*
X168719218Y-82775849D01*
X168689963Y-82739978D01*
X168601701Y-82631759D01*
X168585054Y-82583956D01*
X168603029Y-82536636D01*
X168647216Y-82511941D01*
X168659047Y-82510989D01*
X169562322Y-82510989D01*
X169609888Y-82528302D01*
X169635198Y-82572139D01*
X169626408Y-82621989D01*
X169619009Y-82632555D01*
X169511351Y-82760856D01*
X169511348Y-82760860D01*
X169509024Y-82763630D01*
X169409776Y-82944162D01*
X169408682Y-82947611D01*
X169349879Y-83132983D01*
X169347484Y-83140532D01*
X169347081Y-83144123D01*
X169347081Y-83144124D01*
X169345461Y-83158570D01*
X169324520Y-83345262D01*
X169324823Y-83348871D01*
X169324823Y-83348873D01*
X169328404Y-83391519D01*
X169341759Y-83550553D01*
X169398544Y-83748586D01*
X169400196Y-83751800D01*
X169400197Y-83751803D01*
X169421106Y-83792487D01*
X169492712Y-83931818D01*
X169620677Y-84093270D01*
X169623430Y-84095613D01*
X169623433Y-84095616D01*
X169654062Y-84121683D01*
X169777564Y-84226791D01*
X169824266Y-84252892D01*
X169954239Y-84325532D01*
X169954243Y-84325534D01*
X169957398Y-84327297D01*
X169960834Y-84328414D01*
X169960840Y-84328416D01*
X170085256Y-84368841D01*
X170153329Y-84390959D01*
X170217176Y-84398572D01*
X170354294Y-84414922D01*
X170354297Y-84414922D01*
X170357894Y-84415351D01*
X170426714Y-84410056D01*
X170559689Y-84399824D01*
X170559691Y-84399824D01*
X170563300Y-84399546D01*
X170720658Y-84355611D01*
X170758244Y-84345117D01*
X170758245Y-84345117D01*
X170761725Y-84344145D01*
X170792863Y-84328416D01*
X170942376Y-84252892D01*
X170942379Y-84252890D01*
X170945610Y-84251258D01*
X171107951Y-84124424D01*
X171158930Y-84065364D01*
X171240201Y-83971210D01*
X171240203Y-83971208D01*
X171242564Y-83968472D01*
X171244347Y-83965333D01*
X171244350Y-83965329D01*
X171299207Y-83868763D01*
X171344323Y-83789344D01*
X171347959Y-83778416D01*
X171408208Y-83597299D01*
X171409351Y-83593863D01*
X171414823Y-83550553D01*
X171434913Y-83391519D01*
X171434913Y-83391513D01*
X171435171Y-83389474D01*
X171435583Y-83360000D01*
X171433785Y-83341657D01*
X171415833Y-83158570D01*
X171415480Y-83154970D01*
X171355935Y-82957749D01*
X171259218Y-82775849D01*
X171229963Y-82739978D01*
X171141701Y-82631759D01*
X171125054Y-82583956D01*
X171143029Y-82536636D01*
X171187216Y-82511941D01*
X171199047Y-82510989D01*
X172102322Y-82510989D01*
X172149888Y-82528302D01*
X172175198Y-82572139D01*
X172166408Y-82621989D01*
X172159009Y-82632555D01*
X172051351Y-82760856D01*
X172051348Y-82760860D01*
X172049024Y-82763630D01*
X171949776Y-82944162D01*
X171948682Y-82947611D01*
X171889879Y-83132983D01*
X171887484Y-83140532D01*
X171887081Y-83144123D01*
X171887081Y-83144124D01*
X171885461Y-83158570D01*
X171864520Y-83345262D01*
X171864823Y-83348871D01*
X171864823Y-83348873D01*
X171868404Y-83391519D01*
X171881759Y-83550553D01*
X171938544Y-83748586D01*
X171940196Y-83751800D01*
X171940197Y-83751803D01*
X171961106Y-83792487D01*
X172032712Y-83931818D01*
X172160677Y-84093270D01*
X172163430Y-84095613D01*
X172163433Y-84095616D01*
X172194062Y-84121683D01*
X172317564Y-84226791D01*
X172364266Y-84252892D01*
X172494239Y-84325532D01*
X172494243Y-84325534D01*
X172497398Y-84327297D01*
X172500834Y-84328414D01*
X172500840Y-84328416D01*
X172625256Y-84368841D01*
X172693329Y-84390959D01*
X172757176Y-84398572D01*
X172894294Y-84414922D01*
X172894297Y-84414922D01*
X172897894Y-84415351D01*
X172966714Y-84410056D01*
X173099689Y-84399824D01*
X173099691Y-84399824D01*
X173103300Y-84399546D01*
X173260658Y-84355611D01*
X173298244Y-84345117D01*
X173298245Y-84345117D01*
X173301725Y-84344145D01*
X173332863Y-84328416D01*
X173482376Y-84252892D01*
X173482379Y-84252890D01*
X173485610Y-84251258D01*
X173647951Y-84124424D01*
X173698930Y-84065364D01*
X173780201Y-83971210D01*
X173780203Y-83971208D01*
X173782564Y-83968472D01*
X173784347Y-83965333D01*
X173784350Y-83965329D01*
X173839207Y-83868763D01*
X173884323Y-83789344D01*
X173887959Y-83778416D01*
X173948208Y-83597299D01*
X173949351Y-83593863D01*
X173954823Y-83550553D01*
X173974913Y-83391519D01*
X173974913Y-83391513D01*
X173975171Y-83389474D01*
X173975583Y-83360000D01*
X173973785Y-83341657D01*
X173955833Y-83158570D01*
X173955480Y-83154970D01*
X173895935Y-82957749D01*
X173799218Y-82775849D01*
X173769963Y-82739978D01*
X173681701Y-82631759D01*
X173665054Y-82583956D01*
X173683029Y-82536636D01*
X173727216Y-82511941D01*
X173739047Y-82510989D01*
X174642322Y-82510989D01*
X174689888Y-82528302D01*
X174715198Y-82572139D01*
X174706408Y-82621989D01*
X174699009Y-82632555D01*
X174591351Y-82760856D01*
X174591348Y-82760860D01*
X174589024Y-82763630D01*
X174489776Y-82944162D01*
X174488682Y-82947611D01*
X174429879Y-83132983D01*
X174427484Y-83140532D01*
X174427081Y-83144123D01*
X174427081Y-83144124D01*
X174425461Y-83158570D01*
X174404520Y-83345262D01*
X174404823Y-83348871D01*
X174404823Y-83348873D01*
X174408404Y-83391519D01*
X174421759Y-83550553D01*
X174478544Y-83748586D01*
X174480196Y-83751800D01*
X174480197Y-83751803D01*
X174501106Y-83792487D01*
X174572712Y-83931818D01*
X174700677Y-84093270D01*
X174703430Y-84095613D01*
X174703433Y-84095616D01*
X174734062Y-84121683D01*
X174857564Y-84226791D01*
X174904266Y-84252892D01*
X175034239Y-84325532D01*
X175034243Y-84325534D01*
X175037398Y-84327297D01*
X175040834Y-84328414D01*
X175040840Y-84328416D01*
X175165256Y-84368841D01*
X175233329Y-84390959D01*
X175297176Y-84398572D01*
X175434294Y-84414922D01*
X175434297Y-84414922D01*
X175437894Y-84415351D01*
X175506714Y-84410056D01*
X175639689Y-84399824D01*
X175639691Y-84399824D01*
X175643300Y-84399546D01*
X175800658Y-84355611D01*
X175838244Y-84345117D01*
X175838245Y-84345117D01*
X175841725Y-84344145D01*
X175872863Y-84328416D01*
X176022376Y-84252892D01*
X176022379Y-84252890D01*
X176025610Y-84251258D01*
X176187951Y-84124424D01*
X176238930Y-84065364D01*
X176320201Y-83971210D01*
X176320203Y-83971208D01*
X176322564Y-83968472D01*
X176324347Y-83965333D01*
X176324350Y-83965329D01*
X176379207Y-83868763D01*
X176424323Y-83789344D01*
X176427959Y-83778416D01*
X176488208Y-83597299D01*
X176489351Y-83593863D01*
X176494823Y-83550553D01*
X176514913Y-83391519D01*
X176514913Y-83391513D01*
X176515171Y-83389474D01*
X176515583Y-83360000D01*
X176513785Y-83341657D01*
X176495833Y-83158570D01*
X176495480Y-83154970D01*
X176435935Y-82957749D01*
X176339218Y-82775849D01*
X176309963Y-82739978D01*
X176221701Y-82631759D01*
X176205054Y-82583956D01*
X176223029Y-82536636D01*
X176267216Y-82511941D01*
X176279047Y-82510989D01*
X177182322Y-82510989D01*
X177229888Y-82528302D01*
X177255198Y-82572139D01*
X177246408Y-82621989D01*
X177239009Y-82632555D01*
X177131351Y-82760856D01*
X177131348Y-82760860D01*
X177129024Y-82763630D01*
X177029776Y-82944162D01*
X177028682Y-82947611D01*
X176969879Y-83132983D01*
X176967484Y-83140532D01*
X176967081Y-83144123D01*
X176967081Y-83144124D01*
X176965461Y-83158570D01*
X176944520Y-83345262D01*
X176944823Y-83348871D01*
X176944823Y-83348873D01*
X176948404Y-83391519D01*
X176961759Y-83550553D01*
X177018544Y-83748586D01*
X177020196Y-83751800D01*
X177020197Y-83751803D01*
X177041106Y-83792487D01*
X177112712Y-83931818D01*
X177240677Y-84093270D01*
X177243430Y-84095613D01*
X177243433Y-84095616D01*
X177274062Y-84121683D01*
X177397564Y-84226791D01*
X177444266Y-84252892D01*
X177574239Y-84325532D01*
X177574243Y-84325534D01*
X177577398Y-84327297D01*
X177580834Y-84328414D01*
X177580840Y-84328416D01*
X177705256Y-84368841D01*
X177773329Y-84390959D01*
X177837176Y-84398572D01*
X177974294Y-84414922D01*
X177974297Y-84414922D01*
X177977894Y-84415351D01*
X178046714Y-84410056D01*
X178179689Y-84399824D01*
X178179691Y-84399824D01*
X178183300Y-84399546D01*
X178340658Y-84355611D01*
X178378244Y-84345117D01*
X178378245Y-84345117D01*
X178381725Y-84344145D01*
X178412863Y-84328416D01*
X178562376Y-84252892D01*
X178562379Y-84252890D01*
X178565610Y-84251258D01*
X178727951Y-84124424D01*
X178778930Y-84065364D01*
X178860201Y-83971210D01*
X178860203Y-83971208D01*
X178862564Y-83968472D01*
X178864347Y-83965333D01*
X178864350Y-83965329D01*
X178919207Y-83868763D01*
X178964323Y-83789344D01*
X178967959Y-83778416D01*
X179028208Y-83597299D01*
X179029351Y-83593863D01*
X179034823Y-83550553D01*
X179054913Y-83391519D01*
X179054913Y-83391513D01*
X179055171Y-83389474D01*
X179055583Y-83360000D01*
X179053785Y-83341657D01*
X179035833Y-83158570D01*
X179035480Y-83154970D01*
X178975935Y-82957749D01*
X178879218Y-82775849D01*
X178849963Y-82739978D01*
X178761701Y-82631759D01*
X178745054Y-82583956D01*
X178763029Y-82536636D01*
X178807216Y-82511941D01*
X178819047Y-82510989D01*
X179722322Y-82510989D01*
X179769888Y-82528302D01*
X179795198Y-82572139D01*
X179786408Y-82621989D01*
X179779009Y-82632555D01*
X179671351Y-82760856D01*
X179671348Y-82760860D01*
X179669024Y-82763630D01*
X179569776Y-82944162D01*
X179568682Y-82947611D01*
X179509879Y-83132983D01*
X179507484Y-83140532D01*
X179507081Y-83144123D01*
X179507081Y-83144124D01*
X179505461Y-83158570D01*
X179484520Y-83345262D01*
X179484823Y-83348871D01*
X179484823Y-83348873D01*
X179488404Y-83391519D01*
X179501759Y-83550553D01*
X179558544Y-83748586D01*
X179560196Y-83751800D01*
X179560197Y-83751803D01*
X179581106Y-83792487D01*
X179652712Y-83931818D01*
X179780677Y-84093270D01*
X179783430Y-84095613D01*
X179783433Y-84095616D01*
X179814062Y-84121683D01*
X179937564Y-84226791D01*
X179984266Y-84252892D01*
X180114239Y-84325532D01*
X180114243Y-84325534D01*
X180117398Y-84327297D01*
X180120834Y-84328414D01*
X180120840Y-84328416D01*
X180245256Y-84368841D01*
X180313329Y-84390959D01*
X180377176Y-84398572D01*
X180514294Y-84414922D01*
X180514297Y-84414922D01*
X180517894Y-84415351D01*
X180586714Y-84410056D01*
X180719689Y-84399824D01*
X180719691Y-84399824D01*
X180723300Y-84399546D01*
X180880658Y-84355611D01*
X180918244Y-84345117D01*
X180918245Y-84345117D01*
X180921725Y-84344145D01*
X180952863Y-84328416D01*
X181102376Y-84252892D01*
X181102379Y-84252890D01*
X181105610Y-84251258D01*
X181267951Y-84124424D01*
X181318930Y-84065364D01*
X181400201Y-83971210D01*
X181400203Y-83971208D01*
X181402564Y-83968472D01*
X181404347Y-83965333D01*
X181404350Y-83965329D01*
X181459207Y-83868763D01*
X181504323Y-83789344D01*
X181507959Y-83778416D01*
X181568208Y-83597299D01*
X181569351Y-83593863D01*
X181574823Y-83550553D01*
X181594913Y-83391519D01*
X181594913Y-83391513D01*
X181595171Y-83389474D01*
X181595583Y-83360000D01*
X181593785Y-83341657D01*
X181575833Y-83158570D01*
X181575480Y-83154970D01*
X181515935Y-82957749D01*
X181419218Y-82775849D01*
X181389963Y-82739978D01*
X181301701Y-82631759D01*
X181285054Y-82583956D01*
X181303029Y-82536636D01*
X181347216Y-82511941D01*
X181359047Y-82510989D01*
X182262322Y-82510989D01*
X182309888Y-82528302D01*
X182335198Y-82572139D01*
X182326408Y-82621989D01*
X182319009Y-82632555D01*
X182211351Y-82760856D01*
X182211348Y-82760860D01*
X182209024Y-82763630D01*
X182109776Y-82944162D01*
X182108682Y-82947611D01*
X182049879Y-83132983D01*
X182047484Y-83140532D01*
X182047081Y-83144123D01*
X182047081Y-83144124D01*
X182045461Y-83158570D01*
X182024520Y-83345262D01*
X182024823Y-83348871D01*
X182024823Y-83348873D01*
X182028404Y-83391519D01*
X182041759Y-83550553D01*
X182098544Y-83748586D01*
X182100196Y-83751800D01*
X182100197Y-83751803D01*
X182121106Y-83792487D01*
X182192712Y-83931818D01*
X182320677Y-84093270D01*
X182323430Y-84095613D01*
X182323433Y-84095616D01*
X182354062Y-84121683D01*
X182477564Y-84226791D01*
X182524266Y-84252892D01*
X182654239Y-84325532D01*
X182654243Y-84325534D01*
X182657398Y-84327297D01*
X182660834Y-84328414D01*
X182660840Y-84328416D01*
X182785256Y-84368841D01*
X182853329Y-84390959D01*
X182887154Y-84394992D01*
X182937243Y-84400965D01*
X182982425Y-84423787D01*
X183002366Y-84470313D01*
X182987735Y-84518772D01*
X182945379Y-84546489D01*
X182939674Y-84547593D01*
X182767212Y-84573983D01*
X182761316Y-84575388D01*
X182554834Y-84642876D01*
X182549260Y-84645220D01*
X182356563Y-84745531D01*
X182351451Y-84748750D01*
X182177728Y-84879186D01*
X182173199Y-84883207D01*
X182023115Y-85040260D01*
X182019308Y-85044962D01*
X181896895Y-85224413D01*
X181893896Y-85229691D01*
X181802440Y-85426717D01*
X181800347Y-85432406D01*
X181742293Y-85641739D01*
X181741159Y-85647685D01*
X181729086Y-85760660D01*
X181706817Y-85806118D01*
X181660538Y-85826626D01*
X181611905Y-85812588D01*
X181583672Y-85770574D01*
X181581858Y-85760018D01*
X181575833Y-85698570D01*
X181575480Y-85694970D01*
X181515935Y-85497749D01*
X181419218Y-85315849D01*
X181289011Y-85156200D01*
X181130275Y-85024882D01*
X181119384Y-85018993D01*
X180952238Y-84928618D01*
X180949055Y-84926897D01*
X180945605Y-84925829D01*
X180945600Y-84925827D01*
X180794925Y-84879186D01*
X180752254Y-84865977D01*
X180547369Y-84844443D01*
X180543765Y-84844771D01*
X180543764Y-84844771D01*
X180543215Y-84844821D01*
X180342203Y-84863114D01*
X180293247Y-84877522D01*
X180148043Y-84920258D01*
X180148039Y-84920260D01*
X180144572Y-84921280D01*
X180075971Y-84957144D01*
X179965209Y-85015049D01*
X179965206Y-85015051D01*
X179962002Y-85016726D01*
X179959184Y-85018992D01*
X179959182Y-85018993D01*
X179804266Y-85143548D01*
X179804263Y-85143551D01*
X179801447Y-85145815D01*
X179799121Y-85148587D01*
X179799119Y-85148589D01*
X179671351Y-85300856D01*
X179671348Y-85300860D01*
X179669024Y-85303630D01*
X179569776Y-85484162D01*
X179568682Y-85487611D01*
X179510053Y-85672434D01*
X179507484Y-85680532D01*
X179507081Y-85684123D01*
X179507081Y-85684124D01*
X179505461Y-85698570D01*
X179484520Y-85885262D01*
X179484823Y-85888871D01*
X179484823Y-85888873D01*
X179489831Y-85948506D01*
X179501759Y-86090553D01*
X179558544Y-86288586D01*
X179560196Y-86291800D01*
X179560197Y-86291803D01*
X179615142Y-86398714D01*
X179652712Y-86471818D01*
X179780677Y-86633270D01*
X179783430Y-86635613D01*
X179783433Y-86635616D01*
X179786071Y-86637861D01*
X179937564Y-86766791D01*
X179984266Y-86792892D01*
X180114239Y-86865532D01*
X180114243Y-86865534D01*
X180117398Y-86867297D01*
X180120834Y-86868414D01*
X180120840Y-86868416D01*
X180245256Y-86908841D01*
X180313329Y-86930959D01*
X180377176Y-86938572D01*
X180514294Y-86954922D01*
X180514297Y-86954922D01*
X180517894Y-86955351D01*
X180586714Y-86950056D01*
X180719689Y-86939824D01*
X180719691Y-86939824D01*
X180723300Y-86939546D01*
X180921725Y-86884145D01*
X180938808Y-86875516D01*
X181102376Y-86792892D01*
X181102379Y-86792890D01*
X181105610Y-86791258D01*
X181267951Y-86664424D01*
X181324339Y-86599097D01*
X181400201Y-86511210D01*
X181400203Y-86511208D01*
X181402564Y-86508472D01*
X181404347Y-86505333D01*
X181404350Y-86505329D01*
X181491739Y-86351495D01*
X181504323Y-86329344D01*
X181516812Y-86291803D01*
X181568208Y-86137299D01*
X181569351Y-86133863D01*
X181569805Y-86130269D01*
X181569808Y-86130256D01*
X181580888Y-86042548D01*
X181604025Y-85997527D01*
X181650689Y-85977911D01*
X181699044Y-85992880D01*
X181726465Y-86035429D01*
X181728181Y-86047564D01*
X181730432Y-86086618D01*
X181731272Y-86092598D01*
X181779035Y-86304533D01*
X181780843Y-86310301D01*
X181862569Y-86511571D01*
X181865304Y-86516984D01*
X181978802Y-86702197D01*
X181982383Y-86707090D01*
X182124614Y-86871285D01*
X182128934Y-86875516D01*
X182296079Y-87014282D01*
X182301038Y-87017755D01*
X182488591Y-87127352D01*
X182494056Y-87129970D01*
X182696987Y-87207462D01*
X182702819Y-87209156D01*
X182813213Y-87231615D01*
X182823734Y-87230043D01*
X182825946Y-87227543D01*
X182826000Y-87227256D01*
X182826000Y-87223584D01*
X183334000Y-87223584D01*
X183337638Y-87233580D01*
X183341304Y-87235696D01*
X183360304Y-87233262D01*
X183366214Y-87232006D01*
X183574296Y-87169579D01*
X183579925Y-87167372D01*
X183775010Y-87071801D01*
X183780208Y-87068702D01*
X183957073Y-86942547D01*
X183961680Y-86938654D01*
X184115560Y-86785309D01*
X184119489Y-86780692D01*
X184246250Y-86604285D01*
X184249367Y-86599097D01*
X184345616Y-86404354D01*
X184347849Y-86398714D01*
X184410996Y-86190873D01*
X184412277Y-86184948D01*
X184414648Y-86166937D01*
X184412346Y-86156551D01*
X184409021Y-86154000D01*
X183347048Y-86154000D01*
X183337052Y-86157638D01*
X183334000Y-86162925D01*
X183334000Y-87223584D01*
X182826000Y-87223584D01*
X182826000Y-85720000D01*
X182843313Y-85672434D01*
X182887150Y-85647124D01*
X182900000Y-85646000D01*
X184403411Y-85646000D01*
X184413407Y-85642362D01*
X184414621Y-85640258D01*
X184414555Y-85638422D01*
X184370694Y-85463803D01*
X184368748Y-85458087D01*
X184282120Y-85258856D01*
X184279266Y-85253532D01*
X184161265Y-85071131D01*
X184157575Y-85066339D01*
X184011370Y-84905663D01*
X184006945Y-84901536D01*
X183836460Y-84766896D01*
X183831425Y-84763551D01*
X183641245Y-84658565D01*
X183635717Y-84656081D01*
X183430954Y-84583570D01*
X183425087Y-84582020D01*
X183233572Y-84547907D01*
X183189779Y-84522522D01*
X183172549Y-84474925D01*
X183189945Y-84427389D01*
X183233826Y-84402156D01*
X183240871Y-84401272D01*
X183259690Y-84399824D01*
X183259692Y-84399824D01*
X183263300Y-84399546D01*
X183420658Y-84355611D01*
X183458244Y-84345117D01*
X183458245Y-84345117D01*
X183461725Y-84344145D01*
X183492863Y-84328416D01*
X183642376Y-84252892D01*
X183642379Y-84252890D01*
X183645610Y-84251258D01*
X183807951Y-84124424D01*
X183858930Y-84065364D01*
X183940201Y-83971210D01*
X183940203Y-83971208D01*
X183942564Y-83968472D01*
X183944347Y-83965333D01*
X183944350Y-83965329D01*
X183999207Y-83868763D01*
X184044323Y-83789344D01*
X184047959Y-83778416D01*
X184108208Y-83597299D01*
X184109351Y-83593863D01*
X184114823Y-83550553D01*
X184134913Y-83391519D01*
X184134913Y-83391513D01*
X184135171Y-83389474D01*
X184135583Y-83360000D01*
X184133785Y-83341657D01*
X184115833Y-83158570D01*
X184115480Y-83154970D01*
X184055935Y-82957749D01*
X183959218Y-82775849D01*
X183929963Y-82739978D01*
X183841701Y-82631759D01*
X183825054Y-82583956D01*
X183843029Y-82536636D01*
X183887216Y-82511941D01*
X183899047Y-82510989D01*
X199231058Y-82510989D01*
X199278624Y-82528302D01*
X199283384Y-82532663D01*
X213183894Y-96433174D01*
X213205286Y-96479050D01*
X213192185Y-96527945D01*
X213150721Y-96556979D01*
X213131568Y-96559500D01*
X212162484Y-96559500D01*
X212160271Y-96559768D01*
X212160268Y-96559768D01*
X212041109Y-96574188D01*
X212036680Y-96574724D01*
X211980711Y-96595873D01*
X211882247Y-96633079D01*
X211882245Y-96633080D01*
X211878077Y-96634655D01*
X211874402Y-96637181D01*
X211742031Y-96728157D01*
X211742029Y-96728159D01*
X211738349Y-96730688D01*
X211735377Y-96734024D01*
X211660408Y-96818167D01*
X211625560Y-96857279D01*
X211546224Y-97007119D01*
X211545137Y-97011445D01*
X211545137Y-97011446D01*
X211513525Y-97137299D01*
X211504919Y-97171559D01*
X211504472Y-97256922D01*
X211504093Y-97329344D01*
X211504031Y-97341105D01*
X211543612Y-97505968D01*
X211621375Y-97656631D01*
X211624304Y-97659989D01*
X211624305Y-97659990D01*
X211720053Y-97769748D01*
X211732831Y-97784396D01*
X211736485Y-97786964D01*
X211736486Y-97786965D01*
X211789623Y-97824310D01*
X211871547Y-97881887D01*
X212029513Y-97943476D01*
X212158826Y-97960500D01*
X212160880Y-97960500D01*
X212207147Y-97980854D01*
X212229539Y-98026252D01*
X212229979Y-98034313D01*
X212229979Y-105125892D01*
X212212666Y-105173458D01*
X212168829Y-105198768D01*
X212162619Y-105199500D01*
X212162484Y-105199500D01*
X212160289Y-105199766D01*
X212160282Y-105199766D01*
X212041109Y-105214188D01*
X212036680Y-105214724D01*
X211935135Y-105253095D01*
X211882247Y-105273079D01*
X211882245Y-105273080D01*
X211878077Y-105274655D01*
X211853127Y-105291803D01*
X211742031Y-105368157D01*
X211742029Y-105368159D01*
X211738349Y-105370688D01*
X211625560Y-105497279D01*
X211587552Y-105569063D01*
X211552315Y-105635616D01*
X211546224Y-105647119D01*
X211545137Y-105651445D01*
X211545137Y-105651446D01*
X211514525Y-105773318D01*
X211504919Y-105811559D01*
X211504799Y-105834508D01*
X211504197Y-105949500D01*
X211504031Y-105981105D01*
X211543612Y-106145968D01*
X211621375Y-106296631D01*
X211624304Y-106299989D01*
X211624305Y-106299990D01*
X211668368Y-106350500D01*
X211732831Y-106424396D01*
X211736485Y-106426964D01*
X211736486Y-106426965D01*
X211743427Y-106431843D01*
X211871547Y-106521887D01*
X212029513Y-106583476D01*
X212158826Y-106600500D01*
X213347516Y-106600500D01*
X213349729Y-106600232D01*
X213349732Y-106600232D01*
X213468891Y-106585812D01*
X213473320Y-106585276D01*
X213574865Y-106546905D01*
X213627753Y-106526921D01*
X213627755Y-106526920D01*
X213631923Y-106525345D01*
X213682301Y-106490721D01*
X213767969Y-106431843D01*
X213767971Y-106431841D01*
X213771651Y-106429312D01*
X213841884Y-106350485D01*
X213881470Y-106306055D01*
X213881472Y-106306052D01*
X213884440Y-106302721D01*
X213886530Y-106298774D01*
X213904479Y-106264874D01*
X213942037Y-106230937D01*
X213969878Y-106225500D01*
X215969580Y-106225500D01*
X216017146Y-106242813D01*
X216035338Y-106265560D01*
X216051375Y-106296631D01*
X216054304Y-106299989D01*
X216054305Y-106299990D01*
X216098368Y-106350500D01*
X216162831Y-106424396D01*
X216166485Y-106426964D01*
X216166486Y-106426965D01*
X216173427Y-106431843D01*
X216301547Y-106521887D01*
X216459513Y-106583476D01*
X216588826Y-106600500D01*
X217277516Y-106600500D01*
X217279729Y-106600232D01*
X217279732Y-106600232D01*
X217398891Y-106585812D01*
X217403320Y-106585276D01*
X217504865Y-106546905D01*
X217557753Y-106526921D01*
X217557755Y-106526920D01*
X217561923Y-106525345D01*
X217612301Y-106490721D01*
X217697969Y-106431843D01*
X217697971Y-106431841D01*
X217701651Y-106429312D01*
X217771884Y-106350485D01*
X217811470Y-106306055D01*
X217811472Y-106306052D01*
X217814440Y-106302721D01*
X217893776Y-106152881D01*
X217894863Y-106148554D01*
X217933994Y-105992769D01*
X217933994Y-105992768D01*
X217935081Y-105988441D01*
X217935673Y-105875500D01*
X217935946Y-105823354D01*
X217935946Y-105823351D01*
X217935969Y-105818895D01*
X217934051Y-105810904D01*
X217898883Y-105664424D01*
X217896388Y-105654032D01*
X217818625Y-105503369D01*
X217815695Y-105500010D01*
X217710104Y-105378968D01*
X217710102Y-105378966D01*
X217707169Y-105375604D01*
X217700175Y-105370688D01*
X217645820Y-105332487D01*
X217568453Y-105278113D01*
X217410487Y-105216524D01*
X217324840Y-105205249D01*
X217279942Y-105181876D01*
X217260500Y-105131882D01*
X217260500Y-98028144D01*
X217277813Y-97980578D01*
X217325610Y-97954680D01*
X217398891Y-97945812D01*
X217403320Y-97945276D01*
X217510746Y-97904683D01*
X217557753Y-97886921D01*
X217557755Y-97886920D01*
X217561923Y-97885345D01*
X217645024Y-97828231D01*
X217697969Y-97791843D01*
X217697971Y-97791841D01*
X217701651Y-97789312D01*
X217743137Y-97742750D01*
X217811470Y-97666055D01*
X217811472Y-97666052D01*
X217814440Y-97662721D01*
X217893776Y-97512881D01*
X217894863Y-97508554D01*
X217933994Y-97352769D01*
X217933994Y-97352768D01*
X217935081Y-97348441D01*
X217935969Y-97178895D01*
X217925983Y-97137299D01*
X217897430Y-97018374D01*
X217896388Y-97014032D01*
X217818625Y-96863369D01*
X217815695Y-96860010D01*
X217710104Y-96738968D01*
X217710102Y-96738966D01*
X217707169Y-96735604D01*
X217703385Y-96732944D01*
X217593367Y-96655623D01*
X217568453Y-96638113D01*
X217410487Y-96576524D01*
X217281174Y-96559500D01*
X216592484Y-96559500D01*
X216590271Y-96559768D01*
X216590268Y-96559768D01*
X216471109Y-96574188D01*
X216466680Y-96574724D01*
X216410711Y-96595873D01*
X216312247Y-96633079D01*
X216312245Y-96633080D01*
X216308077Y-96634655D01*
X216304402Y-96637181D01*
X216172031Y-96728157D01*
X216172029Y-96728159D01*
X216168349Y-96730688D01*
X216165377Y-96734024D01*
X216090408Y-96818167D01*
X216055560Y-96857279D01*
X215976224Y-97007119D01*
X215975137Y-97011445D01*
X215975137Y-97011446D01*
X215943525Y-97137299D01*
X215934919Y-97171559D01*
X215934472Y-97256922D01*
X215934093Y-97329344D01*
X215934031Y-97341105D01*
X215973612Y-97505968D01*
X216051375Y-97656631D01*
X216054304Y-97659989D01*
X216054305Y-97659990D01*
X216150053Y-97769748D01*
X216162831Y-97784396D01*
X216166485Y-97786964D01*
X216166486Y-97786965D01*
X216219623Y-97824310D01*
X216301547Y-97881887D01*
X216459513Y-97943476D01*
X216545160Y-97954751D01*
X216590058Y-97978124D01*
X216609500Y-98028118D01*
X216609500Y-105131856D01*
X216592187Y-105179422D01*
X216544390Y-105205320D01*
X216466680Y-105214724D01*
X216365135Y-105253095D01*
X216312247Y-105273079D01*
X216312245Y-105273080D01*
X216308077Y-105274655D01*
X216283127Y-105291803D01*
X216172031Y-105368157D01*
X216172029Y-105368159D01*
X216168349Y-105370688D01*
X216055560Y-105497279D01*
X216053472Y-105501223D01*
X216053470Y-105501226D01*
X216035521Y-105535126D01*
X215997963Y-105569063D01*
X215970122Y-105574500D01*
X213970420Y-105574500D01*
X213922854Y-105557187D01*
X213904662Y-105534440D01*
X213890670Y-105507331D01*
X213890670Y-105507330D01*
X213888625Y-105503369D01*
X213885695Y-105500010D01*
X213780104Y-105378968D01*
X213780102Y-105378966D01*
X213777169Y-105375604D01*
X213770175Y-105370688D01*
X213715820Y-105332487D01*
X213638453Y-105278113D01*
X213480487Y-105216524D01*
X213351174Y-105199500D01*
X212954979Y-105199500D01*
X212907413Y-105182187D01*
X212882103Y-105138350D01*
X212880979Y-105125500D01*
X212880979Y-105048741D01*
X212898292Y-105001175D01*
X212942129Y-104975865D01*
X212983299Y-104980374D01*
X213104764Y-105030687D01*
X213109566Y-105031319D01*
X213109569Y-105031320D01*
X213192180Y-105042195D01*
X213217280Y-105045500D01*
X213292720Y-105045500D01*
X213317820Y-105042195D01*
X213400431Y-105031320D01*
X213400434Y-105031319D01*
X213405236Y-105030687D01*
X213545233Y-104972698D01*
X213665451Y-104880451D01*
X213757698Y-104760233D01*
X213815687Y-104620236D01*
X213835466Y-104470000D01*
X213815687Y-104319764D01*
X213757698Y-104179767D01*
X213665451Y-104059549D01*
X213545233Y-103967302D01*
X213405236Y-103909313D01*
X213400434Y-103908681D01*
X213400431Y-103908680D01*
X213317820Y-103897805D01*
X213292720Y-103894500D01*
X213217280Y-103894500D01*
X213192180Y-103897805D01*
X213109569Y-103908680D01*
X213109566Y-103908681D01*
X213104764Y-103909313D01*
X213075873Y-103921280D01*
X212983298Y-103959626D01*
X212932727Y-103961834D01*
X212892568Y-103931019D01*
X212880979Y-103891259D01*
X212880979Y-99268741D01*
X212898292Y-99221175D01*
X212942129Y-99195865D01*
X212983299Y-99200374D01*
X213104764Y-99250687D01*
X213109566Y-99251319D01*
X213109569Y-99251320D01*
X213192180Y-99262195D01*
X213217280Y-99265500D01*
X213292720Y-99265500D01*
X213317820Y-99262195D01*
X213400431Y-99251320D01*
X213400434Y-99251319D01*
X213405236Y-99250687D01*
X213545233Y-99192698D01*
X213665451Y-99100451D01*
X213757698Y-98980233D01*
X213815687Y-98840236D01*
X213816442Y-98840549D01*
X213843057Y-98802541D01*
X213891951Y-98789441D01*
X213937827Y-98810834D01*
X213959219Y-98856711D01*
X213959500Y-98863159D01*
X213959500Y-101542516D01*
X213974724Y-101668320D01*
X213979003Y-101679644D01*
X214023011Y-101796107D01*
X214034655Y-101826923D01*
X214037181Y-101830598D01*
X214124570Y-101957749D01*
X214130688Y-101966651D01*
X214177250Y-102008137D01*
X214253945Y-102076470D01*
X214253948Y-102076472D01*
X214257279Y-102079440D01*
X214355918Y-102131666D01*
X214399931Y-102154970D01*
X214407119Y-102158776D01*
X214411445Y-102159863D01*
X214411446Y-102159863D01*
X214567231Y-102198994D01*
X214567232Y-102198994D01*
X214571559Y-102200081D01*
X214656922Y-102200528D01*
X214736646Y-102200946D01*
X214736649Y-102200946D01*
X214741105Y-102200969D01*
X214745440Y-102199928D01*
X214745442Y-102199928D01*
X214800874Y-102186619D01*
X214905968Y-102161388D01*
X215056631Y-102083625D01*
X215059990Y-102080695D01*
X215181032Y-101975104D01*
X215181034Y-101975102D01*
X215184396Y-101972169D01*
X215216775Y-101926099D01*
X215264326Y-101858440D01*
X215281887Y-101833453D01*
X215343476Y-101675487D01*
X215360500Y-101546174D01*
X215360500Y-96945502D01*
X215360671Y-96940469D01*
X215364375Y-96886138D01*
X215364678Y-96881693D01*
X215353588Y-96818153D01*
X215353024Y-96814333D01*
X215345812Y-96754734D01*
X215345276Y-96750303D01*
X215341190Y-96739489D01*
X215337515Y-96726058D01*
X215336294Y-96719063D01*
X215335527Y-96714669D01*
X215333735Y-96710587D01*
X215333734Y-96710583D01*
X215309608Y-96655623D01*
X215308144Y-96652036D01*
X215286922Y-96595873D01*
X215286921Y-96595872D01*
X215285345Y-96591700D01*
X215278798Y-96582173D01*
X215272025Y-96570005D01*
X215269171Y-96563502D01*
X215269169Y-96563499D01*
X215267379Y-96559421D01*
X215228108Y-96508242D01*
X215225835Y-96505113D01*
X215223151Y-96501207D01*
X215211436Y-96484162D01*
X215191843Y-96455654D01*
X215191841Y-96455652D01*
X215189312Y-96451972D01*
X215142233Y-96410026D01*
X215139134Y-96407101D01*
X200066194Y-81334160D01*
X200062756Y-81330480D01*
X200026970Y-81289457D01*
X200026968Y-81289455D01*
X200024035Y-81286093D01*
X200017041Y-81281177D01*
X199971284Y-81249019D01*
X199968173Y-81246709D01*
X199920920Y-81209658D01*
X199917409Y-81206905D01*
X199913342Y-81205069D01*
X199913339Y-81205067D01*
X199906872Y-81202147D01*
X199894773Y-81195246D01*
X199888973Y-81191170D01*
X199888972Y-81191169D01*
X199885319Y-81188602D01*
X199825222Y-81165171D01*
X199821681Y-81163682D01*
X199762882Y-81137134D01*
X199751517Y-81135028D01*
X199738127Y-81131213D01*
X199731510Y-81128633D01*
X199731505Y-81128632D01*
X199727353Y-81127013D01*
X199663400Y-81118594D01*
X199659597Y-81117992D01*
X199596174Y-81106237D01*
X199540908Y-81109423D01*
X199533230Y-81109866D01*
X199528971Y-81109989D01*
X138936386Y-81109989D01*
X138931352Y-81109818D01*
X138877026Y-81106114D01*
X138872581Y-81105811D01*
X138809041Y-81116901D01*
X138805228Y-81117464D01*
X138741191Y-81125213D01*
X138737014Y-81126791D01*
X138737015Y-81126791D01*
X138730377Y-81129299D01*
X138716946Y-81132974D01*
X138705557Y-81134962D01*
X138701473Y-81136755D01*
X138701472Y-81136755D01*
X138646514Y-81160880D01*
X138642929Y-81162343D01*
X138633216Y-81166013D01*
X138586758Y-81183568D01*
X138586756Y-81183569D01*
X138582588Y-81185144D01*
X138578916Y-81187668D01*
X138573058Y-81191694D01*
X138560891Y-81198465D01*
X138550308Y-81203111D01*
X138499141Y-81242373D01*
X138496010Y-81244647D01*
X138442860Y-81281177D01*
X138439888Y-81284513D01*
X138400922Y-81328247D01*
X138397997Y-81331346D01*
X137444387Y-82284956D01*
X137398511Y-82306348D01*
X137384327Y-82306225D01*
X137370967Y-82304821D01*
X137370965Y-82304821D01*
X137367369Y-82304443D01*
X137335650Y-82307329D01*
X137286712Y-82294400D01*
X137276618Y-82285961D01*
X136834329Y-81843672D01*
X136830891Y-81839992D01*
X136795104Y-81798968D01*
X136795102Y-81798966D01*
X136792169Y-81795604D01*
X136739418Y-81758530D01*
X136736307Y-81756220D01*
X136689054Y-81719169D01*
X136685543Y-81716416D01*
X136681476Y-81714580D01*
X136681473Y-81714578D01*
X136675006Y-81711658D01*
X136662907Y-81704757D01*
X136657107Y-81700681D01*
X136657106Y-81700680D01*
X136653453Y-81698113D01*
X136607618Y-81680242D01*
X136569591Y-81646834D01*
X136560500Y-81611298D01*
X136560500Y-79000000D01*
X186554318Y-79000000D01*
X186554951Y-79004808D01*
X186563695Y-79071223D01*
X186574956Y-79156762D01*
X186635464Y-79302841D01*
X186638414Y-79306685D01*
X186638416Y-79306689D01*
X186701495Y-79388895D01*
X186731718Y-79428282D01*
X186735569Y-79431237D01*
X186853311Y-79521584D01*
X186853315Y-79521586D01*
X186857159Y-79524536D01*
X187003238Y-79585044D01*
X187008040Y-79585676D01*
X187008043Y-79585677D01*
X187155192Y-79605049D01*
X187160000Y-79605682D01*
X187164808Y-79605049D01*
X187311957Y-79585677D01*
X187311960Y-79585676D01*
X187316762Y-79585044D01*
X187398698Y-79551105D01*
X211504031Y-79551105D01*
X211543612Y-79715968D01*
X211621375Y-79866631D01*
X211624304Y-79869989D01*
X211624305Y-79869990D01*
X211626688Y-79872721D01*
X211732831Y-79994396D01*
X211736485Y-79996964D01*
X211736486Y-79996965D01*
X211743427Y-80001843D01*
X211871547Y-80091887D01*
X212029513Y-80153476D01*
X212158826Y-80170500D01*
X213347516Y-80170500D01*
X213349729Y-80170232D01*
X213349732Y-80170232D01*
X213468891Y-80155812D01*
X213473320Y-80155276D01*
X213574865Y-80116905D01*
X213627753Y-80096921D01*
X213627755Y-80096920D01*
X213631923Y-80095345D01*
X213682301Y-80060721D01*
X213767969Y-80001843D01*
X213767971Y-80001841D01*
X213771651Y-79999312D01*
X213884440Y-79872721D01*
X213963776Y-79722881D01*
X213964863Y-79718554D01*
X214003994Y-79562769D01*
X214003994Y-79562768D01*
X214005081Y-79558441D01*
X214005119Y-79551105D01*
X215934031Y-79551105D01*
X215973612Y-79715968D01*
X216051375Y-79866631D01*
X216054304Y-79869989D01*
X216054305Y-79869990D01*
X216056688Y-79872721D01*
X216162831Y-79994396D01*
X216166485Y-79996964D01*
X216166486Y-79996965D01*
X216173427Y-80001843D01*
X216301547Y-80091887D01*
X216459513Y-80153476D01*
X216588826Y-80170500D01*
X217277516Y-80170500D01*
X217279729Y-80170232D01*
X217279732Y-80170232D01*
X217398891Y-80155812D01*
X217403320Y-80155276D01*
X217504865Y-80116905D01*
X217557753Y-80096921D01*
X217557755Y-80096920D01*
X217561923Y-80095345D01*
X217612301Y-80060721D01*
X217697969Y-80001843D01*
X217697971Y-80001841D01*
X217701651Y-79999312D01*
X217814440Y-79872721D01*
X217893776Y-79722881D01*
X217894863Y-79718554D01*
X217933994Y-79562769D01*
X217933994Y-79562768D01*
X217935081Y-79558441D01*
X217935969Y-79388895D01*
X217896388Y-79224032D01*
X217818625Y-79073369D01*
X217815695Y-79070010D01*
X217710104Y-78948968D01*
X217710102Y-78948966D01*
X217707169Y-78945604D01*
X217700175Y-78940688D01*
X217650377Y-78905690D01*
X217568453Y-78848113D01*
X217410487Y-78786524D01*
X217281174Y-78769500D01*
X216592484Y-78769500D01*
X216590271Y-78769768D01*
X216590268Y-78769768D01*
X216471109Y-78784188D01*
X216466680Y-78784724D01*
X216387859Y-78814508D01*
X216312247Y-78843079D01*
X216312245Y-78843080D01*
X216308077Y-78844655D01*
X216303046Y-78848113D01*
X216172031Y-78938157D01*
X216172029Y-78938159D01*
X216168349Y-78940688D01*
X216055560Y-79067279D01*
X215976224Y-79217119D01*
X215975137Y-79221445D01*
X215975137Y-79221446D01*
X215974488Y-79224032D01*
X215934919Y-79381559D01*
X215934674Y-79428282D01*
X215934186Y-79521584D01*
X215934031Y-79551105D01*
X214005119Y-79551105D01*
X214005969Y-79388895D01*
X213966388Y-79224032D01*
X213888625Y-79073369D01*
X213885695Y-79070010D01*
X213780104Y-78948968D01*
X213780102Y-78948966D01*
X213777169Y-78945604D01*
X213770175Y-78940688D01*
X213720377Y-78905690D01*
X213638453Y-78848113D01*
X213480487Y-78786524D01*
X213351174Y-78769500D01*
X212162484Y-78769500D01*
X212160271Y-78769768D01*
X212160268Y-78769768D01*
X212041109Y-78784188D01*
X212036680Y-78784724D01*
X211957859Y-78814508D01*
X211882247Y-78843079D01*
X211882245Y-78843080D01*
X211878077Y-78844655D01*
X211873046Y-78848113D01*
X211742031Y-78938157D01*
X211742029Y-78938159D01*
X211738349Y-78940688D01*
X211625560Y-79067279D01*
X211546224Y-79217119D01*
X211545137Y-79221445D01*
X211545137Y-79221446D01*
X211544488Y-79224032D01*
X211504919Y-79381559D01*
X211504674Y-79428282D01*
X211504186Y-79521584D01*
X211504031Y-79551105D01*
X187398698Y-79551105D01*
X187462841Y-79524536D01*
X187466685Y-79521586D01*
X187466689Y-79521584D01*
X187584431Y-79431237D01*
X187588282Y-79428282D01*
X187618505Y-79388895D01*
X187681584Y-79306689D01*
X187681586Y-79306685D01*
X187684536Y-79302841D01*
X187745044Y-79156762D01*
X187756306Y-79071223D01*
X187765049Y-79004808D01*
X187765682Y-79000000D01*
X187749422Y-78876493D01*
X187760378Y-78827074D01*
X187770463Y-78814508D01*
X187933901Y-78651070D01*
X187938054Y-78647485D01*
X187942269Y-78645425D01*
X187976227Y-78608818D01*
X187978152Y-78606819D01*
X187992248Y-78592723D01*
X187994176Y-78589912D01*
X187996353Y-78587293D01*
X187996485Y-78587403D01*
X187999039Y-78584227D01*
X188013754Y-78568364D01*
X188013755Y-78568363D01*
X188018401Y-78563354D01*
X188020931Y-78557012D01*
X188020935Y-78557006D01*
X188023699Y-78550077D01*
X188031407Y-78535641D01*
X188035624Y-78529493D01*
X188035625Y-78529492D01*
X188039492Y-78523854D01*
X188046064Y-78496160D01*
X188049332Y-78485824D01*
X188050087Y-78483932D01*
X188059883Y-78459378D01*
X188060500Y-78453085D01*
X188060500Y-78443988D01*
X188062500Y-78426901D01*
X188063762Y-78421585D01*
X188063762Y-78421583D01*
X188065340Y-78414934D01*
X188061176Y-78384337D01*
X188060500Y-78374358D01*
X188060500Y-78040000D01*
X212674534Y-78040000D01*
X212694313Y-78190236D01*
X212752302Y-78330233D01*
X212844549Y-78450451D01*
X212964767Y-78542698D01*
X213104764Y-78600687D01*
X213109566Y-78601319D01*
X213109569Y-78601320D01*
X213192180Y-78612195D01*
X213217280Y-78615500D01*
X213292720Y-78615500D01*
X213317820Y-78612195D01*
X213400431Y-78601320D01*
X213400434Y-78601319D01*
X213405236Y-78600687D01*
X213545233Y-78542698D01*
X213665451Y-78450451D01*
X213757698Y-78330233D01*
X213815687Y-78190236D01*
X213835466Y-78040000D01*
X213815687Y-77889764D01*
X213757698Y-77749767D01*
X213665451Y-77629549D01*
X213545233Y-77537302D01*
X213405236Y-77479313D01*
X213400434Y-77478681D01*
X213400431Y-77478680D01*
X213317820Y-77467805D01*
X213292720Y-77464500D01*
X213217280Y-77464500D01*
X213192180Y-77467805D01*
X213109569Y-77478680D01*
X213109566Y-77478681D01*
X213104764Y-77479313D01*
X212964767Y-77537302D01*
X212844549Y-77629549D01*
X212752302Y-77749767D01*
X212694313Y-77889764D01*
X212674534Y-78040000D01*
X188060500Y-78040000D01*
X188060500Y-75100000D01*
X194654318Y-75100000D01*
X194674956Y-75256762D01*
X194735464Y-75402841D01*
X194738414Y-75406685D01*
X194738416Y-75406689D01*
X194812196Y-75502841D01*
X194831718Y-75528282D01*
X194835569Y-75531237D01*
X194953311Y-75621584D01*
X194953315Y-75621586D01*
X194957159Y-75624536D01*
X195103238Y-75685044D01*
X195108040Y-75685676D01*
X195108043Y-75685677D01*
X195255192Y-75705049D01*
X195260000Y-75705682D01*
X195264808Y-75705049D01*
X195411957Y-75685677D01*
X195411960Y-75685676D01*
X195416762Y-75685044D01*
X195562841Y-75624536D01*
X195566686Y-75621586D01*
X195566689Y-75621584D01*
X195639398Y-75565792D01*
X195684446Y-75550500D01*
X210535554Y-75550500D01*
X210580602Y-75565792D01*
X210653311Y-75621584D01*
X210653314Y-75621586D01*
X210657159Y-75624536D01*
X210803238Y-75685044D01*
X210808040Y-75685676D01*
X210808043Y-75685677D01*
X210955192Y-75705049D01*
X210960000Y-75705682D01*
X210964808Y-75705049D01*
X211111957Y-75685677D01*
X211111960Y-75685676D01*
X211116762Y-75685044D01*
X211262841Y-75624536D01*
X211266685Y-75621586D01*
X211266689Y-75621584D01*
X211384431Y-75531237D01*
X211388282Y-75528282D01*
X211407804Y-75502841D01*
X211481584Y-75406689D01*
X211481586Y-75406685D01*
X211484536Y-75402841D01*
X211545044Y-75256762D01*
X211565682Y-75100000D01*
X211557620Y-75038760D01*
X211545677Y-74948043D01*
X211545676Y-74948040D01*
X211545044Y-74943238D01*
X211484536Y-74797159D01*
X211481586Y-74793315D01*
X211481584Y-74793311D01*
X211391237Y-74675569D01*
X211388282Y-74671718D01*
X211316726Y-74616811D01*
X211266689Y-74578416D01*
X211266685Y-74578414D01*
X211262841Y-74575464D01*
X211116762Y-74514956D01*
X211111960Y-74514324D01*
X211111957Y-74514323D01*
X210964808Y-74494951D01*
X210960000Y-74494318D01*
X210955192Y-74494951D01*
X210808043Y-74514323D01*
X210808040Y-74514324D01*
X210803238Y-74514956D01*
X210657159Y-74575464D01*
X210653314Y-74578414D01*
X210653311Y-74578416D01*
X210580602Y-74634208D01*
X210535554Y-74649500D01*
X195684446Y-74649500D01*
X195639398Y-74634208D01*
X195566689Y-74578416D01*
X195566686Y-74578414D01*
X195562841Y-74575464D01*
X195416762Y-74514956D01*
X195411960Y-74514324D01*
X195411957Y-74514323D01*
X195264808Y-74494951D01*
X195260000Y-74494318D01*
X195255192Y-74494951D01*
X195108043Y-74514323D01*
X195108040Y-74514324D01*
X195103238Y-74514956D01*
X194957159Y-74575464D01*
X194953315Y-74578414D01*
X194953311Y-74578416D01*
X194903274Y-74616811D01*
X194831718Y-74671718D01*
X194828763Y-74675569D01*
X194738416Y-74793311D01*
X194738414Y-74793315D01*
X194735464Y-74797159D01*
X194674956Y-74943238D01*
X194674324Y-74948040D01*
X194674323Y-74948043D01*
X194662380Y-75038760D01*
X194654318Y-75100000D01*
X188060500Y-75100000D01*
X188060500Y-72362825D01*
X188077813Y-72315259D01*
X188089452Y-72304117D01*
X188184431Y-72231237D01*
X188188282Y-72228282D01*
X188209600Y-72200500D01*
X188281584Y-72106689D01*
X188281586Y-72106685D01*
X188284536Y-72102841D01*
X188345044Y-71956762D01*
X188352517Y-71900000D01*
X196154318Y-71900000D01*
X196154951Y-71904808D01*
X196166552Y-71992924D01*
X196174956Y-72056762D01*
X196235464Y-72202841D01*
X196238414Y-72206685D01*
X196238416Y-72206689D01*
X196321725Y-72315259D01*
X196331718Y-72328282D01*
X196335569Y-72331237D01*
X196453311Y-72421584D01*
X196453315Y-72421586D01*
X196457159Y-72424536D01*
X196603238Y-72485044D01*
X196608040Y-72485676D01*
X196608043Y-72485677D01*
X196755192Y-72505049D01*
X196760000Y-72505682D01*
X196764808Y-72505049D01*
X196911957Y-72485677D01*
X196911960Y-72485676D01*
X196916762Y-72485044D01*
X197062841Y-72424536D01*
X197066685Y-72421586D01*
X197066689Y-72421584D01*
X197184431Y-72331237D01*
X197188282Y-72328282D01*
X197236987Y-72264808D01*
X197264117Y-72229452D01*
X197306809Y-72202254D01*
X197322825Y-72200500D01*
X197704877Y-72200500D01*
X197752443Y-72217813D01*
X197757203Y-72222174D01*
X198749537Y-73214508D01*
X198770929Y-73260384D01*
X198770578Y-73276492D01*
X198754318Y-73400000D01*
X198754951Y-73404808D01*
X198763353Y-73468625D01*
X198774956Y-73556762D01*
X198835464Y-73702841D01*
X198838414Y-73706685D01*
X198838416Y-73706689D01*
X198928763Y-73824431D01*
X198931718Y-73828282D01*
X198935569Y-73831237D01*
X199053311Y-73921584D01*
X199053315Y-73921586D01*
X199057159Y-73924536D01*
X199203238Y-73985044D01*
X199208040Y-73985676D01*
X199208043Y-73985677D01*
X199355192Y-74005049D01*
X199360000Y-74005682D01*
X199364808Y-74005049D01*
X199511957Y-73985677D01*
X199511960Y-73985676D01*
X199516762Y-73985044D01*
X199662841Y-73924536D01*
X199666685Y-73921586D01*
X199666689Y-73921584D01*
X199784431Y-73831237D01*
X199788282Y-73828282D01*
X199791237Y-73824431D01*
X199881584Y-73706689D01*
X199881586Y-73706685D01*
X199884536Y-73702841D01*
X199945044Y-73556762D01*
X199956648Y-73468625D01*
X199965049Y-73404808D01*
X199965682Y-73400000D01*
X199949422Y-73276493D01*
X199945677Y-73248043D01*
X199945676Y-73248040D01*
X199945044Y-73243238D01*
X199884536Y-73097159D01*
X199881586Y-73093315D01*
X199881584Y-73093311D01*
X199791237Y-72975569D01*
X199788282Y-72971718D01*
X199784431Y-72968763D01*
X199666689Y-72878416D01*
X199666685Y-72878414D01*
X199662841Y-72875464D01*
X199516762Y-72814956D01*
X199511960Y-72814324D01*
X199511957Y-72814323D01*
X199364808Y-72794951D01*
X199360000Y-72794318D01*
X199236493Y-72810578D01*
X199187074Y-72799622D01*
X199174508Y-72789537D01*
X198644971Y-72260000D01*
X212674534Y-72260000D01*
X212675167Y-72264808D01*
X212685963Y-72346809D01*
X212694313Y-72410236D01*
X212752302Y-72550233D01*
X212844549Y-72670451D01*
X212964767Y-72762698D01*
X213104764Y-72820687D01*
X213109566Y-72821319D01*
X213109569Y-72821320D01*
X213192180Y-72832195D01*
X213217280Y-72835500D01*
X213292720Y-72835500D01*
X213317820Y-72832195D01*
X213400431Y-72821320D01*
X213400434Y-72821319D01*
X213405236Y-72820687D01*
X213545233Y-72762698D01*
X213665451Y-72670451D01*
X213757698Y-72550233D01*
X213815687Y-72410236D01*
X213824038Y-72346809D01*
X213834833Y-72264808D01*
X213835466Y-72260000D01*
X213829912Y-72217813D01*
X213816320Y-72114569D01*
X213816319Y-72114566D01*
X213815687Y-72109764D01*
X213757698Y-71969767D01*
X213665451Y-71849549D01*
X213545233Y-71757302D01*
X213405236Y-71699313D01*
X213400434Y-71698681D01*
X213400431Y-71698680D01*
X213317820Y-71687805D01*
X213292720Y-71684500D01*
X213217280Y-71684500D01*
X213192180Y-71687805D01*
X213109569Y-71698680D01*
X213109566Y-71698681D01*
X213104764Y-71699313D01*
X212964767Y-71757302D01*
X212844549Y-71849549D01*
X212752302Y-71969767D01*
X212694313Y-72109764D01*
X212693681Y-72114566D01*
X212693680Y-72114569D01*
X212680088Y-72217813D01*
X212674534Y-72260000D01*
X198644971Y-72260000D01*
X198111070Y-71726099D01*
X198107485Y-71721946D01*
X198105425Y-71717731D01*
X198068818Y-71683773D01*
X198066819Y-71681848D01*
X198052723Y-71667752D01*
X198049912Y-71665824D01*
X198047293Y-71663647D01*
X198047403Y-71663515D01*
X198044227Y-71660961D01*
X198028364Y-71646246D01*
X198028363Y-71646245D01*
X198023354Y-71641599D01*
X198017012Y-71639069D01*
X198017006Y-71639065D01*
X198010077Y-71636301D01*
X197995641Y-71628593D01*
X197989493Y-71624376D01*
X197989492Y-71624375D01*
X197983854Y-71620508D01*
X197977204Y-71618930D01*
X197977202Y-71618929D01*
X197956160Y-71613936D01*
X197945824Y-71610668D01*
X197943932Y-71609913D01*
X197919378Y-71600117D01*
X197913085Y-71599500D01*
X197903988Y-71599500D01*
X197886901Y-71597500D01*
X197881585Y-71596238D01*
X197881583Y-71596238D01*
X197874934Y-71594660D01*
X197856572Y-71597159D01*
X197844337Y-71598824D01*
X197834358Y-71599500D01*
X197322825Y-71599500D01*
X197275259Y-71582187D01*
X197264117Y-71570548D01*
X197191237Y-71475569D01*
X197188282Y-71471718D01*
X197159092Y-71449320D01*
X197066689Y-71378416D01*
X197066685Y-71378414D01*
X197062841Y-71375464D01*
X196916762Y-71314956D01*
X196911960Y-71314324D01*
X196911957Y-71314323D01*
X196764808Y-71294951D01*
X196760000Y-71294318D01*
X196755192Y-71294951D01*
X196608043Y-71314323D01*
X196608040Y-71314324D01*
X196603238Y-71314956D01*
X196457159Y-71375464D01*
X196453315Y-71378414D01*
X196453311Y-71378416D01*
X196360908Y-71449320D01*
X196331718Y-71471718D01*
X196328763Y-71475569D01*
X196238416Y-71593311D01*
X196238414Y-71593315D01*
X196235464Y-71597159D01*
X196174956Y-71743238D01*
X196174324Y-71748040D01*
X196174323Y-71748043D01*
X196168116Y-71795192D01*
X196154318Y-71900000D01*
X188352517Y-71900000D01*
X188365682Y-71800000D01*
X188355953Y-71726099D01*
X188345677Y-71648043D01*
X188345676Y-71648040D01*
X188345044Y-71643238D01*
X188284536Y-71497159D01*
X188281586Y-71493315D01*
X188281584Y-71493311D01*
X188191237Y-71375569D01*
X188188282Y-71371718D01*
X188172114Y-71359312D01*
X188066689Y-71278416D01*
X188066685Y-71278414D01*
X188062841Y-71275464D01*
X187916762Y-71214956D01*
X187911960Y-71214324D01*
X187911957Y-71214323D01*
X187764808Y-71194951D01*
X187760000Y-71194318D01*
X187755192Y-71194951D01*
X187608043Y-71214323D01*
X187608040Y-71214324D01*
X187603238Y-71214956D01*
X187457159Y-71275464D01*
X187453315Y-71278414D01*
X187453311Y-71278416D01*
X187347886Y-71359312D01*
X187331718Y-71371718D01*
X187328763Y-71375569D01*
X187238416Y-71493311D01*
X187238414Y-71493315D01*
X187235464Y-71497159D01*
X187174956Y-71643238D01*
X187174324Y-71648040D01*
X187174323Y-71648043D01*
X187164047Y-71726099D01*
X187154318Y-71800000D01*
X187174956Y-71956762D01*
X187235464Y-72102841D01*
X187238414Y-72106685D01*
X187238416Y-72106689D01*
X187310400Y-72200500D01*
X187331718Y-72228282D01*
X187335569Y-72231237D01*
X187430548Y-72304117D01*
X187457746Y-72346809D01*
X187459500Y-72362825D01*
X187459500Y-78244877D01*
X187442187Y-78292443D01*
X187437826Y-78297203D01*
X187345492Y-78389537D01*
X187299616Y-78410929D01*
X187283508Y-78410578D01*
X187160000Y-78394318D01*
X187155192Y-78394951D01*
X187008043Y-78414323D01*
X187008040Y-78414324D01*
X187003238Y-78414956D01*
X186857159Y-78475464D01*
X186853315Y-78478414D01*
X186853311Y-78478416D01*
X186767120Y-78544553D01*
X186731718Y-78571718D01*
X186728763Y-78575569D01*
X186638416Y-78693311D01*
X186638414Y-78693315D01*
X186635464Y-78697159D01*
X186574956Y-78843238D01*
X186574324Y-78848040D01*
X186574323Y-78848043D01*
X186561687Y-78944024D01*
X186554318Y-79000000D01*
X136560500Y-79000000D01*
X136560500Y-70911105D01*
X211504031Y-70911105D01*
X211543612Y-71075968D01*
X211604697Y-71194318D01*
X211616307Y-71216811D01*
X211621375Y-71226631D01*
X211624304Y-71229989D01*
X211624305Y-71229990D01*
X211712749Y-71331375D01*
X211732831Y-71354396D01*
X211736485Y-71356964D01*
X211736486Y-71356965D01*
X211743427Y-71361843D01*
X211871547Y-71451887D01*
X212029513Y-71513476D01*
X212158826Y-71530500D01*
X213347516Y-71530500D01*
X213349729Y-71530232D01*
X213349732Y-71530232D01*
X213468891Y-71515812D01*
X213473320Y-71515276D01*
X213588593Y-71471718D01*
X213627753Y-71456921D01*
X213627755Y-71456920D01*
X213631923Y-71455345D01*
X213743855Y-71378416D01*
X213767969Y-71361843D01*
X213767971Y-71361841D01*
X213771651Y-71359312D01*
X213813137Y-71312750D01*
X213881470Y-71236055D01*
X213881472Y-71236052D01*
X213884440Y-71232721D01*
X213963776Y-71082881D01*
X213964863Y-71078554D01*
X214003994Y-70922769D01*
X214003994Y-70922768D01*
X214005081Y-70918441D01*
X214005119Y-70911105D01*
X215934031Y-70911105D01*
X215973612Y-71075968D01*
X216034697Y-71194318D01*
X216046307Y-71216811D01*
X216051375Y-71226631D01*
X216054304Y-71229989D01*
X216054305Y-71229990D01*
X216142749Y-71331375D01*
X216162831Y-71354396D01*
X216166485Y-71356964D01*
X216166486Y-71356965D01*
X216173427Y-71361843D01*
X216301547Y-71451887D01*
X216459513Y-71513476D01*
X216588826Y-71530500D01*
X217277516Y-71530500D01*
X217279729Y-71530232D01*
X217279732Y-71530232D01*
X217398891Y-71515812D01*
X217403320Y-71515276D01*
X217518593Y-71471718D01*
X217557753Y-71456921D01*
X217557755Y-71456920D01*
X217561923Y-71455345D01*
X217673855Y-71378416D01*
X217697969Y-71361843D01*
X217697971Y-71361841D01*
X217701651Y-71359312D01*
X217743137Y-71312750D01*
X217811470Y-71236055D01*
X217811472Y-71236052D01*
X217814440Y-71232721D01*
X217893776Y-71082881D01*
X217894863Y-71078554D01*
X217933994Y-70922769D01*
X217933994Y-70922768D01*
X217935081Y-70918441D01*
X217935675Y-70805049D01*
X217935946Y-70753354D01*
X217935946Y-70753351D01*
X217935969Y-70748895D01*
X217896388Y-70584032D01*
X217818625Y-70433369D01*
X217815695Y-70430010D01*
X217710104Y-70308968D01*
X217710102Y-70308966D01*
X217707169Y-70305604D01*
X217700175Y-70300688D01*
X217572105Y-70210680D01*
X217568453Y-70208113D01*
X217410487Y-70146524D01*
X217281174Y-70129500D01*
X216592484Y-70129500D01*
X216590271Y-70129768D01*
X216590268Y-70129768D01*
X216471109Y-70144188D01*
X216466680Y-70144724D01*
X216422972Y-70161240D01*
X216312247Y-70203079D01*
X216312245Y-70203080D01*
X216308077Y-70204655D01*
X216304402Y-70207181D01*
X216172031Y-70298157D01*
X216172029Y-70298159D01*
X216168349Y-70300688D01*
X216055560Y-70427279D01*
X215976224Y-70577119D01*
X215975137Y-70581445D01*
X215975137Y-70581446D01*
X215963373Y-70628282D01*
X215934919Y-70741559D01*
X215934031Y-70911105D01*
X214005119Y-70911105D01*
X214005675Y-70805049D01*
X214005946Y-70753354D01*
X214005946Y-70753351D01*
X214005969Y-70748895D01*
X213966388Y-70584032D01*
X213888625Y-70433369D01*
X213885695Y-70430010D01*
X213780104Y-70308968D01*
X213780102Y-70308966D01*
X213777169Y-70305604D01*
X213770175Y-70300688D01*
X213642105Y-70210680D01*
X213638453Y-70208113D01*
X213480487Y-70146524D01*
X213351174Y-70129500D01*
X212162484Y-70129500D01*
X212160271Y-70129768D01*
X212160268Y-70129768D01*
X212041109Y-70144188D01*
X212036680Y-70144724D01*
X211992972Y-70161240D01*
X211882247Y-70203079D01*
X211882245Y-70203080D01*
X211878077Y-70204655D01*
X211874402Y-70207181D01*
X211742031Y-70298157D01*
X211742029Y-70298159D01*
X211738349Y-70300688D01*
X211625560Y-70427279D01*
X211546224Y-70577119D01*
X211545137Y-70581445D01*
X211545137Y-70581446D01*
X211533373Y-70628282D01*
X211504919Y-70741559D01*
X211504031Y-70911105D01*
X136560500Y-70911105D01*
X136560500Y-61607484D01*
X136545276Y-61481680D01*
X136485345Y-61323077D01*
X136389312Y-61183349D01*
X136342750Y-61141863D01*
X136266055Y-61073530D01*
X136266052Y-61073528D01*
X136262721Y-61070560D01*
X136112881Y-60991224D01*
X136108554Y-60990137D01*
X135952769Y-60951006D01*
X135952768Y-60951006D01*
X135948441Y-60949919D01*
X135863078Y-60949472D01*
X135783354Y-60949054D01*
X135783351Y-60949054D01*
X135778895Y-60949031D01*
X135774560Y-60950072D01*
X135774558Y-60950072D01*
X135719126Y-60963381D01*
X135614032Y-60988612D01*
X135463369Y-61066375D01*
X135460011Y-61069304D01*
X135460010Y-61069305D01*
X135458572Y-61070560D01*
X135335604Y-61177831D01*
X135238113Y-61316547D01*
X135176524Y-61474513D01*
X135159500Y-61603826D01*
X135159500Y-81999192D01*
X135142187Y-82046758D01*
X135137826Y-82051518D01*
X134904388Y-82284956D01*
X134858512Y-82306348D01*
X134844328Y-82306225D01*
X134830966Y-82304821D01*
X134830965Y-82304821D01*
X134827369Y-82304443D01*
X134823765Y-82304771D01*
X134823764Y-82304771D01*
X134795645Y-82307330D01*
X134622203Y-82323114D01*
X134618730Y-82324136D01*
X134618731Y-82324136D01*
X134428043Y-82380258D01*
X134428039Y-82380260D01*
X134424572Y-82381280D01*
X134328633Y-82431436D01*
X134245209Y-82475049D01*
X134245206Y-82475051D01*
X134242002Y-82476726D01*
X134239184Y-82478992D01*
X134239182Y-82478993D01*
X134084266Y-82603548D01*
X134084263Y-82603551D01*
X134081447Y-82605815D01*
X134079121Y-82608587D01*
X134079119Y-82608589D01*
X133951351Y-82760856D01*
X133951348Y-82760860D01*
X133949024Y-82763630D01*
X133849776Y-82944162D01*
X133848682Y-82947611D01*
X133789879Y-83132983D01*
X133787484Y-83140532D01*
X133787081Y-83144123D01*
X133787081Y-83144124D01*
X133785461Y-83158570D01*
X133764520Y-83345262D01*
X133764823Y-83348871D01*
X133764823Y-83348873D01*
X133768404Y-83391519D01*
X133781759Y-83550553D01*
X133838544Y-83748586D01*
X133840196Y-83751800D01*
X133840197Y-83751803D01*
X133861106Y-83792487D01*
X133932712Y-83931818D01*
X133960655Y-83967073D01*
X133976633Y-84015104D01*
X133957999Y-84062168D01*
X133913472Y-84086244D01*
X133863887Y-84076066D01*
X133850336Y-84065364D01*
X133070463Y-83285492D01*
X133049071Y-83239616D01*
X133049422Y-83223507D01*
X133065049Y-83104808D01*
X133065682Y-83100000D01*
X133047410Y-82961207D01*
X133045677Y-82948043D01*
X133045676Y-82948040D01*
X133045044Y-82943238D01*
X132984536Y-82797159D01*
X132981586Y-82793315D01*
X132981584Y-82793311D01*
X132891237Y-82675569D01*
X132888282Y-82671718D01*
X132837244Y-82632555D01*
X132766689Y-82578416D01*
X132766685Y-82578414D01*
X132762841Y-82575464D01*
X132616762Y-82514956D01*
X132611960Y-82514324D01*
X132611957Y-82514323D01*
X132464808Y-82494951D01*
X132460000Y-82494318D01*
X132455192Y-82494951D01*
X132308043Y-82514323D01*
X132308040Y-82514324D01*
X132303238Y-82514956D01*
X132157159Y-82575464D01*
X132153315Y-82578414D01*
X132153311Y-82578416D01*
X132082756Y-82632555D01*
X132031718Y-82671718D01*
X132028763Y-82675569D01*
X131938416Y-82793311D01*
X131938414Y-82793315D01*
X131935464Y-82797159D01*
X131874956Y-82943238D01*
X131874324Y-82948040D01*
X131874323Y-82948043D01*
X131872590Y-82961207D01*
X131854318Y-83100000D01*
X131854951Y-83104808D01*
X131872699Y-83239616D01*
X131874956Y-83256762D01*
X131935464Y-83402841D01*
X131938414Y-83406685D01*
X131938416Y-83406689D01*
X132028763Y-83524431D01*
X132031718Y-83528282D01*
X132035569Y-83531237D01*
X132153311Y-83621584D01*
X132153315Y-83621586D01*
X132157159Y-83624536D01*
X132161634Y-83626390D01*
X132161640Y-83626393D01*
X132174292Y-83631633D01*
X132211613Y-83665830D01*
X132218220Y-83716016D01*
X132191023Y-83758708D01*
X132174292Y-83768367D01*
X132161640Y-83773607D01*
X132161634Y-83773610D01*
X132157159Y-83775464D01*
X132153315Y-83778414D01*
X132153311Y-83778416D01*
X132035569Y-83868763D01*
X132031718Y-83871718D01*
X132028763Y-83875569D01*
X131938416Y-83993311D01*
X131938414Y-83993315D01*
X131935464Y-83997159D01*
X131874956Y-84143238D01*
X131874324Y-84148040D01*
X131874323Y-84148043D01*
X131860735Y-84251258D01*
X131854318Y-84300000D01*
X78060500Y-84300000D01*
X78060500Y-75200000D01*
X121754318Y-75200000D01*
X121754951Y-75204808D01*
X121772699Y-75339616D01*
X121774956Y-75356762D01*
X121835464Y-75502841D01*
X121838414Y-75506685D01*
X121838416Y-75506689D01*
X121912196Y-75602841D01*
X121931718Y-75628282D01*
X121935569Y-75631237D01*
X122053311Y-75721584D01*
X122053315Y-75721586D01*
X122057159Y-75724536D01*
X122203238Y-75785044D01*
X122208040Y-75785676D01*
X122208043Y-75785677D01*
X122355192Y-75805049D01*
X122360000Y-75805682D01*
X122483507Y-75789422D01*
X122532926Y-75800378D01*
X122545492Y-75810463D01*
X123108930Y-76373901D01*
X123112515Y-76378054D01*
X123114575Y-76382269D01*
X123151181Y-76416226D01*
X123153181Y-76418152D01*
X123167277Y-76432248D01*
X123170088Y-76434176D01*
X123172707Y-76436353D01*
X123172597Y-76436485D01*
X123175773Y-76439039D01*
X123186237Y-76448745D01*
X123196646Y-76458401D01*
X123209919Y-76463696D01*
X123224355Y-76471404D01*
X123236146Y-76479493D01*
X123258319Y-76484755D01*
X123263848Y-76486067D01*
X123274181Y-76489335D01*
X123295769Y-76497947D01*
X123300622Y-76499883D01*
X123306915Y-76500500D01*
X123316008Y-76500500D01*
X123333094Y-76502500D01*
X123338414Y-76503762D01*
X123338417Y-76503762D01*
X123345066Y-76505340D01*
X123351834Y-76504419D01*
X123351837Y-76504419D01*
X123375663Y-76501176D01*
X123385642Y-76500500D01*
X128605433Y-76500500D01*
X128610906Y-76500902D01*
X128615342Y-76502425D01*
X128622166Y-76502169D01*
X128622167Y-76502169D01*
X128665241Y-76500552D01*
X128668017Y-76500500D01*
X128687948Y-76500500D01*
X128691300Y-76499876D01*
X128694691Y-76499563D01*
X128694709Y-76499753D01*
X128698755Y-76499294D01*
X128727208Y-76498226D01*
X128733485Y-76495529D01*
X128733490Y-76495528D01*
X128740343Y-76492584D01*
X128756002Y-76487826D01*
X128763336Y-76486460D01*
X128770053Y-76485209D01*
X128775868Y-76481624D01*
X128775872Y-76481623D01*
X128794290Y-76470270D01*
X128803907Y-76465274D01*
X128825262Y-76456099D01*
X128825264Y-76456098D01*
X128830063Y-76454036D01*
X128834949Y-76450022D01*
X128841380Y-76443591D01*
X128854876Y-76432923D01*
X128859532Y-76430053D01*
X128865348Y-76426468D01*
X128884039Y-76401888D01*
X128890617Y-76394354D01*
X129374508Y-75910463D01*
X129420384Y-75889071D01*
X129436492Y-75889422D01*
X129560000Y-75905682D01*
X129564808Y-75905049D01*
X129711957Y-75885677D01*
X129711960Y-75885676D01*
X129716762Y-75885044D01*
X129862841Y-75824536D01*
X129866685Y-75821586D01*
X129866689Y-75821584D01*
X129984431Y-75731237D01*
X129988282Y-75728282D01*
X130022883Y-75683189D01*
X130081584Y-75606689D01*
X130081586Y-75606685D01*
X130084536Y-75602841D01*
X130145044Y-75456762D01*
X130152733Y-75398362D01*
X130165049Y-75304808D01*
X130165682Y-75300000D01*
X130145044Y-75143238D01*
X130084536Y-74997159D01*
X130081586Y-74993315D01*
X130081584Y-74993311D01*
X129991237Y-74875569D01*
X129988282Y-74871718D01*
X129886100Y-74793311D01*
X129866689Y-74778416D01*
X129866685Y-74778414D01*
X129862841Y-74775464D01*
X129716762Y-74714956D01*
X129711960Y-74714324D01*
X129711957Y-74714323D01*
X129564808Y-74694951D01*
X129560000Y-74694318D01*
X129555192Y-74694951D01*
X129408043Y-74714323D01*
X129408040Y-74714324D01*
X129403238Y-74714956D01*
X129257159Y-74775464D01*
X129253315Y-74778414D01*
X129253311Y-74778416D01*
X129233900Y-74793311D01*
X129131718Y-74871718D01*
X129128763Y-74875569D01*
X129038416Y-74993311D01*
X129038414Y-74993315D01*
X129035464Y-74997159D01*
X128974956Y-75143238D01*
X128954318Y-75300000D01*
X128954951Y-75304808D01*
X128970578Y-75423507D01*
X128959622Y-75472926D01*
X128949537Y-75485492D01*
X128557203Y-75877826D01*
X128511327Y-75899218D01*
X128504877Y-75899500D01*
X123515124Y-75899500D01*
X123467558Y-75882187D01*
X123462798Y-75877826D01*
X123240780Y-75655808D01*
X122970463Y-75385492D01*
X122949071Y-75339616D01*
X122949422Y-75323507D01*
X122965049Y-75204808D01*
X122965682Y-75200000D01*
X122945044Y-75043238D01*
X122884536Y-74897159D01*
X122881586Y-74893315D01*
X122881584Y-74893311D01*
X122791237Y-74775569D01*
X122788282Y-74771718D01*
X122716726Y-74716811D01*
X122666689Y-74678416D01*
X122666685Y-74678414D01*
X122662841Y-74675464D01*
X122516762Y-74614956D01*
X122511960Y-74614324D01*
X122511957Y-74614323D01*
X122364808Y-74594951D01*
X122360000Y-74594318D01*
X122355192Y-74594951D01*
X122208043Y-74614323D01*
X122208040Y-74614324D01*
X122203238Y-74614956D01*
X122057159Y-74675464D01*
X122053315Y-74678414D01*
X122053311Y-74678416D01*
X122003274Y-74716811D01*
X121931718Y-74771718D01*
X121928763Y-74775569D01*
X121838416Y-74893311D01*
X121838414Y-74893315D01*
X121835464Y-74897159D01*
X121774956Y-75043238D01*
X121754318Y-75200000D01*
X78060500Y-75200000D01*
X78060500Y-72507165D01*
X124107866Y-72507165D01*
X124142952Y-72764970D01*
X124143718Y-72767598D01*
X124204336Y-72975569D01*
X124215758Y-73014757D01*
X124324686Y-73251039D01*
X124326190Y-73253333D01*
X124422349Y-73400000D01*
X124467341Y-73468625D01*
X124469169Y-73470673D01*
X124469172Y-73470677D01*
X124546006Y-73556762D01*
X124640591Y-73662735D01*
X124840629Y-73829105D01*
X125063061Y-73964080D01*
X125065590Y-73965141D01*
X125065591Y-73965141D01*
X125162271Y-74005682D01*
X125303001Y-74064695D01*
X125305664Y-74065371D01*
X125305666Y-74065372D01*
X125552518Y-74128064D01*
X125552522Y-74128065D01*
X125555177Y-74128739D01*
X125665195Y-74139817D01*
X125769444Y-74150315D01*
X125769453Y-74150315D01*
X125771286Y-74150500D01*
X125926044Y-74150500D01*
X125927386Y-74150400D01*
X125927393Y-74150400D01*
X126116737Y-74136329D01*
X126116740Y-74136329D01*
X126119466Y-74136126D01*
X126373232Y-74078705D01*
X126615723Y-73984405D01*
X126841612Y-73855299D01*
X127045936Y-73694223D01*
X127224208Y-73504714D01*
X127372511Y-73290937D01*
X127487586Y-73057587D01*
X127566906Y-72809792D01*
X127608728Y-72552994D01*
X127609348Y-72505682D01*
X127612098Y-72295580D01*
X127612134Y-72292835D01*
X127577048Y-72035030D01*
X127539092Y-71904808D01*
X127505009Y-71787873D01*
X127505007Y-71787868D01*
X127504242Y-71785243D01*
X127487093Y-71748043D01*
X127396461Y-71551449D01*
X127395314Y-71548961D01*
X127393810Y-71546667D01*
X127254166Y-71333673D01*
X127254163Y-71333670D01*
X127252659Y-71331375D01*
X127239661Y-71316811D01*
X127081240Y-71139316D01*
X127081237Y-71139313D01*
X127079409Y-71137265D01*
X126879371Y-70970895D01*
X126656939Y-70835920D01*
X126611710Y-70816954D01*
X126419532Y-70736367D01*
X126419530Y-70736366D01*
X126416999Y-70735305D01*
X126414336Y-70734629D01*
X126414334Y-70734628D01*
X126167482Y-70671936D01*
X126167478Y-70671935D01*
X126164823Y-70671261D01*
X126054805Y-70660183D01*
X125950556Y-70649685D01*
X125950547Y-70649685D01*
X125948714Y-70649500D01*
X125793956Y-70649500D01*
X125792614Y-70649600D01*
X125792607Y-70649600D01*
X125603263Y-70663671D01*
X125603260Y-70663671D01*
X125600534Y-70663874D01*
X125346768Y-70721295D01*
X125104277Y-70815595D01*
X124878388Y-70944701D01*
X124674064Y-71105777D01*
X124495792Y-71295286D01*
X124347489Y-71509063D01*
X124328945Y-71546667D01*
X124272582Y-71660961D01*
X124232414Y-71742413D01*
X124153094Y-71990208D01*
X124111272Y-72247006D01*
X124107866Y-72507165D01*
X78060500Y-72507165D01*
X78060500Y-70200000D01*
X121554318Y-70200000D01*
X121554951Y-70204808D01*
X121567883Y-70303035D01*
X121574956Y-70356762D01*
X121635464Y-70502841D01*
X121638414Y-70506685D01*
X121638416Y-70506689D01*
X121713891Y-70605049D01*
X121731718Y-70628282D01*
X121735569Y-70631237D01*
X121853311Y-70721584D01*
X121853315Y-70721586D01*
X121857159Y-70724536D01*
X122003238Y-70785044D01*
X122008040Y-70785676D01*
X122008043Y-70785677D01*
X122155192Y-70805049D01*
X122160000Y-70805682D01*
X122164808Y-70805049D01*
X122311957Y-70785677D01*
X122311960Y-70785676D01*
X122316762Y-70785044D01*
X122462841Y-70724536D01*
X122466685Y-70721586D01*
X122466689Y-70721584D01*
X122584431Y-70631237D01*
X122588282Y-70628282D01*
X122606109Y-70605049D01*
X122681584Y-70506689D01*
X122681586Y-70506685D01*
X122684536Y-70502841D01*
X122745044Y-70356762D01*
X122752118Y-70303035D01*
X122765049Y-70204808D01*
X122765682Y-70200000D01*
X122749422Y-70076493D01*
X122760378Y-70027074D01*
X122770463Y-70014508D01*
X123562797Y-69222174D01*
X123608673Y-69200782D01*
X123615123Y-69200500D01*
X127604877Y-69200500D01*
X127652443Y-69217813D01*
X127657203Y-69222174D01*
X128249537Y-69814508D01*
X128270929Y-69860384D01*
X128270578Y-69876492D01*
X128254318Y-70000000D01*
X128254951Y-70004808D01*
X128273822Y-70148145D01*
X128274956Y-70156762D01*
X128335464Y-70302841D01*
X128338414Y-70306685D01*
X128338416Y-70306689D01*
X128340165Y-70308968D01*
X128431718Y-70428282D01*
X128435569Y-70431237D01*
X128553311Y-70521584D01*
X128553315Y-70521586D01*
X128557159Y-70524536D01*
X128703238Y-70585044D01*
X128708040Y-70585676D01*
X128708043Y-70585677D01*
X128855192Y-70605049D01*
X128860000Y-70605682D01*
X128864808Y-70605049D01*
X129011957Y-70585677D01*
X129011960Y-70585676D01*
X129016762Y-70585044D01*
X129162841Y-70524536D01*
X129166685Y-70521586D01*
X129166689Y-70521584D01*
X129284431Y-70431237D01*
X129288282Y-70428282D01*
X129379835Y-70308968D01*
X129381584Y-70306689D01*
X129381586Y-70306685D01*
X129384536Y-70302841D01*
X129445044Y-70156762D01*
X129446179Y-70148145D01*
X129465049Y-70004808D01*
X129465682Y-70000000D01*
X129464235Y-69989005D01*
X129445677Y-69848043D01*
X129445676Y-69848040D01*
X129445044Y-69843238D01*
X129384536Y-69697159D01*
X129381586Y-69693315D01*
X129381584Y-69693311D01*
X129291237Y-69575569D01*
X129288282Y-69571718D01*
X129250586Y-69542793D01*
X129166689Y-69478416D01*
X129166685Y-69478414D01*
X129162841Y-69475464D01*
X129016762Y-69414956D01*
X129011960Y-69414324D01*
X129011957Y-69414323D01*
X128864808Y-69394951D01*
X128860000Y-69394318D01*
X128736493Y-69410578D01*
X128687074Y-69399622D01*
X128674508Y-69389537D01*
X128011070Y-68726099D01*
X128007485Y-68721946D01*
X128005425Y-68717731D01*
X127968818Y-68683773D01*
X127966819Y-68681848D01*
X127952723Y-68667752D01*
X127949912Y-68665824D01*
X127947293Y-68663647D01*
X127947403Y-68663515D01*
X127944227Y-68660961D01*
X127928364Y-68646246D01*
X127928363Y-68646245D01*
X127923354Y-68641599D01*
X127917012Y-68639069D01*
X127917006Y-68639065D01*
X127910077Y-68636301D01*
X127895641Y-68628593D01*
X127889493Y-68624376D01*
X127889492Y-68624375D01*
X127883854Y-68620508D01*
X127877204Y-68618930D01*
X127877202Y-68618929D01*
X127856160Y-68613936D01*
X127845824Y-68610668D01*
X127837673Y-68607416D01*
X127819378Y-68600117D01*
X127813085Y-68599500D01*
X127803988Y-68599500D01*
X127786901Y-68597500D01*
X127781585Y-68596238D01*
X127781583Y-68596238D01*
X127774934Y-68594660D01*
X127751641Y-68597830D01*
X127744337Y-68598824D01*
X127734358Y-68599500D01*
X123514573Y-68599500D01*
X123509096Y-68599098D01*
X123504658Y-68597574D01*
X123497834Y-68597830D01*
X123497832Y-68597830D01*
X123454744Y-68599448D01*
X123451968Y-68599500D01*
X123432052Y-68599500D01*
X123428695Y-68600125D01*
X123425307Y-68600438D01*
X123425290Y-68600250D01*
X123421244Y-68600706D01*
X123392792Y-68601774D01*
X123386515Y-68604471D01*
X123386510Y-68604472D01*
X123379657Y-68607416D01*
X123363998Y-68612174D01*
X123356662Y-68613540D01*
X123356660Y-68613541D01*
X123349947Y-68614791D01*
X123334397Y-68624376D01*
X123325711Y-68629730D01*
X123316094Y-68634726D01*
X123289938Y-68645964D01*
X123285051Y-68649977D01*
X123278618Y-68656410D01*
X123265123Y-68667077D01*
X123260470Y-68669945D01*
X123260468Y-68669947D01*
X123254652Y-68673532D01*
X123250516Y-68678971D01*
X123235964Y-68698108D01*
X123229386Y-68705642D01*
X122345492Y-69589537D01*
X122299616Y-69610929D01*
X122283508Y-69610578D01*
X122160000Y-69594318D01*
X122155192Y-69594951D01*
X122008043Y-69614323D01*
X122008040Y-69614324D01*
X122003238Y-69614956D01*
X121857159Y-69675464D01*
X121853315Y-69678414D01*
X121853311Y-69678416D01*
X121833900Y-69693311D01*
X121731718Y-69771718D01*
X121728763Y-69775569D01*
X121638416Y-69893311D01*
X121638414Y-69893315D01*
X121635464Y-69897159D01*
X121574956Y-70043238D01*
X121574324Y-70048040D01*
X121574323Y-70048043D01*
X121561358Y-70146524D01*
X121554318Y-70200000D01*
X78060500Y-70200000D01*
X78060500Y-65507165D01*
X81107866Y-65507165D01*
X81142952Y-65764970D01*
X81215758Y-66014757D01*
X81324686Y-66251039D01*
X81467341Y-66468625D01*
X81469169Y-66470673D01*
X81469172Y-66470677D01*
X81501331Y-66506708D01*
X81640591Y-66662735D01*
X81840629Y-66829105D01*
X82063061Y-66964080D01*
X82065590Y-66965141D01*
X82065591Y-66965141D01*
X82111531Y-66984405D01*
X82303001Y-67064695D01*
X82305664Y-67065371D01*
X82305666Y-67065372D01*
X82552518Y-67128064D01*
X82552522Y-67128065D01*
X82555177Y-67128739D01*
X82665195Y-67139817D01*
X82769444Y-67150315D01*
X82769453Y-67150315D01*
X82771286Y-67150500D01*
X82926044Y-67150500D01*
X82927386Y-67150400D01*
X82927393Y-67150400D01*
X83116737Y-67136329D01*
X83116740Y-67136329D01*
X83119466Y-67136126D01*
X83373232Y-67078705D01*
X83615723Y-66984405D01*
X83841612Y-66855299D01*
X84045936Y-66694223D01*
X84224208Y-66504714D01*
X84372511Y-66290937D01*
X84487586Y-66057587D01*
X84566906Y-65809792D01*
X84608728Y-65552994D01*
X84609328Y-65507165D01*
X107107866Y-65507165D01*
X107142952Y-65764970D01*
X107215758Y-66014757D01*
X107324686Y-66251039D01*
X107467341Y-66468625D01*
X107469169Y-66470673D01*
X107469172Y-66470677D01*
X107501331Y-66506708D01*
X107640591Y-66662735D01*
X107840629Y-66829105D01*
X108063061Y-66964080D01*
X108065590Y-66965141D01*
X108065591Y-66965141D01*
X108111531Y-66984405D01*
X108303001Y-67064695D01*
X108305664Y-67065371D01*
X108305666Y-67065372D01*
X108552518Y-67128064D01*
X108552522Y-67128065D01*
X108555177Y-67128739D01*
X108665195Y-67139817D01*
X108769444Y-67150315D01*
X108769453Y-67150315D01*
X108771286Y-67150500D01*
X108926044Y-67150500D01*
X108927386Y-67150400D01*
X108927393Y-67150400D01*
X109116737Y-67136329D01*
X109116740Y-67136329D01*
X109119466Y-67136126D01*
X109373232Y-67078705D01*
X109615723Y-66984405D01*
X109841612Y-66855299D01*
X110045936Y-66694223D01*
X110224208Y-66504714D01*
X110372511Y-66290937D01*
X110487586Y-66057587D01*
X110566906Y-65809792D01*
X110608728Y-65552994D01*
X110612134Y-65292835D01*
X110577048Y-65035030D01*
X110504242Y-64785243D01*
X110395314Y-64548961D01*
X110327524Y-64445563D01*
X110254166Y-64333673D01*
X110254163Y-64333670D01*
X110252659Y-64331375D01*
X110234309Y-64310815D01*
X110081240Y-64139316D01*
X110081237Y-64139313D01*
X110079409Y-64137265D01*
X109879371Y-63970895D01*
X109656939Y-63835920D01*
X109611710Y-63816954D01*
X109419532Y-63736367D01*
X109419530Y-63736366D01*
X109416999Y-63735305D01*
X109414336Y-63734629D01*
X109414334Y-63734628D01*
X109167482Y-63671936D01*
X109167478Y-63671935D01*
X109164823Y-63671261D01*
X109054805Y-63660183D01*
X108950556Y-63649685D01*
X108950547Y-63649685D01*
X108948714Y-63649500D01*
X108793956Y-63649500D01*
X108792614Y-63649600D01*
X108792607Y-63649600D01*
X108603263Y-63663671D01*
X108603260Y-63663671D01*
X108600534Y-63663874D01*
X108346768Y-63721295D01*
X108104277Y-63815595D01*
X107878388Y-63944701D01*
X107674064Y-64105777D01*
X107495792Y-64295286D01*
X107347489Y-64509063D01*
X107232414Y-64742413D01*
X107153094Y-64990208D01*
X107111272Y-65247006D01*
X107107866Y-65507165D01*
X84609328Y-65507165D01*
X84612134Y-65292835D01*
X84577048Y-65035030D01*
X84504242Y-64785243D01*
X84395314Y-64548961D01*
X84327524Y-64445563D01*
X84254166Y-64333673D01*
X84254163Y-64333670D01*
X84252659Y-64331375D01*
X84234309Y-64310815D01*
X84081240Y-64139316D01*
X84081237Y-64139313D01*
X84079409Y-64137265D01*
X83879371Y-63970895D01*
X83656939Y-63835920D01*
X83611710Y-63816954D01*
X83419532Y-63736367D01*
X83419530Y-63736366D01*
X83416999Y-63735305D01*
X83414336Y-63734629D01*
X83414334Y-63734628D01*
X83167482Y-63671936D01*
X83167478Y-63671935D01*
X83164823Y-63671261D01*
X83054805Y-63660183D01*
X82950556Y-63649685D01*
X82950547Y-63649685D01*
X82948714Y-63649500D01*
X82793956Y-63649500D01*
X82792614Y-63649600D01*
X82792607Y-63649600D01*
X82603263Y-63663671D01*
X82603260Y-63663671D01*
X82600534Y-63663874D01*
X82346768Y-63721295D01*
X82104277Y-63815595D01*
X81878388Y-63944701D01*
X81674064Y-64105777D01*
X81495792Y-64295286D01*
X81347489Y-64509063D01*
X81232414Y-64742413D01*
X81153094Y-64990208D01*
X81111272Y-65247006D01*
X81107866Y-65507165D01*
X78060500Y-65507165D01*
X78060500Y-56674500D01*
X78077813Y-56626934D01*
X78121650Y-56601624D01*
X78134500Y-56600500D01*
X201585500Y-56600500D01*
X201633066Y-56617813D01*
G37*
G04 #@! TD.AperFunction*
M02*
