M48
; DRILL file {KiCad 6.0.5-a6ca702e91~116~ubuntu20.04.1} date Mo 16 Mai 2022 06:16:47 CEST
; FORMAT={-:-/ absolute / inch / decimal}
; #@! TF.CreationDate,2022-05-16T06:16:47+02:00
; #@! TF.GenerationSoftware,Kicad,Pcbnew,6.0.5-a6ca702e91~116~ubuntu20.04.1
; #@! TF.FileFunction,Plated,1,2,PTH
FMAT,2
INCH
; #@! TA.AperFunction,Plated,PTH,ViaDrill
T1C0.0157
; #@! TA.AperFunction,Plated,PTH,ComponentDrill
T2C0.0236
; #@! TA.AperFunction,Plated,PTH,ComponentDrill
T3C0.0315
; #@! TA.AperFunction,Plated,PTH,ComponentDrill
T4C0.0394
%
G90
G05
T1
X4.7976Y-2.7677
X4.7976Y-2.9685
X5.1126Y-2.7677
X5.1126Y-2.9685
X5.215Y-3.2717
X5.215Y-3.3189
X5.3094Y-2.8465
X5.3488Y-2.4272
X7.3685Y-3.1102
X7.3921Y-2.8268
X7.6717Y-3.4409
X7.6874Y-2.9567
X7.7465Y-2.8307
X7.8488Y-2.8898
X7.9197Y-3.4606
X8.1201Y-3.4846
X8.2819Y-3.9724
X8.2819Y-4.0472
X8.4157Y-2.9567
X8.4512Y-3.9961
T3
X3.8902Y-4.9606
X3.8902Y-5.0394
X8.2819Y-4.6142
X8.2819Y-4.6929
X8.5378Y-4.6142
X8.5378Y-4.6929
T4
X5.3079Y-3.2819
X5.3079Y-3.3819
X5.3094Y-3.715
X5.3094Y-3.815
X5.3094Y-4.1087
X5.3094Y-4.2087
X5.4079Y-3.2819
X5.4079Y-3.3819
X5.4094Y-3.715
X5.4094Y-3.815
X5.4094Y-4.1087
X5.4094Y-4.2087
X5.5079Y-3.2819
X5.5079Y-3.3819
X5.5094Y-3.715
X5.5094Y-3.815
X5.5094Y-4.1087
X5.5094Y-4.2087
X5.6079Y-3.2819
X5.6079Y-3.3819
X5.6094Y-3.715
X5.6094Y-3.815
X5.6094Y-4.1087
X5.6094Y-4.2087
X5.7079Y-3.2819
X5.7079Y-3.3819
X5.7094Y-3.715
X5.7094Y-3.815
X5.7094Y-4.1087
X5.7094Y-4.2087
X5.8079Y-3.2819
X5.8079Y-3.3819
X5.8094Y-3.715
X5.8094Y-3.815
X5.8094Y-4.1087
X5.8094Y-4.2087
X5.9079Y-3.2819
X5.9079Y-3.3819
X5.9094Y-3.715
X5.9094Y-3.815
X5.9094Y-4.1087
X5.9094Y-4.2087
X6.0079Y-3.2819
X6.0079Y-3.3819
X6.0094Y-3.715
X6.0094Y-3.815
X6.0094Y-4.1087
X6.0094Y-4.2087
X6.1079Y-3.2819
X6.1079Y-3.3819
X6.1094Y-3.715
X6.1094Y-3.815
X6.1094Y-4.1087
X6.1094Y-4.2087
X6.2079Y-3.2819
X6.2079Y-3.3819
X6.2094Y-3.715
X6.2094Y-3.815
X6.2094Y-4.1087
X6.2094Y-4.2087
X6.3079Y-3.2819
X6.3079Y-3.3819
X6.3094Y-3.715
X6.3094Y-3.815
X6.3094Y-4.1087
X6.3094Y-4.2087
X6.4079Y-3.2819
X6.4079Y-3.3819
X6.4094Y-3.715
X6.4094Y-3.815
X6.4094Y-4.1087
X6.4094Y-4.2087
X6.5079Y-3.2819
X6.5079Y-3.3819
X6.5094Y-3.715
X6.5094Y-3.815
X6.5094Y-4.1087
X6.5094Y-4.2087
X6.6079Y-3.2819
X6.6079Y-3.3819
X6.6094Y-3.715
X6.6094Y-3.815
X6.6094Y-4.1087
X6.6094Y-4.2087
X6.7079Y-3.2819
X6.7079Y-3.3819
X6.7094Y-3.715
X6.7094Y-3.815
X6.7094Y-4.1087
X6.7094Y-4.2087
X6.8079Y-3.2819
X6.8079Y-3.3819
X6.8094Y-3.715
X6.8094Y-3.815
X6.8094Y-4.1087
X6.8094Y-4.2087
X6.9079Y-3.2819
X6.9079Y-3.3819
X6.9094Y-3.715
X6.9094Y-3.815
X6.9094Y-4.1087
X6.9094Y-4.2087
X7.0079Y-3.2819
X7.0079Y-3.3819
X7.0094Y-3.715
X7.0094Y-3.815
X7.0094Y-4.1087
X7.0094Y-4.2087
X7.1079Y-3.2819
X7.1079Y-3.3819
X7.1094Y-3.715
X7.1094Y-3.815
X7.1094Y-4.1087
X7.1094Y-4.2087
X7.2079Y-3.2819
X7.2079Y-3.3819
X7.2094Y-3.715
X7.2094Y-3.815
X7.2094Y-4.1087
X7.2094Y-4.2087
T2
G00X8.3545Y-2.7886
M15
G01X8.3978Y-2.7886
M16
G05
G00X8.3545Y-3.1287
M15
G01X8.3978Y-3.1287
M16
G05
G00X8.3545Y-3.8291
M15
G01X8.3978Y-3.8291
M16
G05
G00X8.3545Y-4.1693
M15
G01X8.3978Y-4.1693
M16
G05
G00X8.5289Y-2.7886
M15
G01X8.5526Y-2.7886
M16
G05
G00X8.5289Y-3.1287
M15
G01X8.5526Y-3.1287
M16
G05
G00X8.5289Y-3.8291
M15
G01X8.5526Y-3.8291
M16
G05
G00X8.5289Y-4.1693
M15
G01X8.5526Y-4.1693
M16
G05
T0
M30
