<?xml version="1.0" standalone="no"?>
 <!DOCTYPE svg PUBLIC "-//W3C//DTD SVG 1.1//EN" 
 "http://www.w3.org/Graphics/SVG/1.1/DTD/svg11.dtd"> 
<svg xmlns="http://www.w3.org/2000/svg" version="1.1" 
    width="29.7002cm" height="21.0007cm" viewBox="0 0 116930 82680 ">
<title>SVG Picture created as mainboard-PTH-drl_map.svg date 2022/04/22 05:32:49 </title>
  <desc>Picture generated by PCBNEW </desc>
<g style="fill:#000000; fill-opacity:1;stroke:#000000; stroke-opacity:1;
stroke-linecap:round; stroke-linejoin:round; "
 transform="translate(0 0) scale(1 1)">
</g>
<g style="fill:#000000; fill-opacity:0.0; 
stroke:#000000; stroke-width:-0.000393701; stroke-opacity:1; 
stroke-linecap:round; stroke-linejoin:round;">
</g>
<g style="fill:#000000; fill-opacity:0.0; 
stroke:#000000; stroke-width:78.7402; stroke-opacity:1; 
stroke-linecap:round; stroke-linejoin:round;">
<path d="M79472 42677
L79472 52913
" />
<path d="M81440 42677
L79472 42677
" />
<path d="M77897 47007
L77897 37165
" />
<path d="M77897 47007
L51125 47007
" />
<path d="M81440 42677
L81440 27322
" />
<path d="M79472 27322
L81440 27322
" />
<path d="M10574 20629
L16480 20629
" />
<path d="M51125 37165
L51125 47007
" />
<path d="M77897 37165
L51125 37165
" />
<path d="M16480 22204
L16480 20629
" />
<path d="M10574 26929
L10574 20629
" />
<path d="M16480 22204
L79472 22204
" />
<path d="M79472 27322
L79472 22204
" />
<path d="M30653 52913
L79472 52913
" />
<path d="M30653 26929
L30653 52913
" />
<path d="M30653 26929
L10574 26929
" />
</g>
<g style="fill:#000000; fill-opacity:0.0; 
stroke:#000000; stroke-width:78.7402; stroke-opacity:1; 
stroke-linecap:round; stroke-linejoin:round;">
<path d="M55157 35574
L55551 35968
" />
<path d="M55551 35574
L55157 35968
" />
<path d="M55157 36574
L55551 36968
" />
<path d="M55551 36574
L55157 36968
" />
<path d="M56157 35574
L56551 35968
" />
<path d="M56551 35574
L56157 35968
" />
<path d="M56157 36574
L56551 36968
" />
<path d="M56551 36574
L56157 36968
" />
<path d="M57157 35574
L57551 35968
" />
<path d="M57551 35574
L57157 35968
" />
<path d="M57157 36574
L57551 36968
" />
<path d="M57551 36574
L57157 36968
" />
<path d="M58157 35574
L58551 35968
" />
<path d="M58551 35574
L58157 35968
" />
<path d="M58157 36574
L58551 36968
" />
<path d="M58551 36574
L58157 36968
" />
<path d="M59157 35574
L59551 35968
" />
<path d="M59551 35574
L59157 35968
" />
<path d="M59157 36574
L59551 36968
" />
<path d="M59551 36574
L59157 36968
" />
<path d="M60157 35574
L60551 35968
" />
<path d="M60551 35574
L60157 35968
" />
<path d="M60157 36574
L60551 36968
" />
<path d="M60551 36574
L60157 36968
" />
<path d="M61157 35574
L61551 35968
" />
<path d="M61551 35574
L61157 35968
" />
<path d="M61157 36574
L61551 36968
" />
<path d="M61551 36574
L61157 36968
" />
<path d="M62157 35574
L62551 35968
" />
<path d="M62551 35574
L62157 35968
" />
<path d="M62157 36574
L62551 36968
" />
<path d="M62551 36574
L62157 36968
" />
<path d="M63157 35574
L63551 35968
" />
<path d="M63551 35574
L63157 35968
" />
<path d="M63157 36574
L63551 36968
" />
<path d="M63551 36574
L63157 36968
" />
<path d="M64157 35574
L64551 35968
" />
<path d="M64551 35574
L64157 35968
" />
<path d="M64157 36574
L64551 36968
" />
<path d="M64551 36574
L64157 36968
" />
<path d="M65157 35574
L65551 35968
" />
<path d="M65551 35574
L65157 35968
" />
<path d="M65157 36574
L65551 36968
" />
<path d="M65551 36574
L65157 36968
" />
<path d="M66157 35574
L66551 35968
" />
<path d="M66551 35574
L66157 35968
" />
<path d="M66157 36574
L66551 36968
" />
<path d="M66551 36574
L66157 36968
" />
<path d="M67157 35574
L67551 35968
" />
<path d="M67551 35574
L67157 35968
" />
<path d="M67157 36574
L67551 36968
" />
<path d="M67551 36574
L67157 36968
" />
<path d="M68157 35574
L68551 35968
" />
<path d="M68551 35574
L68157 35968
" />
<path d="M68157 36574
L68551 36968
" />
<path d="M68551 36574
L68157 36968
" />
<path d="M69157 35574
L69551 35968
" />
<path d="M69551 35574
L69157 35968
" />
<path d="M69157 36574
L69551 36968
" />
<path d="M69551 36574
L69157 36968
" />
<path d="M70157 35574
L70551 35968
" />
<path d="M70551 35574
L70157 35968
" />
<path d="M70157 36574
L70551 36968
" />
<path d="M70551 36574
L70157 36968
" />
<path d="M71157 35574
L71551 35968
" />
<path d="M71551 35574
L71157 35968
" />
<path d="M71157 36574
L71551 36968
" />
<path d="M71551 36574
L71157 36968
" />
<path d="M72157 35574
L72551 35968
" />
<path d="M72551 35574
L72157 35968
" />
<path d="M72157 36574
L72551 36968
" />
<path d="M72551 36574
L72157 36968
" />
<path d="M73157 35574
L73551 35968
" />
<path d="M73551 35574
L73157 35968
" />
<path d="M73157 36574
L73551 36968
" />
<path d="M73551 36574
L73157 36968
" />
<path d="M74157 35574
L74551 35968
" />
<path d="M74551 35574
L74157 35968
" />
<path d="M74157 36574
L74551 36968
" />
<path d="M74551 36574
L74157 36968
" />
</g>
<g style="fill:#000000; fill-opacity:0.0; 
stroke:#000000; stroke-width:118.11; stroke-opacity:1; 
stroke-linecap:round; stroke-linejoin:round;">
<text x="11322.8" y="54842.5"
textLength="8720.47" font-size="1574.8" lengthAdjust="spacingAndGlyphs"
text-anchor="start" opacity="0">Drill Map:</text>
<path d="M11663 54786
L11663 53605
L11944 53605
L12113 53661
L12225 53773
L12281 53886
L12338 54111
L12338 54280
L12281 54505
L12225 54617
L12113 54730
L11944 54786
L11663 54786
" />
<path d="M12844 54786
L12844 53998
" />
<path d="M12844 54223
L12900 54111
L12956 54055
L13069 53998
L13181 53998
" />
<path d="M13575 54786
L13575 53998
" />
<path d="M13575 53605
L13519 53661
L13575 53717
L13631 53661
L13575 53605
L13575 53717
" />
<path d="M14306 54786
L14194 54730
L14137 54617
L14137 53605
" />
<path d="M14925 54786
L14812 54730
L14756 54617
L14756 53605
" />
<path d="M16275 54786
L16275 53605
L16668 54448
L17062 53605
L17062 54786
" />
<path d="M18131 54786
L18131 54167
L18074 54055
L17962 53998
L17737 53998
L17624 54055
" />
<path d="M18131 54730
L18018 54786
L17737 54786
L17624 54730
L17568 54617
L17568 54505
L17624 54392
L17737 54336
L18018 54336
L18131 54280
" />
<path d="M18693 53998
L18693 55179
" />
<path d="M18693 54055
L18805 53998
L19030 53998
L19143 54055
L19199 54111
L19255 54223
L19255 54561
L19199 54673
L19143 54730
L19030 54786
L18805 54786
L18693 54730
" />
<path d="M19762 54673
L19818 54730
L19762 54786
L19705 54730
L19762 54673
L19762 54786
" />
<path d="M19762 54055
L19818 54111
L19762 54167
L19705 54111
L19762 54055
L19762 54167
" />
<path d="M10141 56535
L10535 56929
" />
<path d="M10535 56535
L10141 56929
" />
<text x="11322.8" y="57322.8"
textLength="26552.3" font-size="1574.8" lengthAdjust="spacingAndGlyphs"
text-anchor="start" opacity="0">1.00mm / 0.039" (40 holes)</text>
<path d="M12281 57266
L11606 57266
" />
<path d="M11944 57266
L11944 56085
L11831 56254
L11719 56366
L11606 56422
" />
<path d="M12787 57154
L12844 57210
L12787 57266
L12731 57210
L12787 57154
L12787 57266
" />
<path d="M13575 56085
L13687 56085
L13800 56141
L13856 56197
L13912 56310
L13969 56535
L13969 56816
L13912 57041
L13856 57154
L13800 57210
L13687 57266
L13575 57266
L13462 57210
L13406 57154
L13350 57041
L13294 56816
L13294 56535
L13350 56310
L13406 56197
L13462 56141
L13575 56085
" />
<path d="M14700 56085
L14812 56085
L14925 56141
L14981 56197
L15037 56310
L15093 56535
L15093 56816
L15037 57041
L14981 57154
L14925 57210
L14812 57266
L14700 57266
L14587 57210
L14531 57154
L14475 57041
L14419 56816
L14419 56535
L14475 56310
L14531 56197
L14587 56141
L14700 56085
" />
<path d="M15600 57266
L15600 56479
" />
<path d="M15600 56591
L15656 56535
L15768 56479
L15937 56479
L16050 56535
L16106 56647
L16106 57266
" />
<path d="M16106 56647
L16162 56535
L16275 56479
L16443 56479
L16556 56535
L16612 56647
L16612 57266
" />
<path d="M17174 57266
L17174 56479
" />
<path d="M17174 56591
L17231 56535
L17343 56479
L17512 56479
L17624 56535
L17681 56647
L17681 57266
" />
<path d="M17681 56647
L17737 56535
L17849 56479
L18018 56479
L18131 56535
L18187 56647
L18187 57266
" />
<path d="M20493 56029
L19480 57547
" />
<path d="M22011 56085
L22124 56085
L22236 56141
L22293 56197
L22349 56310
L22405 56535
L22405 56816
L22349 57041
L22293 57154
L22236 57210
L22124 57266
L22011 57266
L21899 57210
L21843 57154
L21786 57041
L21730 56816
L21730 56535
L21786 56310
L21843 56197
L21899 56141
L22011 56085
" />
<path d="M22911 57154
L22967 57210
L22911 57266
L22855 57210
L22911 57154
L22911 57266
" />
<path d="M23699 56085
L23811 56085
L23924 56141
L23980 56197
L24036 56310
L24092 56535
L24092 56816
L24036 57041
L23980 57154
L23924 57210
L23811 57266
L23699 57266
L23586 57210
L23530 57154
L23474 57041
L23417 56816
L23417 56535
L23474 56310
L23530 56197
L23586 56141
L23699 56085
" />
<path d="M24486 56085
L25217 56085
L24823 56535
L24992 56535
L25105 56591
L25161 56647
L25217 56760
L25217 57041
L25161 57154
L25105 57210
L24992 57266
L24655 57266
L24542 57210
L24486 57154
" />
<path d="M25780 57266
L26005 57266
L26117 57210
L26173 57154
L26286 56985
L26342 56760
L26342 56310
L26286 56197
L26230 56141
L26117 56085
L25892 56085
L25780 56141
L25723 56197
L25667 56310
L25667 56591
L25723 56704
L25780 56760
L25892 56816
L26117 56816
L26230 56760
L26286 56704
L26342 56591
" />
<path d="M26792 56085
L26792 56310
" />
<path d="M27242 56085
L27242 56310
" />
<path d="M28985 57716
L28929 57660
L28817 57491
L28760 57379
L28704 57210
L28648 56929
L28648 56704
L28704 56422
L28760 56254
L28817 56141
L28929 55973
L28985 55916
" />
<path d="M29942 56479
L29942 57266
" />
<path d="M29660 56029
L29379 56872
L30110 56872
" />
<path d="M30785 56085
L30898 56085
L31010 56141
L31066 56197
L31123 56310
L31179 56535
L31179 56816
L31123 57041
L31066 57154
L31010 57210
L30898 57266
L30785 57266
L30673 57210
L30616 57154
L30560 57041
L30504 56816
L30504 56535
L30560 56310
L30616 56197
L30673 56141
L30785 56085
" />
<path d="M32585 57266
L32585 56085
" />
<path d="M33091 57266
L33091 56647
L33035 56535
L32922 56479
L32754 56479
L32641 56535
L32585 56591
" />
<path d="M33822 57266
L33710 57210
L33654 57154
L33597 57041
L33597 56704
L33654 56591
L33710 56535
L33822 56479
L33991 56479
L34104 56535
L34160 56591
L34216 56704
L34216 57041
L34160 57154
L34104 57210
L33991 57266
L33822 57266
" />
<path d="M34891 57266
L34778 57210
L34722 57097
L34722 56085
" />
<path d="M35791 57210
L35678 57266
L35453 57266
L35341 57210
L35285 57097
L35285 56647
L35341 56535
L35453 56479
L35678 56479
L35791 56535
L35847 56647
L35847 56760
L35285 56872
" />
<path d="M36297 57210
L36410 57266
L36634 57266
L36747 57210
L36803 57097
L36803 57041
L36747 56929
L36634 56872
L36466 56872
L36353 56816
L36297 56704
L36297 56647
L36353 56535
L36466 56479
L36634 56479
L36747 56535
" />
<path d="M37197 57716
L37253 57660
L37366 57491
L37422 57379
L37478 57210
L37534 56929
L37534 56704
L37478 56422
L37422 56254
L37366 56141
L37253 55973
L37197 55916
" />
</g> 
</svg>
