<?xml version="1.0" standalone="no"?>
 <!DOCTYPE svg PUBLIC "-//W3C//DTD SVG 1.1//EN" 
 "http://www.w3.org/Graphics/SVG/1.1/DTD/svg11.dtd"> 
<svg xmlns="http://www.w3.org/2000/svg" version="1.1" 
    width="29.7002cm" height="21.0007cm" viewBox="0 0 116930 82680 ">
<title>SVG Picture created as mainboard-NPTH-drl_map.svg date 2022/04/22 05:32:49 </title>
  <desc>Picture generated by PCBNEW </desc>
<g style="fill:#000000; fill-opacity:1;stroke:#000000; stroke-opacity:1;
stroke-linecap:round; stroke-linejoin:round; "
 transform="translate(0 0) scale(1 1)">
</g>
<g style="fill:#000000; fill-opacity:0.0; 
stroke:#000000; stroke-width:-0.000393701; stroke-opacity:1; 
stroke-linecap:round; stroke-linejoin:round;">
</g>
<g style="fill:#000000; fill-opacity:0.0; 
stroke:#000000; stroke-width:78.7402; stroke-opacity:1; 
stroke-linecap:round; stroke-linejoin:round;">
<path d="M79472 42677
L79472 52913
" />
<path d="M81440 42677
L79472 42677
" />
<path d="M77897 47007
L77897 37165
" />
<path d="M77897 47007
L51125 47007
" />
<path d="M81440 42677
L81440 27322
" />
<path d="M79472 27322
L81440 27322
" />
<path d="M10574 20629
L16480 20629
" />
<path d="M51125 37165
L51125 47007
" />
<path d="M77897 37165
L51125 37165
" />
<path d="M16480 22204
L16480 20629
" />
<path d="M10574 26929
L10574 20629
" />
<path d="M16480 22204
L79472 22204
" />
<path d="M79472 27322
L79472 22204
" />
<path d="M30653 52913
L79472 52913
" />
<path d="M30653 26929
L30653 52913
" />
<path d="M30653 26929
L10574 26929
" />
</g>
<g style="fill:#000000; fill-opacity:0.0; 
stroke:#000000; stroke-width:78.7402; stroke-opacity:1; 
stroke-linecap:round; stroke-linejoin:round;">
<path d="M32031 25157
L33212 26338
" />
<path d="M33212 25157
L32031 26338
" />
<path d="M42267 25157
L43448 26338
" />
<path d="M43448 25157
L42267 26338
" />
<path d="M75338 22795
L76519 23976
" />
<path d="M76519 22795
L75338 23976
" />
<path d="M42267 51141
L43448 52322
" />
<path d="M43448 51141
L42267 52322
" />
<path d="M32031 51141
L33212 52322
" />
<path d="M33212 51141
L32031 52322
" />
</g>
<g style="fill:#000000; fill-opacity:0.0; 
stroke:#000000; stroke-width:118.11; stroke-opacity:1; 
stroke-linecap:round; stroke-linejoin:round;">
<text x="11322.8" y="54842.5"
textLength="8779.53" font-size="1574.8" lengthAdjust="spacingAndGlyphs"
text-anchor="start" opacity="0">Drill Map:</text>
<path d="M11663 54786
L11663 53605
L11944 53605
L12113 53661
L12225 53773
L12281 53886
L12338 54111
L12338 54280
L12281 54505
L12225 54617
L12113 54730
L11944 54786
L11663 54786
" />
<path d="M12844 54786
L12844 53998
" />
<path d="M12844 54223
L12900 54111
L12956 54055
L13069 53998
L13181 53998
" />
<path d="M13575 54786
L13575 53998
" />
<path d="M13575 53605
L13519 53661
L13575 53717
L13631 53661
L13575 53605
L13575 53717
" />
<path d="M14306 54786
L14194 54730
L14137 54617
L14137 53605
" />
<path d="M14925 54786
L14812 54730
L14756 54617
L14756 53605
" />
<path d="M16275 54786
L16275 53605
L16668 54448
L17062 53605
L17062 54786
" />
<path d="M18131 54786
L18131 54167
L18074 54055
L17962 53998
L17737 53998
L17624 54055
" />
<path d="M18131 54730
L18018 54786
L17737 54786
L17624 54730
L17568 54617
L17568 54505
L17624 54392
L17737 54336
L18018 54336
L18131 54280
" />
<path d="M18693 53998
L18693 55179
" />
<path d="M18693 54055
L18805 53998
L19030 53998
L19143 54055
L19199 54111
L19255 54223
L19255 54561
L19199 54673
L19143 54730
L19030 54786
L18805 54786
L18693 54730
" />
<path d="M19762 54673
L19818 54730
L19762 54786
L19705 54730
L19762 54673
L19762 54786
" />
<path d="M19762 54055
L19818 54111
L19762 54167
L19705 54111
L19762 54055
L19762 54167
" />
<path d="M9354 56141
L10535 57322
" />
<path d="M10535 56141
L9354 57322
" />
<text x="11322.8" y="57322.8"
textLength="37126" font-size="1574.8" lengthAdjust="spacingAndGlyphs"
text-anchor="start" opacity="0">3.00mm / 0.118" (5 holes) (not plated)</text>
<path d="M11550 56085
L12281 56085
L11888 56535
L12056 56535
L12169 56591
L12225 56647
L12281 56760
L12281 57041
L12225 57154
L12169 57210
L12056 57266
L11719 57266
L11606 57210
L11550 57154
" />
<path d="M12787 57154
L12844 57210
L12787 57266
L12731 57210
L12787 57154
L12787 57266
" />
<path d="M13575 56085
L13687 56085
L13800 56141
L13856 56197
L13912 56310
L13969 56535
L13969 56816
L13912 57041
L13856 57154
L13800 57210
L13687 57266
L13575 57266
L13462 57210
L13406 57154
L13350 57041
L13294 56816
L13294 56535
L13350 56310
L13406 56197
L13462 56141
L13575 56085
" />
<path d="M14700 56085
L14812 56085
L14925 56141
L14981 56197
L15037 56310
L15093 56535
L15093 56816
L15037 57041
L14981 57154
L14925 57210
L14812 57266
L14700 57266
L14587 57210
L14531 57154
L14475 57041
L14419 56816
L14419 56535
L14475 56310
L14531 56197
L14587 56141
L14700 56085
" />
<path d="M15600 57266
L15600 56479
" />
<path d="M15600 56591
L15656 56535
L15768 56479
L15937 56479
L16050 56535
L16106 56647
L16106 57266
" />
<path d="M16106 56647
L16162 56535
L16275 56479
L16443 56479
L16556 56535
L16612 56647
L16612 57266
" />
<path d="M17174 57266
L17174 56479
" />
<path d="M17174 56591
L17231 56535
L17343 56479
L17512 56479
L17624 56535
L17681 56647
L17681 57266
" />
<path d="M17681 56647
L17737 56535
L17849 56479
L18018 56479
L18131 56535
L18187 56647
L18187 57266
" />
<path d="M20493 56029
L19480 57547
" />
<path d="M22011 56085
L22124 56085
L22236 56141
L22293 56197
L22349 56310
L22405 56535
L22405 56816
L22349 57041
L22293 57154
L22236 57210
L22124 57266
L22011 57266
L21899 57210
L21843 57154
L21786 57041
L21730 56816
L21730 56535
L21786 56310
L21843 56197
L21899 56141
L22011 56085
" />
<path d="M22911 57154
L22967 57210
L22911 57266
L22855 57210
L22911 57154
L22911 57266
" />
<path d="M24092 57266
L23417 57266
" />
<path d="M23755 57266
L23755 56085
L23642 56254
L23530 56366
L23417 56422
" />
<path d="M25217 57266
L24542 57266
" />
<path d="M24880 57266
L24880 56085
L24767 56254
L24655 56366
L24542 56422
" />
<path d="M25892 56591
L25780 56535
L25723 56479
L25667 56366
L25667 56310
L25723 56197
L25780 56141
L25892 56085
L26117 56085
L26230 56141
L26286 56197
L26342 56310
L26342 56366
L26286 56479
L26230 56535
L26117 56591
L25892 56591
L25780 56647
L25723 56704
L25667 56816
L25667 57041
L25723 57154
L25780 57210
L25892 57266
L26117 57266
L26230 57210
L26286 57154
L26342 57041
L26342 56816
L26286 56704
L26230 56647
L26117 56591
" />
<path d="M26792 56085
L26792 56310
" />
<path d="M27242 56085
L27242 56310
" />
<path d="M28985 57716
L28929 57660
L28817 57491
L28760 57379
L28704 57210
L28648 56929
L28648 56704
L28704 56422
L28760 56254
L28817 56141
L28929 55973
L28985 55916
" />
<path d="M29998 56085
L29435 56085
L29379 56647
L29435 56591
L29548 56535
L29829 56535
L29942 56591
L29998 56647
L30054 56760
L30054 57041
L29998 57154
L29942 57210
L29829 57266
L29548 57266
L29435 57210
L29379 57154
" />
<path d="M31460 57266
L31460 56085
" />
<path d="M31966 57266
L31966 56647
L31910 56535
L31798 56479
L31629 56479
L31516 56535
L31460 56591
" />
<path d="M32697 57266
L32585 57210
L32529 57154
L32473 57041
L32473 56704
L32529 56591
L32585 56535
L32697 56479
L32866 56479
L32979 56535
L33035 56591
L33091 56704
L33091 57041
L33035 57154
L32979 57210
L32866 57266
L32697 57266
" />
<path d="M33766 57266
L33654 57210
L33597 57097
L33597 56085
" />
<path d="M34666 57210
L34553 57266
L34329 57266
L34216 57210
L34160 57097
L34160 56647
L34216 56535
L34329 56479
L34553 56479
L34666 56535
L34722 56647
L34722 56760
L34160 56872
" />
<path d="M35172 57210
L35285 57266
L35510 57266
L35622 57210
L35678 57097
L35678 57041
L35622 56929
L35510 56872
L35341 56872
L35228 56816
L35172 56704
L35172 56647
L35228 56535
L35341 56479
L35510 56479
L35622 56535
" />
<path d="M36072 57716
L36128 57660
L36241 57491
L36297 57379
L36353 57210
L36410 56929
L36410 56704
L36353 56422
L36297 56254
L36241 56141
L36128 55973
L36072 55916
" />
<path d="M38209 57716
L38153 57660
L38041 57491
L37984 57379
L37928 57210
L37872 56929
L37872 56704
L37928 56422
L37984 56254
L38041 56141
L38153 55973
L38209 55916
" />
<path d="M38659 56479
L38659 57266
" />
<path d="M38659 56591
L38715 56535
L38828 56479
L38997 56479
L39109 56535
L39165 56647
L39165 57266
" />
<path d="M39897 57266
L39784 57210
L39728 57154
L39672 57041
L39672 56704
L39728 56591
L39784 56535
L39897 56479
L40065 56479
L40178 56535
L40234 56591
L40290 56704
L40290 57041
L40234 57154
L40178 57210
L40065 57266
L39897 57266
" />
<path d="M40628 56479
L41078 56479
" />
<path d="M40796 56085
L40796 57097
L40853 57210
L40965 57266
L41078 57266
" />
<path d="M42371 56479
L42371 57660
" />
<path d="M42371 56535
L42484 56479
L42709 56479
L42821 56535
L42877 56591
L42934 56704
L42934 57041
L42877 57154
L42821 57210
L42709 57266
L42484 57266
L42371 57210
" />
<path d="M43609 57266
L43496 57210
L43440 57097
L43440 56085
" />
<path d="M44565 57266
L44565 56647
L44508 56535
L44396 56479
L44171 56479
L44059 56535
" />
<path d="M44565 57210
L44452 57266
L44171 57266
L44059 57210
L44002 57097
L44002 56985
L44059 56872
L44171 56816
L44452 56816
L44565 56760
" />
<path d="M44958 56479
L45408 56479
" />
<path d="M45127 56085
L45127 57097
L45183 57210
L45296 57266
L45408 57266
" />
<path d="M46252 57210
L46140 57266
L45915 57266
L45802 57210
L45746 57097
L45746 56647
L45802 56535
L45915 56479
L46140 56479
L46252 56535
L46308 56647
L46308 56760
L45746 56872
" />
<path d="M47321 57266
L47321 56085
" />
<path d="M47321 57210
L47208 57266
L46983 57266
L46871 57210
L46814 57154
L46758 57041
L46758 56704
L46814 56591
L46871 56535
L46983 56479
L47208 56479
L47321 56535
" />
<path d="M47771 57716
L47827 57660
L47939 57491
L47996 57379
L48052 57210
L48108 56929
L48108 56704
L48052 56422
L47996 56254
L47939 56141
L47827 55973
L47771 55916
" />
</g> 
</svg>
