<?xml version="1.0" standalone="no"?>
 <!DOCTYPE svg PUBLIC "-//W3C//DTD SVG 1.1//EN" 
 "http://www.w3.org/Graphics/SVG/1.1/DTD/svg11.dtd"> 
<svg xmlns="http://www.w3.org/2000/svg" version="1.1" 
    width="29.7002cm" height="21.0007cm" viewBox="0 0 116930 82680 ">
<title>SVG Picture created as mainboard-Edge_Cuts.svg date 2022/04/22 05:32:20 </title>
  <desc>Picture generated by PCBNEW </desc>
<g style="fill:#000000; fill-opacity:1;stroke:#000000; stroke-opacity:1;
stroke-linecap:round; stroke-linejoin:round; "
 transform="translate(0 0) scale(1 1)">
</g>
<g style="fill:#000000; fill-opacity:0.0; 
stroke:#000000; stroke-width:-0.000393701; stroke-opacity:1; 
stroke-linecap:round; stroke-linejoin:round;">
</g>
<g style="fill:#000000; fill-opacity:0.0; 
stroke:#000000; stroke-width:78.7402; stroke-opacity:1; 
stroke-linecap:round; stroke-linejoin:round;">
<path d="M79472 42677
L79472 52913
" />
<path d="M81440 42677
L79472 42677
" />
<path d="M77897 47007
L77897 37165
" />
<path d="M77897 47007
L51125 47007
" />
<path d="M81440 42677
L81440 27322
" />
<path d="M79472 27322
L81440 27322
" />
<path d="M10574 20629
L16480 20629
" />
<path d="M51125 37165
L51125 47007
" />
<path d="M77897 37165
L51125 37165
" />
<path d="M16480 22204
L16480 20629
" />
<path d="M10574 26929
L10574 20629
" />
<path d="M16480 22204
L79472 22204
" />
<path d="M79472 27322
L79472 22204
" />
<path d="M30653 52913
L79472 52913
" />
<path d="M30653 26929
L30653 52913
" />
<path d="M30653 26929
L10574 26929
" />
<g >
</g>
<g >
</g>
<g >
</g>
<g >
</g>
<g >
</g>
<g >
</g>
<g >
</g>
<g >
</g>
</g> 
</svg>
